M48
; DRILL file {KiCad 8.0.3} date 2024-07-06T20:18:43-0300
; FORMAT={-:-/ absolute / inch / decimal}
; #@! TF.CreationDate,2024-07-06T20:18:43-03:00
; #@! TF.GenerationSoftware,Kicad,Pcbnew,8.0.3
; #@! TF.FileFunction,Plated,1,2,PTH
FMAT,2
INCH
; #@! TA.AperFunction,Plated,PTH,ComponentDrill
T1C0.0315
; #@! TA.AperFunction,Plated,PTH,ComponentDrill
T2C0.0354
; #@! TA.AperFunction,Plated,PTH,ViaDrill
T3C0.0394
; #@! TA.AperFunction,Plated,PTH,ComponentDrill
T4C0.0394
; #@! TA.AperFunction,Plated,PTH,ComponentDrill
T5C0.0433
; #@! TA.AperFunction,Plated,PTH,ComponentDrill
T6C0.0472
; #@! TA.AperFunction,Plated,PTH,ComponentDrill
T7C0.0512
; #@! TA.AperFunction,Plated,PTH,ComponentDrill
T8C0.0520
; #@! TA.AperFunction,Plated,PTH,ComponentDrill
T9C0.0591
; #@! TA.AperFunction,Plated,PTH,ViaDrill
T10C0.1575
%
G90
G05
T1
X3.9265Y-4.6105
X3.9265Y-5.0105
X3.9271Y-4.0101
X3.9271Y-4.3101
X4.0271Y-4.0101
X4.0271Y-4.3101
X4.1265Y-4.6105
X4.1271Y-4.0101
X4.1271Y-4.3101
X4.2271Y-4.0101
X4.2271Y-4.3101
X4.2765Y-2.3605
X4.3271Y-4.0101
X4.3271Y-4.3101
X4.3765Y-2.9605
X4.3765Y-3.3605
X4.4271Y-4.0101
X4.4271Y-4.3101
X4.5265Y-4.6105
X4.5271Y-4.0101
X4.5271Y-4.3101
X4.5765Y-2.3605
X4.5765Y-2.9605
X4.5765Y-3.3605
X4.6271Y-4.0101
X4.6271Y-4.3101
X4.7265Y-4.6105
X4.7265Y-5.0105
X4.8215Y-3.7905
X4.9015Y-3.9105
X4.9015Y-4.2105
X5.0183Y-3.7905
X5.0265Y-4.6355
X5.0515Y-4.0105
X5.0515Y-4.3105
X5.1515Y-4.0105
X5.1515Y-4.3105
X5.1778Y-3.8205
X5.2233Y-4.6355
X5.2515Y-4.0105
X5.2515Y-4.3105
X5.2565Y-3.8205
X5.3515Y-4.0105
X5.3515Y-4.3105
X5.4515Y-4.0105
X5.4515Y-4.3105
X5.5265Y-4.6105
X5.5265Y-5.0105
X5.5515Y-4.0105
X5.5515Y-4.3105
X5.6515Y-4.0105
X5.6515Y-4.3105
X5.7265Y-4.6105
X5.7265Y-5.0105
X5.7815Y-2.5952
X5.7815Y-2.7952
X5.8315Y-2.9452
X5.9265Y-4.6105
X5.9265Y-5.0105
X6.1315Y-2.9452
X6.1815Y-2.5952
X6.1815Y-2.7952
X6.5415Y-2.5955
X6.5415Y-2.7955
X6.5915Y-2.9455
X6.8915Y-2.9455
X6.9415Y-2.5955
X6.9415Y-2.7955
X7.2415Y-2.5055
X7.6015Y-2.3255
X7.6415Y-2.5055
X7.7983Y-2.3255
X7.8015Y-2.4905
X7.8015Y-2.6874
T2
X6.752Y-3.5557
X6.752Y-4.0754
X7.1615Y-4.0754
X7.5709Y-3.5557
X7.5709Y-4.0754
T3
X3.7015Y-4.4855
X3.9265Y-4.4855
X4.1865Y-3.1105
X4.1865Y-3.5755
X4.3265Y-4.4855
X4.8015Y-4.4855
X5.3865Y-3.8155
X5.6365Y-3.8155
X5.7515Y-3.8955
X5.7515Y-4.3355
X6.0865Y-3.0755
X6.0865Y-3.4855
X6.2565Y-3.0705
X6.2565Y-3.5005
X6.5665Y-3.0855
X7.0965Y-3.0855
T4
X5.7565Y-3.1958
X5.7565Y-3.3958
X5.8565Y-3.1958
X5.8565Y-3.3958
X6.1765Y-3.8855
X6.1765Y-4.0686
X6.1765Y-4.6605
X6.1765Y-4.8436
X6.2765Y-3.8855
X6.2765Y-4.0686
X6.2765Y-4.6605
X6.2765Y-4.8436
X6.9565Y-4.3955
X6.9565Y-4.4955
X7.2465Y-2.3205
X7.3465Y-2.3205
X7.9465Y-4.1087
X7.9465Y-4.3055
T5
X5.8592Y-2.3383
X5.9592Y-2.3383
X6.0592Y-2.3383
X6.6615Y-2.328
X6.7466Y-4.8601
X6.7615Y-2.328
X6.8466Y-4.8601
X6.8615Y-2.328
X6.9466Y-4.8601
T6
X3.9765Y-2.9605
X3.9765Y-3.1121
X3.9765Y-3.2637
X3.9765Y-3.4152
X5.1765Y-2.2605
X5.1765Y-2.5558
X5.1765Y-3.0605
X5.1765Y-3.3558
T7
X4.2281Y-5.0105
X4.3265Y-4.9121
X4.4249Y-5.0105
X5.0281Y-5.0089
X5.1265Y-4.9105
X5.2249Y-5.0089
T8
X3.3765Y-3.0605
X3.3765Y-3.2574
X3.3765Y-4.0105
X3.3765Y-4.2074
X7.9615Y-3.0505
X7.9615Y-3.2474
T9
X3.1867Y-2.3605
X4.0765Y-2.3605
X7.6815Y-4.5445
X7.6815Y-4.8555
T10
X3.2299Y-1.903
X3.2299Y-5.078
X8.1161Y-1.903
X8.1199Y-5.068
M30
