%TF.GenerationSoftware,KiCad,Pcbnew,8.0.3*%
%TF.CreationDate,2024-07-06T20:18:36-03:00*%
%TF.ProjectId,Fuente_Conmutada,4675656e-7465-45f4-936f-6e6d75746164,rev?*%
%TF.SameCoordinates,Original*%
%TF.FileFunction,Soldermask,Top*%
%TF.FilePolarity,Negative*%
%FSLAX46Y46*%
G04 Gerber Fmt 4.6, Leading zero omitted, Abs format (unit mm)*
G04 Created by KiCad (PCBNEW 8.0.3) date 2024-07-06 20:18:36*
%MOMM*%
%LPD*%
G01*
G04 APERTURE LIST*
%ADD10C,1.600000*%
%ADD11O,1.600000X1.600000*%
%ADD12R,1.905000X2.000000*%
%ADD13O,1.905000X2.000000*%
%ADD14C,3.000000*%
%ADD15R,1.600000X1.600000*%
%ADD16R,3.960000X1.980000*%
%ADD17O,3.960000X1.980000*%
%ADD18R,2.400000X2.400000*%
%ADD19C,2.400000*%
%ADD20R,1.700000X1.700000*%
%ADD21O,1.700000X1.700000*%
%ADD22R,2.000000X2.000000*%
%ADD23C,2.000000*%
%ADD24R,2.300000X2.300000*%
%ADD25C,2.300000*%
%ADD26C,2.340000*%
%ADD27R,2.200000X2.200000*%
%ADD28C,2.200000*%
G04 APERTURE END LIST*
D10*
%TO.C,R10*%
X157010000Y-65918000D03*
D11*
X146850000Y-65918000D03*
%TD*%
D10*
%TO.C,R12*%
X176314000Y-71006000D03*
D11*
X166154000Y-71006000D03*
%TD*%
D10*
%TO.C,C7*%
X198158000Y-63259000D03*
X198158000Y-68259000D03*
%TD*%
D12*
%TO.C,Q1*%
X169202000Y-59132000D03*
D13*
X171742000Y-59132000D03*
X174282000Y-59132000D03*
%TD*%
D10*
%TO.C,R11*%
X146850000Y-70998000D03*
D11*
X157010000Y-70998000D03*
%TD*%
D14*
%TO.C,REF\u002A\u002A*%
X194153000Y-47142000D03*
%TD*%
%TO.C,L1*%
X195110000Y-123330000D03*
X195110000Y-115430000D03*
%TD*%
D12*
%TO.C,Q2*%
X148823000Y-59392000D03*
D13*
X151363000Y-59392000D03*
X153903000Y-59392000D03*
%TD*%
D15*
%TO.C,U1*%
X99748000Y-109477000D03*
D11*
X102288000Y-109477000D03*
X104828000Y-109477000D03*
X107368000Y-109477000D03*
X109908000Y-109477000D03*
X112448000Y-109477000D03*
X114988000Y-109477000D03*
X117528000Y-109477000D03*
X117528000Y-101857000D03*
X114988000Y-101857000D03*
X112448000Y-101857000D03*
X109908000Y-101857000D03*
X107368000Y-101857000D03*
X104828000Y-101857000D03*
X102288000Y-101857000D03*
X99748000Y-101857000D03*
%TD*%
D16*
%TO.C,J2*%
X85763000Y-106867000D03*
D17*
X85763000Y-101867000D03*
%TD*%
D14*
%TO.C,REF\u002A\u002A*%
X95153000Y-47142000D03*
%TD*%
D15*
%TO.C,D2*%
X124498000Y-99327000D03*
D11*
X124498000Y-106947000D03*
%TD*%
D10*
%TO.C,C3*%
X127673000Y-117742000D03*
X132673000Y-117742000D03*
%TD*%
D14*
%TO.C,F1*%
X103543000Y-59957000D03*
X80943000Y-59957000D03*
%TD*%
D16*
%TO.C,J1*%
X85763000Y-82737000D03*
D17*
X85763000Y-77737000D03*
%TD*%
D18*
%TO.C,C2*%
X131483000Y-64917000D03*
D19*
X131483000Y-57417000D03*
%TD*%
D20*
%TO.C,JP6*%
X156883000Y-98692000D03*
D21*
X159423000Y-98692000D03*
%TD*%
D20*
%TO.C,JP4*%
X156883000Y-118377000D03*
D21*
X159423000Y-118377000D03*
%TD*%
D20*
%TO.C,JP1*%
X146215000Y-86254000D03*
D21*
X148755000Y-86254000D03*
%TD*%
D22*
%TO.C,C8*%
X201841000Y-109360000D03*
D23*
X201841000Y-104360000D03*
%TD*%
D20*
%TO.C,JP2*%
X146215000Y-81174000D03*
D21*
X148755000Y-81174000D03*
%TD*%
D24*
%TO.C,T1*%
X192302000Y-90314000D03*
D25*
X171502000Y-90314000D03*
X171502000Y-103514000D03*
X181902000Y-103514000D03*
X192302000Y-103514000D03*
%TD*%
D16*
%TO.C,J3*%
X202222000Y-77483000D03*
D17*
X202222000Y-82483000D03*
%TD*%
D14*
%TO.C,REF\u002A\u002A*%
X80403000Y-116392000D03*
%TD*%
D12*
%TO.C,D5*%
X176443000Y-123447000D03*
D13*
X173903000Y-123447000D03*
X171363000Y-123447000D03*
%TD*%
D10*
%TO.C,R3*%
X99733000Y-117107000D03*
D11*
X99733000Y-127267000D03*
%TD*%
D10*
%TO.C,R5*%
X104813000Y-117107000D03*
D11*
X114973000Y-117107000D03*
%TD*%
D10*
%TO.C,C6*%
X198078000Y-59068000D03*
X193078000Y-59068000D03*
%TD*%
%TO.C,R2*%
X111163000Y-85357000D03*
D11*
X111163000Y-75197000D03*
%TD*%
D10*
%TO.C,C5*%
X122466000Y-96279000D03*
X127466000Y-96279000D03*
%TD*%
D26*
%TO.C,RV1*%
X107393000Y-127267000D03*
X109893000Y-124767000D03*
X112393000Y-127267000D03*
%TD*%
%TO.C,RV2*%
X127713000Y-127227000D03*
X130213000Y-124727000D03*
X132713000Y-127227000D03*
%TD*%
D20*
%TO.C,JP8*%
X176695000Y-111646000D03*
D21*
X176695000Y-114186000D03*
%TD*%
D10*
%TO.C,R4*%
X120053000Y-127267000D03*
D11*
X120053000Y-117107000D03*
%TD*%
D15*
%TO.C,D3*%
X175044000Y-74816000D03*
D11*
X167424000Y-74816000D03*
%TD*%
D10*
%TO.C,R13*%
X194094000Y-63640000D03*
D11*
X183934000Y-63640000D03*
%TD*%
D20*
%TO.C,JP3*%
X156883000Y-123027000D03*
D21*
X159423000Y-123027000D03*
%TD*%
D10*
%TO.C,R8*%
X140373000Y-127267000D03*
D11*
X140373000Y-117107000D03*
%TD*%
D10*
%TO.C,R7*%
X145453000Y-117107000D03*
D11*
X145453000Y-127267000D03*
%TD*%
D15*
%TO.C,U2*%
X143548000Y-101867000D03*
D11*
X141008000Y-101867000D03*
X138468000Y-101867000D03*
X135928000Y-101867000D03*
X133388000Y-101867000D03*
X130848000Y-101867000D03*
X128308000Y-101867000D03*
X128308000Y-109487000D03*
X130848000Y-109487000D03*
X133388000Y-109487000D03*
X135928000Y-109487000D03*
X138468000Y-109487000D03*
X141008000Y-109487000D03*
X143548000Y-109487000D03*
%TD*%
D20*
%TO.C,JP7*%
X184061000Y-58941000D03*
D21*
X186601000Y-58941000D03*
%TD*%
D10*
%TO.C,R1*%
X116243000Y-85357000D03*
D11*
X116243000Y-75197000D03*
%TD*%
D10*
%TO.C,TH1*%
X116243000Y-59957000D03*
D11*
X108623000Y-59957000D03*
%TD*%
D10*
%TO.C,R9*%
X176314000Y-65926000D03*
D11*
X166154000Y-65926000D03*
%TD*%
D15*
%TO.C,D4*%
X155740000Y-74808000D03*
D11*
X148120000Y-74808000D03*
%TD*%
D10*
%TO.C,R6*%
X150533000Y-117107000D03*
D11*
X150533000Y-127267000D03*
%TD*%
D18*
%TO.C,C1*%
X131483000Y-85237000D03*
D19*
X131483000Y-77737000D03*
%TD*%
D20*
%TO.C,JP5*%
X156883000Y-103342000D03*
D21*
X159423000Y-103342000D03*
%TD*%
D27*
%TO.C,D1*%
X101003000Y-75197000D03*
D28*
X101003000Y-79047000D03*
X101003000Y-82897000D03*
X101003000Y-86747000D03*
%TD*%
D15*
%TO.C,C4*%
X131515000Y-97041000D03*
D10*
X133515000Y-97041000D03*
%TD*%
M02*
