%TF.GenerationSoftware,KiCad,Pcbnew,8.0.3*%
%TF.CreationDate,2024-07-06T20:18:36-03:00*%
%TF.ProjectId,Fuente_Conmutada,4675656e-7465-45f4-936f-6e6d75746164,rev?*%
%TF.SameCoordinates,Original*%
%TF.FileFunction,Copper,L2,Bot*%
%TF.FilePolarity,Positive*%
%FSLAX46Y46*%
G04 Gerber Fmt 4.6, Leading zero omitted, Abs format (unit mm)*
G04 Created by KiCad (PCBNEW 8.0.3) date 2024-07-06 20:18:36*
%MOMM*%
%LPD*%
G01*
G04 APERTURE LIST*
%TA.AperFunction,ComponentPad*%
%ADD10C,1.600000*%
%TD*%
%TA.AperFunction,ComponentPad*%
%ADD11O,1.600000X1.600000*%
%TD*%
%TA.AperFunction,ComponentPad*%
%ADD12R,1.905000X2.000000*%
%TD*%
%TA.AperFunction,ComponentPad*%
%ADD13O,1.905000X2.000000*%
%TD*%
%TA.AperFunction,ComponentPad*%
%ADD14C,3.000000*%
%TD*%
%TA.AperFunction,ComponentPad*%
%ADD15R,1.600000X1.600000*%
%TD*%
%TA.AperFunction,ComponentPad*%
%ADD16R,3.960000X1.980000*%
%TD*%
%TA.AperFunction,ComponentPad*%
%ADD17O,3.960000X1.980000*%
%TD*%
%TA.AperFunction,ComponentPad*%
%ADD18R,2.400000X2.400000*%
%TD*%
%TA.AperFunction,ComponentPad*%
%ADD19C,2.400000*%
%TD*%
%TA.AperFunction,ComponentPad*%
%ADD20R,1.700000X1.700000*%
%TD*%
%TA.AperFunction,ComponentPad*%
%ADD21O,1.700000X1.700000*%
%TD*%
%TA.AperFunction,ComponentPad*%
%ADD22R,2.000000X2.000000*%
%TD*%
%TA.AperFunction,ComponentPad*%
%ADD23C,2.000000*%
%TD*%
%TA.AperFunction,ComponentPad*%
%ADD24R,2.300000X2.300000*%
%TD*%
%TA.AperFunction,ComponentPad*%
%ADD25C,2.300000*%
%TD*%
%TA.AperFunction,ComponentPad*%
%ADD26C,2.340000*%
%TD*%
%TA.AperFunction,ComponentPad*%
%ADD27R,2.200000X2.200000*%
%TD*%
%TA.AperFunction,ComponentPad*%
%ADD28C,2.200000*%
%TD*%
%TA.AperFunction,ViaPad*%
%ADD29C,7.000000*%
%TD*%
%TA.AperFunction,ViaPad*%
%ADD30C,2.000000*%
%TD*%
%TA.AperFunction,Conductor*%
%ADD31C,2.000000*%
%TD*%
%TA.AperFunction,Conductor*%
%ADD32C,1.000000*%
%TD*%
G04 APERTURE END LIST*
D10*
%TO.P,R10,1*%
%TO.N,LO*%
X157010000Y-65918000D03*
D11*
%TO.P,R10,2*%
%TO.N,Net-(D4-A)*%
X146850000Y-65918000D03*
%TD*%
D10*
%TO.P,R12,1*%
%TO.N,Vs*%
X176314000Y-71006000D03*
D11*
%TO.P,R12,2*%
%TO.N,Net-(D3-A)*%
X166154000Y-71006000D03*
%TD*%
D10*
%TO.P,C7,1*%
%TO.N,Net-(T1-AA)*%
X198158000Y-63259000D03*
%TO.P,C7,2*%
%TO.N,Net-(C7-Pad2)*%
X198158000Y-68259000D03*
%TD*%
D12*
%TO.P,Q1,1,G*%
%TO.N,Net-(D3-A)*%
X169202000Y-59132000D03*
D13*
%TO.P,Q1,2,D*%
%TO.N,Net-(JP1-B)*%
X171742000Y-59132000D03*
%TO.P,Q1,3,S*%
%TO.N,Vs*%
X174282000Y-59132000D03*
%TD*%
D10*
%TO.P,R11,1*%
%TO.N,Net-(D4-A)*%
X146850000Y-70998000D03*
D11*
%TO.P,R11,2*%
%TO.N,GND*%
X157010000Y-70998000D03*
%TD*%
D14*
%TO.P,L1,1,1*%
%TO.N,Net-(D5-K)*%
X195110000Y-123330000D03*
%TO.P,L1,2,2*%
%TO.N,Net-(J3-Pin_1)*%
X195110000Y-115430000D03*
%TD*%
D12*
%TO.P,Q2,1,G*%
%TO.N,Net-(D4-A)*%
X148823000Y-59392000D03*
D13*
%TO.P,Q2,2,D*%
%TO.N,Vs*%
X151363000Y-59392000D03*
%TO.P,Q2,3,S*%
%TO.N,GND*%
X153903000Y-59392000D03*
%TD*%
D15*
%TO.P,U1,1,1IN+*%
%TO.N,GND*%
X99748000Y-109477000D03*
D11*
%TO.P,U1,2,1IN-*%
%TO.N,Vref*%
X102288000Y-109477000D03*
%TO.P,U1,3,FB*%
%TO.N,Net-(U1-FB)*%
X104828000Y-109477000D03*
%TO.P,U1,4,DTC*%
%TO.N,GND*%
X107368000Y-109477000D03*
%TO.P,U1,5,CT*%
%TO.N,Net-(U1-CT)*%
X109908000Y-109477000D03*
%TO.P,U1,6,RT*%
%TO.N,Net-(U1-RT)*%
X112448000Y-109477000D03*
%TO.P,U1,7,GND*%
%TO.N,GND*%
X114988000Y-109477000D03*
%TO.P,U1,8,C1*%
%TO.N,+12V*%
X117528000Y-109477000D03*
%TO.P,U1,9,E1*%
%TO.N,Net-(JP3-A)*%
X117528000Y-101857000D03*
%TO.P,U1,10,E2*%
%TO.N,Net-(JP4-A)*%
X114988000Y-101857000D03*
%TO.P,U1,11,C2*%
%TO.N,+12V*%
X112448000Y-101857000D03*
%TO.P,U1,12,VCC*%
X109908000Y-101857000D03*
%TO.P,U1,13,OUTCTRL*%
%TO.N,Vref*%
X107368000Y-101857000D03*
%TO.P,U1,14,REF*%
X104828000Y-101857000D03*
%TO.P,U1,15,2IN-*%
X102288000Y-101857000D03*
%TO.P,U1,16,2IN+*%
%TO.N,GND*%
X99748000Y-101857000D03*
%TD*%
D16*
%TO.P,J2,1,Pin_1*%
%TO.N,GND*%
X85763000Y-106867000D03*
D17*
%TO.P,J2,2,Pin_2*%
%TO.N,+12V*%
X85763000Y-101867000D03*
%TD*%
D15*
%TO.P,D2,1,K*%
%TO.N,Net-(D2-K)*%
X124498000Y-99327000D03*
D11*
%TO.P,D2,2,A*%
%TO.N,+12V*%
X124498000Y-106947000D03*
%TD*%
D10*
%TO.P,C3,1*%
%TO.N,Net-(U1-CT)*%
X127673000Y-117742000D03*
%TO.P,C3,2*%
%TO.N,GND*%
X132673000Y-117742000D03*
%TD*%
D14*
%TO.P,F1,1*%
%TO.N,Net-(F1-Pad1)*%
X103543000Y-59957000D03*
%TO.P,F1,2*%
%TO.N,VAC*%
X80943000Y-59957000D03*
%TD*%
D16*
%TO.P,J1,1,Pin_1*%
%TO.N,GND_AC*%
X85763000Y-82737000D03*
D17*
%TO.P,J1,2,Pin_2*%
%TO.N,VAC*%
X85763000Y-77737000D03*
%TD*%
D18*
%TO.P,C2,1*%
%TO.N,Net-(JP2-A)*%
X131483000Y-64917000D03*
D19*
%TO.P,C2,2*%
%TO.N,GND*%
X131483000Y-57417000D03*
%TD*%
D20*
%TO.P,JP6,1,A*%
%TO.N,Net-(JP6-A)*%
X156883000Y-98692000D03*
D21*
%TO.P,JP6,2,B*%
%TO.N,LO*%
X159423000Y-98692000D03*
%TD*%
D20*
%TO.P,JP4,1,A*%
%TO.N,Net-(JP4-A)*%
X156883000Y-118377000D03*
D21*
%TO.P,JP4,2,B*%
%TO.N,PWM2*%
X159423000Y-118377000D03*
%TD*%
D20*
%TO.P,JP1,1,A*%
%TO.N,Net-(D1-+)*%
X146215000Y-86254000D03*
D21*
%TO.P,JP1,2,B*%
%TO.N,Net-(JP1-B)*%
X148755000Y-86254000D03*
%TD*%
D22*
%TO.P,C8,1*%
%TO.N,Net-(J3-Pin_1)*%
X201841000Y-109360000D03*
D23*
%TO.P,C8,2*%
%TO.N,2*%
X201841000Y-104360000D03*
%TD*%
D20*
%TO.P,JP2,1,A*%
%TO.N,Net-(JP2-A)*%
X146215000Y-81174000D03*
D21*
%TO.P,JP2,2,B*%
%TO.N,/Punto_medio*%
X148755000Y-81174000D03*
%TD*%
D24*
%TO.P,T1,1,AA*%
%TO.N,Net-(T1-AA)*%
X192302000Y-90314000D03*
D25*
%TO.P,T1,2,AB*%
%TO.N,/Punto_medio*%
X171502000Y-90314000D03*
%TO.P,T1,3,SA*%
%TO.N,Net-(D5-A2)*%
X171502000Y-103514000D03*
%TO.P,T1,4,SC*%
%TO.N,2*%
X181902000Y-103514000D03*
%TO.P,T1,5,SB*%
%TO.N,Net-(JP8-A)*%
X192302000Y-103514000D03*
%TD*%
D16*
%TO.P,J3,1,Pin_1*%
%TO.N,Net-(J3-Pin_1)*%
X202222000Y-77483000D03*
D17*
%TO.P,J3,2,Pin_2*%
%TO.N,2*%
X202222000Y-82483000D03*
%TD*%
D12*
%TO.P,D5,1,A1*%
%TO.N,Net-(D5-A1)*%
X176443000Y-123447000D03*
D13*
%TO.P,D5,2,K*%
%TO.N,Net-(D5-K)*%
X173903000Y-123447000D03*
%TO.P,D5,3,A2*%
%TO.N,Net-(D5-A2)*%
X171363000Y-123447000D03*
%TD*%
D10*
%TO.P,R3,1*%
%TO.N,Vref*%
X99733000Y-117107000D03*
D11*
%TO.P,R3,2*%
%TO.N,Net-(R3-Pad2)*%
X99733000Y-127267000D03*
%TD*%
D10*
%TO.P,R5,1*%
%TO.N,Vref*%
X104813000Y-117107000D03*
D11*
%TO.P,R5,2*%
%TO.N,GND*%
X114973000Y-117107000D03*
%TD*%
D10*
%TO.P,C6,1*%
%TO.N,Net-(T1-AA)*%
X198078000Y-59068000D03*
%TO.P,C6,2*%
%TO.N,Net-(JP7-B)*%
X193078000Y-59068000D03*
%TD*%
%TO.P,R2,1*%
%TO.N,Net-(JP2-A)*%
X111163000Y-85357000D03*
D11*
%TO.P,R2,2*%
%TO.N,GND*%
X111163000Y-75197000D03*
%TD*%
D10*
%TO.P,C5,1*%
%TO.N,Net-(D2-K)*%
X122466000Y-96279000D03*
%TO.P,C5,2*%
%TO.N,Vs*%
X127466000Y-96279000D03*
%TD*%
D26*
%TO.P,RV1,1,1*%
%TO.N,Net-(R3-Pad2)*%
X107393000Y-127267000D03*
%TO.P,RV1,2,2*%
%TO.N,Net-(U1-FB)*%
X109893000Y-124767000D03*
%TO.P,RV1,3,3*%
%TO.N,Net-(R4-Pad1)*%
X112393000Y-127267000D03*
%TD*%
%TO.P,RV2,1,1*%
%TO.N,Net-(U1-RT)*%
X127713000Y-127227000D03*
%TO.P,RV2,2,2*%
X130213000Y-124727000D03*
%TO.P,RV2,3,3*%
%TO.N,Net-(R8-Pad1)*%
X132713000Y-127227000D03*
%TD*%
D20*
%TO.P,JP8,1,A*%
%TO.N,Net-(JP8-A)*%
X176695000Y-111646000D03*
D21*
%TO.P,JP8,2,B*%
%TO.N,Net-(D5-A1)*%
X176695000Y-114186000D03*
%TD*%
D10*
%TO.P,R4,1*%
%TO.N,Net-(R4-Pad1)*%
X120053000Y-127267000D03*
D11*
%TO.P,R4,2*%
%TO.N,GND*%
X120053000Y-117107000D03*
%TD*%
D15*
%TO.P,D3,1,K*%
%TO.N,HO*%
X175044000Y-74816000D03*
D11*
%TO.P,D3,2,A*%
%TO.N,Net-(D3-A)*%
X167424000Y-74816000D03*
%TD*%
D10*
%TO.P,R13,1*%
%TO.N,Net-(C7-Pad2)*%
X194094000Y-63640000D03*
D11*
%TO.P,R13,2*%
%TO.N,/Punto_medio*%
X183934000Y-63640000D03*
%TD*%
D20*
%TO.P,JP3,1,A*%
%TO.N,Net-(JP3-A)*%
X156883000Y-123027000D03*
D21*
%TO.P,JP3,2,B*%
%TO.N,PWM1*%
X159423000Y-123027000D03*
%TD*%
D10*
%TO.P,R8,1*%
%TO.N,Net-(R8-Pad1)*%
X140373000Y-127267000D03*
D11*
%TO.P,R8,2*%
%TO.N,GND*%
X140373000Y-117107000D03*
%TD*%
D10*
%TO.P,R7,1*%
%TO.N,Net-(JP3-A)*%
X145453000Y-117107000D03*
D11*
%TO.P,R7,2*%
%TO.N,GND*%
X145453000Y-127267000D03*
%TD*%
D15*
%TO.P,U2,1,LO*%
%TO.N,Net-(JP6-A)*%
X143548000Y-101867000D03*
D11*
%TO.P,U2,2,COM*%
%TO.N,GND*%
X141008000Y-101867000D03*
%TO.P,U2,3,VCC*%
%TO.N,+12V*%
X138468000Y-101867000D03*
%TO.P,U2,4,NC*%
%TO.N,unconnected-(U2-NC-Pad4)*%
X135928000Y-101867000D03*
%TO.P,U2,5,VS*%
%TO.N,Vs*%
X133388000Y-101867000D03*
%TO.P,U2,6,VB*%
%TO.N,Net-(D2-K)*%
X130848000Y-101867000D03*
%TO.P,U2,7,HO*%
%TO.N,Net-(JP5-A)*%
X128308000Y-101867000D03*
%TO.P,U2,8,NC*%
%TO.N,unconnected-(U2-NC-Pad8)*%
X128308000Y-109487000D03*
%TO.P,U2,9,VDD*%
%TO.N,+12V*%
X130848000Y-109487000D03*
%TO.P,U2,10,HIN*%
%TO.N,PWM1*%
X133388000Y-109487000D03*
%TO.P,U2,11,SD*%
%TO.N,GND*%
X135928000Y-109487000D03*
%TO.P,U2,12,LIN*%
%TO.N,PWM2*%
X138468000Y-109487000D03*
%TO.P,U2,13,VSS*%
%TO.N,GND*%
X141008000Y-109487000D03*
%TO.P,U2,14,NC*%
%TO.N,unconnected-(U2-NC-Pad14)*%
X143548000Y-109487000D03*
%TD*%
D20*
%TO.P,JP7,1,A*%
%TO.N,Vs*%
X184061000Y-58941000D03*
D21*
%TO.P,JP7,2,B*%
%TO.N,Net-(JP7-B)*%
X186601000Y-58941000D03*
%TD*%
D10*
%TO.P,R1,1*%
%TO.N,Net-(D1-+)*%
X116243000Y-85357000D03*
D11*
%TO.P,R1,2*%
%TO.N,Net-(JP2-A)*%
X116243000Y-75197000D03*
%TD*%
D10*
%TO.P,TH1,1*%
%TO.N,Net-(D1-Pad2)*%
X116243000Y-59957000D03*
D11*
%TO.P,TH1,2*%
%TO.N,Net-(F1-Pad1)*%
X108623000Y-59957000D03*
%TD*%
D10*
%TO.P,R9,1*%
%TO.N,HO*%
X176314000Y-65926000D03*
D11*
%TO.P,R9,2*%
%TO.N,Net-(D3-A)*%
X166154000Y-65926000D03*
%TD*%
D15*
%TO.P,D4,1,K*%
%TO.N,LO*%
X155740000Y-74808000D03*
D11*
%TO.P,D4,2,A*%
%TO.N,Net-(D4-A)*%
X148120000Y-74808000D03*
%TD*%
D10*
%TO.P,R6,1*%
%TO.N,Net-(JP4-A)*%
X150533000Y-117107000D03*
D11*
%TO.P,R6,2*%
%TO.N,GND*%
X150533000Y-127267000D03*
%TD*%
D18*
%TO.P,C1,1*%
%TO.N,Net-(D1-+)*%
X131483000Y-85237000D03*
D19*
%TO.P,C1,2*%
%TO.N,Net-(JP2-A)*%
X131483000Y-77737000D03*
%TD*%
D20*
%TO.P,JP5,1,A*%
%TO.N,Net-(JP5-A)*%
X156883000Y-103342000D03*
D21*
%TO.P,JP5,2,B*%
%TO.N,HO*%
X159423000Y-103342000D03*
%TD*%
D27*
%TO.P,D1,1,-*%
%TO.N,GND*%
X101003000Y-75197000D03*
D28*
%TO.P,D1,2*%
%TO.N,Net-(D1-Pad2)*%
X101003000Y-79047000D03*
%TO.P,D1,3,+*%
%TO.N,Net-(D1-+)*%
X101003000Y-82897000D03*
%TO.P,D1,4*%
%TO.N,GND_AC*%
X101003000Y-86747000D03*
%TD*%
D15*
%TO.P,C4,1*%
%TO.N,Net-(D2-K)*%
X131515000Y-97041000D03*
D10*
%TO.P,C4,2*%
%TO.N,Vs*%
X133515000Y-97041000D03*
%TD*%
D29*
%TO.N,*%
X82039000Y-48337000D03*
X206149000Y-48337000D03*
X82039000Y-128982000D03*
X206245000Y-128728000D03*
D30*
%TO.N,Net-(U1-CT)*%
X109893000Y-113932000D03*
X121958000Y-113932000D03*
%TO.N,GND*%
X106337000Y-79007000D03*
X146088000Y-110122000D03*
X146088000Y-98946000D03*
X94018000Y-113932000D03*
X106337000Y-90818000D03*
X99733000Y-113932000D03*
%TO.N,Vs*%
X154597000Y-88532000D03*
X154597000Y-78118000D03*
X136817000Y-96914000D03*
X143167000Y-96914000D03*
%TO.N,LO*%
X158915000Y-88913000D03*
X158915000Y-77991000D03*
%TO.N,/Punto_medio*%
X166789000Y-78372000D03*
X180251000Y-78372000D03*
%TD*%
D31*
%TO.N,Net-(D1-+)*%
X145953000Y-85992000D02*
X146215000Y-86254000D01*
X106083000Y-85357000D02*
X106083000Y-87897000D01*
X106210000Y-88024000D02*
X116116000Y-88024000D01*
X106083000Y-87897000D02*
X106210000Y-88024000D01*
X101003000Y-82897000D02*
X103623000Y-82897000D01*
X116116000Y-88024000D02*
X116243000Y-87897000D01*
X116243000Y-87897000D02*
X116243000Y-85357000D01*
X116243000Y-85357000D02*
X131363000Y-85357000D01*
X132238000Y-85992000D02*
X145953000Y-85992000D01*
X131363000Y-85357000D02*
X131483000Y-85237000D01*
X131483000Y-85237000D02*
X132238000Y-85992000D01*
X103623000Y-82897000D02*
X106083000Y-85357000D01*
D32*
%TO.N,Net-(U1-CT)*%
X109893000Y-110757000D02*
X109893000Y-113932000D01*
X125768000Y-117742000D02*
X127673000Y-117742000D01*
X109908000Y-110742000D02*
X109893000Y-110757000D01*
X109908000Y-109477000D02*
X109908000Y-110742000D01*
X121958000Y-113932000D02*
X125768000Y-117742000D01*
%TO.N,Net-(D2-K)*%
X124498000Y-99327000D02*
X124498000Y-98311000D01*
X131229000Y-97041000D02*
X128943000Y-99327000D01*
X124498000Y-98311000D02*
X122466000Y-96279000D01*
X131515000Y-97041000D02*
X131229000Y-97041000D01*
X128943000Y-99327000D02*
X130848000Y-101232000D01*
X124498000Y-99327000D02*
X128943000Y-99327000D01*
X130848000Y-101232000D02*
X130848000Y-101867000D01*
D31*
%TO.N,Net-(T1-AA)*%
X194475000Y-71641000D02*
X192375000Y-73741000D01*
X202730000Y-65545000D02*
X202730000Y-71006000D01*
X198158000Y-63259000D02*
X200444000Y-63259000D01*
X202095000Y-71641000D02*
X194475000Y-71641000D01*
X198078000Y-63179000D02*
X198158000Y-63259000D01*
X198078000Y-59068000D02*
X198078000Y-63179000D01*
X202730000Y-71006000D02*
X202095000Y-71641000D01*
X192375000Y-73741000D02*
X192375000Y-90514000D01*
X200444000Y-63259000D02*
X202730000Y-65545000D01*
D32*
%TO.N,Net-(JP7-B)*%
X186728000Y-59068000D02*
X186601000Y-58941000D01*
D31*
X193078000Y-59068000D02*
X186728000Y-59068000D01*
%TO.N,Net-(C7-Pad2)*%
X194094000Y-64195000D02*
X198158000Y-68259000D01*
X194094000Y-63640000D02*
X194094000Y-64195000D01*
%TO.N,Net-(J3-Pin_1)*%
X196152000Y-115430000D02*
X202222000Y-109360000D01*
X204889000Y-77483000D02*
X202222000Y-77483000D01*
X206540000Y-78880000D02*
X205016000Y-77356000D01*
X205016000Y-77356000D02*
X204889000Y-77483000D01*
X195110000Y-115430000D02*
X196152000Y-115430000D01*
X201841000Y-109360000D02*
X206540000Y-104661000D01*
X206540000Y-104661000D02*
X206540000Y-78880000D01*
%TO.N,2*%
X181648000Y-103387000D02*
X181975000Y-103714000D01*
X181648000Y-101740000D02*
X181648000Y-103387000D01*
X197316000Y-98485000D02*
X198539000Y-97262000D01*
X183934000Y-99454000D02*
X181648000Y-101740000D01*
X198539000Y-97262000D02*
X198539000Y-86166000D01*
X197316000Y-99454000D02*
X197316000Y-98485000D01*
X202222000Y-104360000D02*
X197316000Y-99454000D01*
X198539000Y-86166000D02*
X202222000Y-82483000D01*
X197316000Y-99454000D02*
X183934000Y-99454000D01*
%TO.N,GND_AC*%
X101003000Y-86747000D02*
X97313000Y-86747000D01*
X93303000Y-82737000D02*
X85763000Y-82737000D01*
X97313000Y-86747000D02*
X93303000Y-82737000D01*
%TO.N,Net-(D1-Pad2)*%
X95923000Y-67577000D02*
X94653000Y-68847000D01*
X108623000Y-67577000D02*
X95923000Y-67577000D01*
X94653000Y-68847000D02*
X94653000Y-76467000D01*
X116243000Y-59957000D02*
X108623000Y-67577000D01*
X97233000Y-79047000D02*
X101003000Y-79047000D01*
X94653000Y-76467000D02*
X97233000Y-79047000D01*
D32*
%TO.N,+12V*%
X122593000Y-104407000D02*
X121958000Y-103772000D01*
X139357000Y-95644000D02*
X136944000Y-93231000D01*
X117513000Y-109487000D02*
X106083000Y-98057000D01*
X127038000Y-104407000D02*
X130848000Y-108217000D01*
X97193000Y-98057000D02*
X93383000Y-101867000D01*
X130848000Y-108217000D02*
X130848000Y-109487000D01*
X107099000Y-98057000D02*
X105448000Y-98057000D01*
X124498000Y-104407000D02*
X122593000Y-104407000D01*
X105448000Y-98057000D02*
X97193000Y-98057000D01*
X139357000Y-100978000D02*
X139357000Y-95644000D01*
X121958000Y-101486000D02*
X113703000Y-93231000D01*
X93383000Y-101867000D02*
X85763000Y-101867000D01*
X111925000Y-93231000D02*
X107099000Y-98057000D01*
X112448000Y-101857000D02*
X109908000Y-101857000D01*
X124498000Y-104407000D02*
X127038000Y-104407000D01*
X136944000Y-93231000D02*
X111925000Y-93231000D01*
X121958000Y-103772000D02*
X121958000Y-101486000D01*
X106083000Y-98057000D02*
X105448000Y-98057000D01*
X124498000Y-106947000D02*
X124498000Y-104407000D01*
X138468000Y-101867000D02*
X139357000Y-100978000D01*
D31*
%TO.N,Net-(D3-A)*%
X166154000Y-65926000D02*
X166154000Y-71006000D01*
X166154000Y-62180000D02*
X169202000Y-59132000D01*
X166535000Y-73927000D02*
X166535000Y-71387000D01*
X167424000Y-74816000D02*
X166535000Y-73927000D01*
X166535000Y-71387000D02*
X166154000Y-71006000D01*
X166154000Y-66823000D02*
X166154000Y-62180000D01*
%TO.N,Net-(D4-A)*%
X146850000Y-61227000D02*
X148882000Y-59195000D01*
X148120000Y-74808000D02*
X148120000Y-72268000D01*
X148120000Y-72268000D02*
X146850000Y-70998000D01*
X146850000Y-66815000D02*
X146850000Y-61227000D01*
X146850000Y-65918000D02*
X146850000Y-70998000D01*
%TO.N,Net-(D5-A2)*%
X171488000Y-103801000D02*
X171575000Y-103714000D01*
X171488000Y-123655000D02*
X171488000Y-103801000D01*
%TO.N,Net-(D5-A1)*%
X176568000Y-123655000D02*
X176568000Y-114313000D01*
X176568000Y-114313000D02*
X176695000Y-114186000D01*
%TO.N,Net-(D5-K)*%
X175065500Y-126505000D02*
X191554000Y-126505000D01*
X174028000Y-123655000D02*
X174028000Y-125467500D01*
X174028000Y-125467500D02*
X175065500Y-126505000D01*
X194729000Y-123330000D02*
X195110000Y-123330000D01*
X191554000Y-126505000D02*
X194729000Y-123330000D01*
%TO.N,Net-(F1-Pad1)*%
X103543000Y-59957000D02*
X108623000Y-59957000D01*
%TO.N,VAC*%
X85763000Y-77737000D02*
X85763000Y-64777000D01*
X85763000Y-64777000D02*
X80943000Y-59957000D01*
%TO.N,Net-(JP1-B)*%
X171742000Y-60944500D02*
X171742000Y-59132000D01*
X148755000Y-86254000D02*
X149271000Y-85738000D01*
X163233000Y-85738000D02*
X170218000Y-78753000D01*
X170218000Y-62468500D02*
X171742000Y-60944500D01*
X149271000Y-85738000D02*
X163233000Y-85738000D01*
X170218000Y-78753000D02*
X170218000Y-62468500D01*
D32*
%TO.N,Net-(JP3-A)*%
X117513000Y-101872000D02*
X117528000Y-101857000D01*
X156883000Y-123027000D02*
X151373000Y-123027000D01*
X145453000Y-117107000D02*
X143548000Y-115202000D01*
X117513000Y-106312000D02*
X117513000Y-101872000D01*
X143548000Y-115202000D02*
X126403000Y-115202000D01*
X151373000Y-123027000D02*
X145453000Y-117107000D01*
X126403000Y-115202000D02*
X117513000Y-106312000D01*
%TO.N,Net-(JP4-A)*%
X118148000Y-99962000D02*
X115608000Y-99962000D01*
X120053000Y-101867000D02*
X118148000Y-99962000D01*
X151803000Y-118377000D02*
X150533000Y-117107000D01*
X115608000Y-99962000D02*
X114988000Y-100582000D01*
X127673000Y-113297000D02*
X120053000Y-105677000D01*
X120053000Y-105677000D02*
X120053000Y-101867000D01*
X146723000Y-113297000D02*
X127673000Y-113297000D01*
X150533000Y-117107000D02*
X146723000Y-113297000D01*
X156883000Y-118377000D02*
X151803000Y-118377000D01*
X114988000Y-100582000D02*
X114988000Y-101857000D01*
%TO.N,Net-(JP5-A)*%
X128308000Y-103518000D02*
X128562000Y-103772000D01*
X128562000Y-103772000D02*
X156453000Y-103772000D01*
X128308000Y-101867000D02*
X128308000Y-103518000D01*
X156453000Y-103772000D02*
X156883000Y-103342000D01*
%TO.N,Net-(JP6-A)*%
X143548000Y-101867000D02*
X147358000Y-101867000D01*
X156883000Y-98692000D02*
X150533000Y-98692000D01*
X147358000Y-101867000D02*
X150533000Y-98692000D01*
D31*
%TO.N,Net-(JP8-A)*%
X176695000Y-111646000D02*
X184443000Y-111646000D01*
X184443000Y-111646000D02*
X192375000Y-103714000D01*
D32*
%TO.N,Net-(R3-Pad2)*%
X99733000Y-127267000D02*
X107393000Y-127267000D01*
%TO.N,Net-(R4-Pad1)*%
X112393000Y-127267000D02*
X120053000Y-127267000D01*
%TO.N,Net-(R8-Pad1)*%
X132713000Y-127227000D02*
X140333000Y-127227000D01*
X140333000Y-127227000D02*
X140373000Y-127267000D01*
%TO.N,Net-(U1-FB)*%
X104828000Y-110742000D02*
X104813000Y-110757000D01*
X109893000Y-119647000D02*
X109893000Y-124767000D01*
X104828000Y-109477000D02*
X104828000Y-110742000D01*
X104813000Y-110757000D02*
X104813000Y-114567000D01*
X104813000Y-114567000D02*
X109893000Y-119647000D01*
%TO.N,Net-(U1-RT)*%
X130213000Y-124727000D02*
X127713000Y-127227000D01*
X112433000Y-113297000D02*
X113703000Y-114567000D01*
X117513000Y-115837000D02*
X117513000Y-122187000D01*
X123823000Y-127227000D02*
X127713000Y-127227000D01*
X112448000Y-109477000D02*
X112448000Y-110742000D01*
X120053000Y-123457000D02*
X123823000Y-127227000D01*
X112433000Y-110757000D02*
X112433000Y-113297000D01*
X118783000Y-123457000D02*
X120053000Y-123457000D01*
X116243000Y-114567000D02*
X117513000Y-115837000D01*
X117513000Y-122187000D02*
X118783000Y-123457000D01*
X113703000Y-114567000D02*
X116243000Y-114567000D01*
X112448000Y-110742000D02*
X112433000Y-110757000D01*
%TO.N,GND*%
X145834000Y-99200000D02*
X142543630Y-99200000D01*
X141008000Y-100735630D02*
X141008000Y-101867000D01*
X114973000Y-109487000D02*
X114973000Y-110122000D01*
X142913000Y-129807000D02*
X145453000Y-127267000D01*
X81953000Y-98057000D02*
X83540500Y-96469500D01*
X141008000Y-110757000D02*
X141643000Y-111392000D01*
X94018000Y-113932000D02*
X86953000Y-106867000D01*
X94018000Y-127267000D02*
X96558000Y-129807000D01*
D31*
X106337000Y-75197000D02*
X106337000Y-79007000D01*
D32*
X107368000Y-109477000D02*
X107368000Y-110107000D01*
X99733000Y-103137000D02*
X99733000Y-106312000D01*
X141643000Y-111392000D02*
X145453000Y-111392000D01*
D31*
X106337000Y-75197000D02*
X111163000Y-75197000D01*
D32*
X107353000Y-110757000D02*
X107353000Y-107582000D01*
X114973000Y-117107000D02*
X109893000Y-117107000D01*
D31*
X126403000Y-57417000D02*
X131483000Y-57417000D01*
X111163000Y-75197000D02*
X111163000Y-72657000D01*
D32*
X141135000Y-94374000D02*
X141135000Y-101740000D01*
X107368000Y-110107000D02*
X107353000Y-110122000D01*
D31*
X138468000Y-55639000D02*
X152692000Y-55639000D01*
D32*
X123228000Y-120282000D02*
X130133000Y-120282000D01*
X99733000Y-110757000D02*
X99733000Y-113932000D01*
X107353000Y-110122000D02*
X107353000Y-109487000D01*
X106337000Y-95517000D02*
X106337000Y-90818000D01*
D31*
X131483000Y-57417000D02*
X136690000Y-57417000D01*
D32*
X83540500Y-96469500D02*
X84493000Y-95517000D01*
X140373000Y-123457000D02*
X144183000Y-127267000D01*
D31*
X152692000Y-55639000D02*
X153962000Y-56909000D01*
D32*
X146088000Y-98946000D02*
X145834000Y-99200000D01*
X141008000Y-109487000D02*
X141008000Y-110757000D01*
X99748000Y-109477000D02*
X99748000Y-110742000D01*
X84493000Y-95517000D02*
X106337000Y-95517000D01*
D31*
X111163000Y-72657000D02*
X126403000Y-57417000D01*
D32*
X106337000Y-95517000D02*
X110655000Y-91199000D01*
X114988000Y-110107000D02*
X114973000Y-110122000D01*
X146088000Y-110757000D02*
X146088000Y-110122000D01*
X120053000Y-117107000D02*
X123228000Y-120282000D01*
X140373000Y-117107000D02*
X140373000Y-123457000D01*
X150533000Y-127267000D02*
X145453000Y-127267000D01*
X118148000Y-112662000D02*
X120053000Y-114567000D01*
X137071000Y-111519000D02*
X135928000Y-110376000D01*
X106083000Y-106312000D02*
X99733000Y-106312000D01*
X114973000Y-112027000D02*
X115608000Y-112662000D01*
X99748000Y-103122000D02*
X99733000Y-103137000D01*
X114973000Y-110122000D02*
X114973000Y-112027000D01*
X115608000Y-112662000D02*
X118148000Y-112662000D01*
D31*
X153962000Y-67950000D02*
X153962000Y-59195000D01*
D32*
X107353000Y-107582000D02*
X106083000Y-106312000D01*
X99733000Y-110757000D02*
X99733000Y-106312000D01*
D31*
X157010000Y-70998000D02*
X153962000Y-67950000D01*
D32*
X83540500Y-96469500D02*
X83858000Y-96152000D01*
X86953000Y-106867000D02*
X85763000Y-106867000D01*
X96558000Y-129807000D02*
X142913000Y-129807000D01*
X141008000Y-110757000D02*
X140246000Y-111519000D01*
D31*
X153962000Y-56909000D02*
X153962000Y-59195000D01*
D32*
X94018000Y-113932000D02*
X94018000Y-127267000D01*
D31*
X101003000Y-75197000D02*
X106337000Y-75197000D01*
D32*
X99748000Y-101857000D02*
X99748000Y-103122000D01*
X142543630Y-99200000D02*
X141008000Y-100735630D01*
D31*
X136690000Y-57417000D02*
X138468000Y-55639000D01*
D32*
X107353000Y-114567000D02*
X107353000Y-110757000D01*
X141135000Y-101740000D02*
X141008000Y-101867000D01*
X144183000Y-127267000D02*
X145453000Y-127267000D01*
X114988000Y-109477000D02*
X114988000Y-110107000D01*
X140246000Y-111519000D02*
X137071000Y-111519000D01*
X133308000Y-117107000D02*
X132673000Y-117742000D01*
X120053000Y-114567000D02*
X120053000Y-117107000D01*
X145453000Y-111392000D02*
X146088000Y-110757000D01*
X107353000Y-110757000D02*
X107353000Y-110122000D01*
X130133000Y-120282000D02*
X132673000Y-117742000D01*
X109893000Y-117107000D02*
X107353000Y-114567000D01*
X85763000Y-106867000D02*
X81953000Y-103057000D01*
X110655000Y-91199000D02*
X137960000Y-91199000D01*
X135928000Y-110376000D02*
X135928000Y-109487000D01*
X99748000Y-110742000D02*
X99733000Y-110757000D01*
X140373000Y-117107000D02*
X133308000Y-117107000D01*
X137960000Y-91199000D02*
X141135000Y-94374000D01*
X81953000Y-103057000D02*
X81953000Y-98057000D01*
%TO.N,Vs*%
X133388000Y-97168000D02*
X133515000Y-97041000D01*
D31*
X163233000Y-77102000D02*
X163233000Y-59068000D01*
X174282000Y-63259000D02*
X172758000Y-64783000D01*
X156670000Y-80191000D02*
X160144000Y-80191000D01*
X174282000Y-59132000D02*
X174282000Y-63259000D01*
X151422000Y-74943000D02*
X151422000Y-59195000D01*
D32*
X133134000Y-95136000D02*
X133515000Y-95517000D01*
X133515000Y-97041000D02*
X136690000Y-97041000D01*
X154089000Y-88532000D02*
X145707000Y-96914000D01*
X133515000Y-95517000D02*
X133515000Y-97041000D01*
D31*
X174282000Y-57290000D02*
X174282000Y-59132000D01*
X172758000Y-64783000D02*
X172758000Y-67450000D01*
X183870000Y-59132000D02*
X184061000Y-58941000D01*
D32*
X133388000Y-101867000D02*
X133388000Y-97168000D01*
D31*
X163233000Y-59068000D02*
X166916000Y-55385000D01*
X183934000Y-59068000D02*
X184061000Y-58941000D01*
D32*
X136690000Y-97041000D02*
X136817000Y-96914000D01*
D31*
X172758000Y-67450000D02*
X176314000Y-71006000D01*
X160144000Y-80191000D02*
X163233000Y-77102000D01*
X172377000Y-55385000D02*
X174282000Y-57290000D01*
X154597000Y-78118000D02*
X156670000Y-80191000D01*
D32*
X154597000Y-88532000D02*
X154089000Y-88532000D01*
D31*
X174282000Y-59132000D02*
X183870000Y-59132000D01*
D32*
X133388000Y-101867000D02*
X133388000Y-97489944D01*
X127466000Y-96279000D02*
X128609000Y-95136000D01*
X145707000Y-96914000D02*
X143167000Y-96914000D01*
D31*
X166916000Y-55385000D02*
X172377000Y-55385000D01*
D32*
X128609000Y-95136000D02*
X133134000Y-95136000D01*
D31*
X154597000Y-78118000D02*
X151422000Y-74943000D01*
%TO.N,HO*%
X175003000Y-78794000D02*
X175003000Y-74857000D01*
X178092000Y-74816000D02*
X175044000Y-74816000D01*
X163868000Y-89929000D02*
X175003000Y-78794000D01*
X179743000Y-73165000D02*
X178092000Y-74816000D01*
X163868000Y-100724000D02*
X163868000Y-89929000D01*
X177584000Y-65926000D02*
X179743000Y-68085000D01*
X177076000Y-65926000D02*
X176314000Y-65926000D01*
X161250000Y-103342000D02*
X163868000Y-100724000D01*
X175003000Y-74857000D02*
X175044000Y-74816000D01*
X159423000Y-103342000D02*
X161250000Y-103342000D01*
X179743000Y-68085000D02*
X179743000Y-73165000D01*
D32*
X175044000Y-75070000D02*
X175044000Y-74816000D01*
D31*
X176314000Y-65926000D02*
X177584000Y-65926000D01*
%TO.N,LO*%
X159423000Y-98692000D02*
X159423000Y-97150000D01*
X159423000Y-97150000D02*
X158915000Y-96642000D01*
X158788000Y-77864000D02*
X158788000Y-74808000D01*
X158788000Y-74808000D02*
X160566000Y-73030000D01*
X160566000Y-73030000D02*
X160566000Y-69474000D01*
X155740000Y-74808000D02*
X158788000Y-74808000D01*
X160566000Y-69474000D02*
X157010000Y-65918000D01*
X158915000Y-96642000D02*
X158915000Y-88913000D01*
X158915000Y-77991000D02*
X158788000Y-77864000D01*
D32*
%TO.N,PWM1*%
X159423000Y-123027000D02*
X160973000Y-121477000D01*
X160973000Y-121477000D02*
X160973000Y-116244000D01*
X137452000Y-105423000D02*
X133388000Y-109487000D01*
X160973000Y-116244000D02*
X150152000Y-105423000D01*
X150152000Y-105423000D02*
X137452000Y-105423000D01*
%TO.N,PWM2*%
X159423000Y-118377000D02*
X159423000Y-117174919D01*
X138468000Y-108217000D02*
X138468000Y-109487000D01*
X139738000Y-106947000D02*
X138468000Y-108217000D01*
X159423000Y-117174919D02*
X149195081Y-106947000D01*
X149195081Y-106947000D02*
X139738000Y-106947000D01*
%TO.N,Vref*%
X104813000Y-117107000D02*
X102273000Y-114567000D01*
X102288000Y-101857000D02*
X107368000Y-101857000D01*
X102288000Y-109477000D02*
X102288000Y-110742000D01*
X99733000Y-117107000D02*
X102273000Y-114567000D01*
X97193000Y-114567000D02*
X99733000Y-117107000D01*
X101638000Y-99962000D02*
X98463000Y-99962000D01*
X102273000Y-100597000D02*
X101638000Y-99962000D01*
X98463000Y-99962000D02*
X97193000Y-101232000D01*
X102288000Y-110742000D02*
X102273000Y-110757000D01*
X102273000Y-110757000D02*
X102273000Y-114567000D01*
X97193000Y-101232000D02*
X97193000Y-114567000D01*
X102273000Y-101867000D02*
X102273000Y-100597000D01*
D31*
%TO.N,Net-(JP2-A)*%
X116243000Y-77737000D02*
X131483000Y-77737000D01*
X131483000Y-77737000D02*
X137833000Y-77737000D01*
X131483000Y-64917000D02*
X131483000Y-77737000D01*
X137833000Y-77737000D02*
X141270000Y-81174000D01*
X111163000Y-82817000D02*
X116243000Y-77737000D01*
X116243000Y-77737000D02*
X116243000Y-75197000D01*
X141270000Y-81174000D02*
X146215000Y-81174000D01*
X111163000Y-85357000D02*
X111163000Y-82817000D01*
%TO.N,/Punto_medio*%
X183934000Y-74689000D02*
X183934000Y-63640000D01*
X177203000Y-82182000D02*
X171502000Y-87883000D01*
X166281000Y-78372000D02*
X161963000Y-82690000D01*
X161963000Y-82690000D02*
X150271000Y-82690000D01*
X180251000Y-78372000D02*
X177203000Y-81420000D01*
X177203000Y-81420000D02*
X177203000Y-82182000D01*
X180251000Y-78372000D02*
X183934000Y-74689000D01*
X171502000Y-87883000D02*
X171502000Y-90314000D01*
X150271000Y-82690000D02*
X148755000Y-81174000D01*
X166789000Y-78372000D02*
X166281000Y-78372000D01*
%TD*%
%TA.AperFunction,Conductor*%
%TO.N,GND*%
G36*
X111922041Y-116394926D02*
G01*
X112051853Y-116452556D01*
X112097654Y-116485040D01*
X112223485Y-116585386D01*
X112253752Y-116609523D01*
X112491555Y-116758945D01*
X112744592Y-116880801D01*
X113009682Y-116973560D01*
X113009691Y-116973562D01*
X113283486Y-117036054D01*
X113283488Y-117036054D01*
X113283491Y-117036055D01*
X113283493Y-117036055D01*
X113297287Y-117038399D01*
X113297002Y-117040071D01*
X113417578Y-117071496D01*
X113539358Y-117144586D01*
X113635614Y-117249025D01*
X113698547Y-117376351D01*
X113706290Y-117402390D01*
X113746733Y-117553326D01*
X113842865Y-117759481D01*
X113973340Y-117945819D01*
X114134180Y-118106659D01*
X114320518Y-118237134D01*
X114526676Y-118333267D01*
X114526678Y-118333268D01*
X114642649Y-118364342D01*
X114773212Y-118420252D01*
X114882735Y-118510680D01*
X114962344Y-118628302D01*
X115005591Y-118763588D01*
X115012500Y-118846339D01*
X115012500Y-122327432D01*
X115043943Y-122606503D01*
X115043945Y-122606513D01*
X115106437Y-122880308D01*
X115106439Y-122880314D01*
X115106440Y-122880318D01*
X115199199Y-123145408D01*
X115321055Y-123398445D01*
X115470477Y-123636248D01*
X115470479Y-123636251D01*
X115470482Y-123636255D01*
X115645574Y-123855814D01*
X115645585Y-123855826D01*
X115704413Y-123914654D01*
X115789529Y-124028355D01*
X115839163Y-124161430D01*
X115849296Y-124303098D01*
X115819105Y-124441883D01*
X115751037Y-124566540D01*
X115650607Y-124666970D01*
X115525950Y-124735038D01*
X115387165Y-124765229D01*
X115351567Y-124766500D01*
X114506852Y-124766500D01*
X114366267Y-124746287D01*
X114237072Y-124687286D01*
X114218096Y-124674465D01*
X114082468Y-124578232D01*
X114082465Y-124578230D01*
X113770809Y-124405984D01*
X113770806Y-124405982D01*
X113770796Y-124405977D01*
X113770785Y-124405972D01*
X113770780Y-124405970D01*
X113441812Y-124269705D01*
X113441809Y-124269704D01*
X113323206Y-124235535D01*
X113278653Y-124222700D01*
X113149161Y-124164359D01*
X113041348Y-124071898D01*
X112963953Y-123952807D01*
X112937298Y-123881342D01*
X112890298Y-123718200D01*
X112890296Y-123718195D01*
X112890294Y-123718187D01*
X112768969Y-123425286D01*
X112754023Y-123389204D01*
X112581769Y-123077534D01*
X112485534Y-122941903D01*
X112420668Y-122815553D01*
X112394026Y-122676044D01*
X112393500Y-122653148D01*
X112393500Y-119506575D01*
X112393499Y-119506567D01*
X112362056Y-119227496D01*
X112362054Y-119227486D01*
X112299562Y-118953691D01*
X112299560Y-118953682D01*
X112206801Y-118688592D01*
X112084945Y-118435555D01*
X111935523Y-118197752D01*
X111935517Y-118197744D01*
X111760425Y-117978185D01*
X111760414Y-117978173D01*
X111166396Y-117384155D01*
X111081280Y-117270454D01*
X111031646Y-117137379D01*
X111021513Y-116995711D01*
X111051704Y-116856926D01*
X111119772Y-116732269D01*
X111220202Y-116631839D01*
X111295287Y-116585388D01*
X111395793Y-116534913D01*
X111512329Y-116458265D01*
X111640888Y-116397902D01*
X111781250Y-116376202D01*
X111922041Y-116394926D01*
G37*
%TD.AperFunction*%
%TA.AperFunction,Conductor*%
G36*
X148093233Y-109467713D02*
G01*
X148222428Y-109526714D01*
X148305494Y-109593654D01*
X152729192Y-114017352D01*
X152814308Y-114131053D01*
X152863942Y-114264128D01*
X152874075Y-114405796D01*
X152843884Y-114544581D01*
X152775816Y-114669238D01*
X152675386Y-114769668D01*
X152550729Y-114837736D01*
X152411944Y-114867927D01*
X152270276Y-114857794D01*
X152137201Y-114808160D01*
X152102142Y-114787107D01*
X152073670Y-114768381D01*
X151935623Y-114677586D01*
X151935620Y-114677584D01*
X151644110Y-114531182D01*
X151644106Y-114531180D01*
X151644101Y-114531178D01*
X151511139Y-114482783D01*
X151385949Y-114415708D01*
X151328966Y-114366725D01*
X148391826Y-111429585D01*
X148391814Y-111429574D01*
X148172255Y-111254482D01*
X148172251Y-111254479D01*
X148172248Y-111254477D01*
X147934445Y-111105055D01*
X147681408Y-110983199D01*
X147416318Y-110890440D01*
X147416314Y-110890439D01*
X147416308Y-110890437D01*
X147142513Y-110827945D01*
X147142503Y-110827943D01*
X146863432Y-110796500D01*
X146863425Y-110796500D01*
X146749544Y-110796500D01*
X146608959Y-110776287D01*
X146479764Y-110717286D01*
X146372425Y-110624276D01*
X146295638Y-110504792D01*
X146255623Y-110368515D01*
X146255623Y-110226485D01*
X146271507Y-110154385D01*
X146277630Y-110133934D01*
X146325959Y-109859849D01*
X146370277Y-109724910D01*
X146450817Y-109607923D01*
X146561053Y-109518366D01*
X146692056Y-109463493D01*
X146817378Y-109447500D01*
X147952648Y-109447500D01*
X148093233Y-109467713D01*
G37*
%TD.AperFunction*%
%TA.AperFunction,Conductor*%
G36*
X100399792Y-103951952D02*
G01*
X100513250Y-104023601D01*
X100612823Y-104107153D01*
X100885377Y-104286414D01*
X101176899Y-104432822D01*
X101483446Y-104544396D01*
X101483452Y-104544397D01*
X101483454Y-104544398D01*
X101800865Y-104619626D01*
X101800866Y-104619626D01*
X101800874Y-104619628D01*
X102060794Y-104650008D01*
X102124887Y-104657500D01*
X102124889Y-104657500D01*
X102451113Y-104657500D01*
X102497036Y-104652132D01*
X102775126Y-104619628D01*
X102775134Y-104619626D01*
X102775136Y-104619626D01*
X103042804Y-104556187D01*
X103092554Y-104544396D01*
X103387331Y-104437106D01*
X103526351Y-104408017D01*
X103667934Y-104419272D01*
X103728669Y-104437106D01*
X103869810Y-104488477D01*
X104023446Y-104544396D01*
X104023452Y-104544397D01*
X104023454Y-104544398D01*
X104340865Y-104619626D01*
X104340866Y-104619626D01*
X104340874Y-104619628D01*
X104600794Y-104650008D01*
X104664887Y-104657500D01*
X104664889Y-104657500D01*
X104991113Y-104657500D01*
X105037036Y-104652132D01*
X105315126Y-104619628D01*
X105315134Y-104619626D01*
X105315136Y-104619626D01*
X105582804Y-104556187D01*
X105632554Y-104544396D01*
X105927331Y-104437106D01*
X106066351Y-104408017D01*
X106207934Y-104419272D01*
X106268669Y-104437106D01*
X106409810Y-104488477D01*
X106563446Y-104544396D01*
X106563452Y-104544397D01*
X106563454Y-104544398D01*
X106880865Y-104619626D01*
X106880866Y-104619626D01*
X106880874Y-104619628D01*
X107140794Y-104650008D01*
X107204887Y-104657500D01*
X107204889Y-104657500D01*
X107531113Y-104657500D01*
X107577036Y-104652132D01*
X107855126Y-104619628D01*
X107855134Y-104619626D01*
X107855136Y-104619626D01*
X108122804Y-104556187D01*
X108172554Y-104544396D01*
X108467341Y-104437102D01*
X108606348Y-104408016D01*
X108747931Y-104419271D01*
X108808656Y-104437101D01*
X108890552Y-104466908D01*
X109015744Y-104533985D01*
X109072727Y-104582968D01*
X110314413Y-105824654D01*
X110399529Y-105938355D01*
X110449163Y-106071430D01*
X110459296Y-106213098D01*
X110429105Y-106351883D01*
X110361037Y-106476540D01*
X110260607Y-106576970D01*
X110135950Y-106645038D01*
X109997165Y-106675229D01*
X109961567Y-106676500D01*
X109744887Y-106676500D01*
X109602633Y-106693127D01*
X109420874Y-106714372D01*
X109420871Y-106714372D01*
X109420868Y-106714373D01*
X109420863Y-106714373D01*
X109103454Y-106789601D01*
X109103444Y-106789604D01*
X108796895Y-106901179D01*
X108796893Y-106901180D01*
X108505383Y-107047582D01*
X108232824Y-107226846D01*
X107982920Y-107436540D01*
X107759046Y-107673833D01*
X107750248Y-107684319D01*
X107644396Y-107779018D01*
X107516152Y-107840059D01*
X107375905Y-107862496D01*
X107235018Y-107844513D01*
X107104904Y-107787566D01*
X106996105Y-107696268D01*
X106985752Y-107684319D01*
X106976953Y-107673833D01*
X106753079Y-107436540D01*
X106684148Y-107378700D01*
X106503177Y-107226847D01*
X106230623Y-107047586D01*
X106230619Y-107047584D01*
X106230616Y-107047582D01*
X105939106Y-106901180D01*
X105939104Y-106901179D01*
X105632555Y-106789604D01*
X105632545Y-106789601D01*
X105315134Y-106714373D01*
X105315126Y-106714372D01*
X105244697Y-106706140D01*
X104991113Y-106676500D01*
X104991111Y-106676500D01*
X104664889Y-106676500D01*
X104664887Y-106676500D01*
X104522633Y-106693127D01*
X104340874Y-106714372D01*
X104340871Y-106714372D01*
X104340868Y-106714373D01*
X104340863Y-106714373D01*
X104023454Y-106789601D01*
X104023438Y-106789606D01*
X103728667Y-106896894D01*
X103589648Y-106925982D01*
X103448064Y-106914726D01*
X103387333Y-106896894D01*
X103092561Y-106789606D01*
X103092545Y-106789601D01*
X102775134Y-106714373D01*
X102775126Y-106714372D01*
X102704697Y-106706140D01*
X102451113Y-106676500D01*
X102451111Y-106676500D01*
X102124889Y-106676500D01*
X102124887Y-106676500D01*
X101982633Y-106693127D01*
X101800874Y-106714372D01*
X101800871Y-106714372D01*
X101800868Y-106714373D01*
X101800863Y-106714373D01*
X101483454Y-106789601D01*
X101483444Y-106789604D01*
X101176895Y-106901179D01*
X101176893Y-106901180D01*
X100885383Y-107047582D01*
X100612820Y-107226849D01*
X100513249Y-107310399D01*
X100392562Y-107385280D01*
X100255667Y-107423127D01*
X100113654Y-107420873D01*
X99978030Y-107378700D01*
X99859780Y-107300026D01*
X99768485Y-107191224D01*
X99711542Y-107061109D01*
X99693500Y-106928141D01*
X99693500Y-104405858D01*
X99713713Y-104265273D01*
X99772714Y-104136078D01*
X99865724Y-104028739D01*
X99985208Y-103951952D01*
X100121485Y-103911937D01*
X100263515Y-103911937D01*
X100399792Y-103951952D01*
G37*
%TD.AperFunction*%
%TA.AperFunction,Conductor*%
G36*
X129752590Y-88368904D02*
G01*
X129975245Y-88417339D01*
X129997572Y-88422196D01*
X130211552Y-88437500D01*
X130346533Y-88437500D01*
X130487118Y-88457713D01*
X130612017Y-88513985D01*
X130784306Y-88622242D01*
X130784312Y-88622245D01*
X130784314Y-88622246D01*
X131087949Y-88768469D01*
X131406046Y-88879776D01*
X131406058Y-88879778D01*
X131406059Y-88879779D01*
X131734606Y-88954767D01*
X131734603Y-88954767D01*
X132028003Y-88987825D01*
X132069495Y-88992500D01*
X132069496Y-88992500D01*
X144613756Y-88992500D01*
X144754341Y-89012713D01*
X144788133Y-89023960D01*
X144799954Y-89028369D01*
X144799957Y-89028369D01*
X144799958Y-89028370D01*
X144956916Y-89062514D01*
X145079572Y-89089196D01*
X145205755Y-89098220D01*
X145334965Y-89124951D01*
X145383046Y-89141776D01*
X145383061Y-89141779D01*
X145383063Y-89141780D01*
X145711606Y-89216767D01*
X145711603Y-89216767D01*
X146046486Y-89254499D01*
X146046495Y-89254500D01*
X146383505Y-89254500D01*
X146539813Y-89236888D01*
X146718395Y-89216767D01*
X147046937Y-89141780D01*
X147046938Y-89141779D01*
X147046954Y-89141776D01*
X147095033Y-89124951D01*
X147224242Y-89098220D01*
X147350428Y-89089196D01*
X147473083Y-89062513D01*
X147614748Y-89052381D01*
X147743962Y-89079112D01*
X147850467Y-89116379D01*
X147923046Y-89141776D01*
X147923047Y-89141776D01*
X147923049Y-89141777D01*
X148251606Y-89216767D01*
X148251603Y-89216767D01*
X148586486Y-89254499D01*
X148586495Y-89254500D01*
X148625566Y-89254500D01*
X148766151Y-89274713D01*
X148895346Y-89333714D01*
X149002685Y-89426724D01*
X149079472Y-89546208D01*
X149119487Y-89682485D01*
X149119487Y-89824515D01*
X149079472Y-89960792D01*
X149002685Y-90080276D01*
X148978412Y-90106346D01*
X145034265Y-94050492D01*
X144920564Y-94135608D01*
X144787489Y-94185242D01*
X144645821Y-94195375D01*
X144554913Y-94180343D01*
X144292858Y-94111662D01*
X144128262Y-94068523D01*
X144084107Y-94054734D01*
X144029014Y-94034682D01*
X144028998Y-94034677D01*
X143688923Y-93954078D01*
X143341761Y-93913500D01*
X143341759Y-93913500D01*
X142992241Y-93913500D01*
X142992239Y-93913500D01*
X142645076Y-93954078D01*
X142304996Y-94034678D01*
X142304988Y-94034681D01*
X141976548Y-94154223D01*
X141976539Y-94154227D01*
X141903171Y-94191074D01*
X141768469Y-94236104D01*
X141626536Y-94241361D01*
X141488871Y-94206417D01*
X141366628Y-94134104D01*
X141289089Y-94056272D01*
X141224418Y-93975177D01*
X138612826Y-91363585D01*
X138612814Y-91363574D01*
X138393255Y-91188482D01*
X138393251Y-91188479D01*
X138393248Y-91188477D01*
X138155445Y-91039055D01*
X137902408Y-90917199D01*
X137637318Y-90824440D01*
X137637314Y-90824439D01*
X137637308Y-90824437D01*
X137363513Y-90761945D01*
X137363503Y-90761943D01*
X137084432Y-90730500D01*
X137084425Y-90730500D01*
X118856374Y-90730500D01*
X118715789Y-90710287D01*
X118586594Y-90651286D01*
X118479255Y-90558276D01*
X118402468Y-90438792D01*
X118362453Y-90302515D01*
X118362453Y-90160485D01*
X118402468Y-90024208D01*
X118475403Y-89910716D01*
X118475095Y-89910470D01*
X118477502Y-89907451D01*
X118479255Y-89904724D01*
X118483757Y-89899607D01*
X118483820Y-89899527D01*
X118483824Y-89899524D01*
X118536988Y-89832859D01*
X118693946Y-89636039D01*
X118825468Y-89426724D01*
X118873241Y-89350695D01*
X118873243Y-89350690D01*
X118873246Y-89350686D01*
X119019469Y-89047051D01*
X119130776Y-88728954D01*
X119130778Y-88728947D01*
X119133828Y-88718361D01*
X119192169Y-88588866D01*
X119284630Y-88481054D01*
X119403720Y-88403658D01*
X119539791Y-88362948D01*
X119613326Y-88357500D01*
X129646520Y-88357500D01*
X129752590Y-88368904D01*
G37*
%TD.AperFunction*%
%TA.AperFunction,Conductor*%
G36*
X155128792Y-68324634D02*
G01*
X155248276Y-68401421D01*
X155274346Y-68425694D01*
X156156240Y-69307588D01*
X156241356Y-69421289D01*
X156290990Y-69554364D01*
X156301123Y-69696032D01*
X156270932Y-69834817D01*
X156202864Y-69959474D01*
X156156241Y-70013279D01*
X156010340Y-70159180D01*
X155879864Y-70345520D01*
X155808762Y-70498000D01*
X157011000Y-70498000D01*
X157151585Y-70518213D01*
X157280780Y-70577214D01*
X157388119Y-70670224D01*
X157464906Y-70789708D01*
X157504921Y-70925985D01*
X157510000Y-70997000D01*
X157510000Y-70999000D01*
X157489787Y-71139585D01*
X157430786Y-71268780D01*
X157337776Y-71376119D01*
X157218292Y-71452906D01*
X157082015Y-71492921D01*
X157011000Y-71498000D01*
X155808762Y-71498000D01*
X155742777Y-71601575D01*
X155650194Y-71709282D01*
X155531016Y-71786543D01*
X155394899Y-71827097D01*
X155377796Y-71829324D01*
X155236602Y-71845232D01*
X155032536Y-71891809D01*
X154890979Y-71903386D01*
X154751894Y-71874612D01*
X154626549Y-71807819D01*
X154525100Y-71708417D01*
X154455765Y-71584461D01*
X154424160Y-71445992D01*
X154422500Y-71405320D01*
X154422500Y-70945339D01*
X156610000Y-70945339D01*
X156610000Y-71050661D01*
X156637259Y-71152394D01*
X156689920Y-71243606D01*
X156764394Y-71318080D01*
X156855606Y-71370741D01*
X156957339Y-71398000D01*
X157062661Y-71398000D01*
X157164394Y-71370741D01*
X157255606Y-71318080D01*
X157330080Y-71243606D01*
X157382741Y-71152394D01*
X157410000Y-71050661D01*
X157410000Y-70945339D01*
X157382741Y-70843606D01*
X157330080Y-70752394D01*
X157255606Y-70677920D01*
X157164394Y-70625259D01*
X157062661Y-70598000D01*
X156957339Y-70598000D01*
X156855606Y-70625259D01*
X156764394Y-70677920D01*
X156689920Y-70752394D01*
X156637259Y-70843606D01*
X156610000Y-70945339D01*
X154422500Y-70945339D01*
X154422500Y-68778540D01*
X154442713Y-68637955D01*
X154501714Y-68508760D01*
X154594724Y-68401421D01*
X154714208Y-68324634D01*
X154850485Y-68284619D01*
X154992515Y-68284619D01*
X155128792Y-68324634D01*
G37*
%TD.AperFunction*%
%TA.AperFunction,Conductor*%
G36*
X212544085Y-41412713D02*
G01*
X212673280Y-41471714D01*
X212780619Y-41564724D01*
X212857406Y-41684208D01*
X212897421Y-41820485D01*
X212902500Y-41891500D01*
X212902500Y-134892500D01*
X212882287Y-135033085D01*
X212823286Y-135162280D01*
X212730276Y-135269619D01*
X212610792Y-135346406D01*
X212474515Y-135386421D01*
X212403500Y-135391500D01*
X83068685Y-135391500D01*
X82928100Y-135371287D01*
X82798905Y-135312286D01*
X82691566Y-135219276D01*
X82614779Y-135099792D01*
X82574764Y-134963515D01*
X82574764Y-134821485D01*
X82614779Y-134685208D01*
X82691566Y-134565724D01*
X82798905Y-134472714D01*
X82928100Y-134413713D01*
X82984353Y-134400678D01*
X83078573Y-134384521D01*
X83198887Y-134363892D01*
X83651124Y-134246139D01*
X84091747Y-134090457D01*
X84517579Y-133897968D01*
X84925544Y-133670065D01*
X84925545Y-133670065D01*
X84925549Y-133670061D01*
X84925553Y-133670060D01*
X85312730Y-133408375D01*
X85676319Y-133114797D01*
X86013701Y-132791442D01*
X86322446Y-132440641D01*
X86600328Y-132064919D01*
X86845345Y-131666985D01*
X87055733Y-131249706D01*
X87229975Y-130816088D01*
X87366816Y-130369255D01*
X87465270Y-129912427D01*
X87474184Y-129842822D01*
X87524628Y-129448896D01*
X87524629Y-129448886D01*
X87544461Y-128982010D01*
X87544461Y-128981989D01*
X87524629Y-128515113D01*
X87524627Y-128515100D01*
X87465271Y-128051578D01*
X87465270Y-128051573D01*
X87366816Y-127594745D01*
X87229975Y-127147912D01*
X87055733Y-126714294D01*
X86845345Y-126297015D01*
X86746736Y-126136863D01*
X86600335Y-125899092D01*
X86600331Y-125899086D01*
X86600328Y-125899081D01*
X86322446Y-125523359D01*
X86208344Y-125393714D01*
X86013699Y-125172555D01*
X85676327Y-124849211D01*
X85676323Y-124849207D01*
X85676324Y-124849207D01*
X85676319Y-124849203D01*
X85312730Y-124555625D01*
X84925553Y-124293940D01*
X84925552Y-124293939D01*
X84925544Y-124293934D01*
X84517585Y-124066035D01*
X84517570Y-124066028D01*
X84501567Y-124058794D01*
X84091747Y-123873543D01*
X84091745Y-123873542D01*
X84091740Y-123873540D01*
X84091730Y-123873536D01*
X83651130Y-123717863D01*
X83651128Y-123717862D01*
X83651124Y-123717861D01*
X83198887Y-123600108D01*
X83198886Y-123600107D01*
X83198879Y-123600106D01*
X82738301Y-123521132D01*
X82738284Y-123521129D01*
X82272677Y-123481501D01*
X82272663Y-123481500D01*
X82272658Y-123481500D01*
X81805342Y-123481500D01*
X81805336Y-123481500D01*
X81805322Y-123481501D01*
X81339715Y-123521129D01*
X81339698Y-123521132D01*
X80879121Y-123600106D01*
X80879120Y-123600106D01*
X80804483Y-123619540D01*
X80426876Y-123717861D01*
X80426870Y-123717863D01*
X80426868Y-123717863D01*
X79986269Y-123873536D01*
X79986259Y-123873540D01*
X79560429Y-124066028D01*
X79560414Y-124066035D01*
X79152455Y-124293934D01*
X79152454Y-124293934D01*
X78765271Y-124555624D01*
X78765268Y-124555626D01*
X78401676Y-124849207D01*
X78401672Y-124849211D01*
X78064300Y-125172555D01*
X77755561Y-125523350D01*
X77755556Y-125523356D01*
X77755554Y-125523359D01*
X77477672Y-125899081D01*
X77477669Y-125899086D01*
X77477664Y-125899092D01*
X77232654Y-126297015D01*
X77022266Y-126714294D01*
X77022266Y-126714296D01*
X76848023Y-127147915D01*
X76711187Y-127594732D01*
X76711182Y-127594754D01*
X76612728Y-128051578D01*
X76553372Y-128515100D01*
X76553370Y-128515113D01*
X76533539Y-128981989D01*
X76533539Y-128982010D01*
X76553370Y-129448886D01*
X76553372Y-129448896D01*
X76612728Y-129912421D01*
X76711182Y-130369245D01*
X76711187Y-130369267D01*
X76848023Y-130816084D01*
X77022266Y-131249703D01*
X77022266Y-131249705D01*
X77232654Y-131666984D01*
X77477664Y-132064907D01*
X77477665Y-132064909D01*
X77477670Y-132064915D01*
X77477672Y-132064919D01*
X77755554Y-132440641D01*
X77755560Y-132440648D01*
X77755561Y-132440649D01*
X78064300Y-132791444D01*
X78312504Y-133029328D01*
X78401681Y-133114797D01*
X78765270Y-133408375D01*
X79152447Y-133670060D01*
X79152450Y-133670061D01*
X79152455Y-133670065D01*
X79450311Y-133836457D01*
X79560421Y-133897968D01*
X79986253Y-134090457D01*
X79986259Y-134090459D01*
X79986269Y-134090463D01*
X80041259Y-134109892D01*
X80426876Y-134246139D01*
X80879113Y-134363892D01*
X80947784Y-134375666D01*
X81093647Y-134400678D01*
X81228793Y-134444359D01*
X81346159Y-134524346D01*
X81436235Y-134634159D01*
X81491725Y-134764901D01*
X81508133Y-134905980D01*
X81484130Y-135045967D01*
X81421660Y-135173521D01*
X81325784Y-135278309D01*
X81204270Y-135351840D01*
X81066962Y-135388159D01*
X81009315Y-135391500D01*
X74402500Y-135391500D01*
X74261915Y-135371287D01*
X74132720Y-135312286D01*
X74025381Y-135219276D01*
X73948594Y-135099792D01*
X73908579Y-134963515D01*
X73903500Y-134892500D01*
X73903500Y-107904824D01*
X83283000Y-107904824D01*
X83289402Y-107964374D01*
X83339647Y-108099089D01*
X83339648Y-108099090D01*
X83425811Y-108214188D01*
X83540909Y-108300351D01*
X83540910Y-108300352D01*
X83675625Y-108350597D01*
X83735175Y-108357000D01*
X85263000Y-108357000D01*
X86263000Y-108357000D01*
X87790825Y-108357000D01*
X87850374Y-108350597D01*
X87985089Y-108300352D01*
X87985090Y-108300351D01*
X88100188Y-108214188D01*
X88186351Y-108099090D01*
X88186352Y-108099089D01*
X88236597Y-107964374D01*
X88243000Y-107904824D01*
X88243000Y-107367000D01*
X86263000Y-107367000D01*
X86263000Y-108357000D01*
X85263000Y-108357000D01*
X85263000Y-107367000D01*
X83283000Y-107367000D01*
X83283000Y-107904824D01*
X73903500Y-107904824D01*
X73903500Y-59956997D01*
X77437696Y-59956997D01*
X77437696Y-59957002D01*
X77456898Y-60323407D01*
X77456899Y-60323416D01*
X77514294Y-60685793D01*
X77555513Y-60839622D01*
X77609258Y-61040199D01*
X77740745Y-61382736D01*
X77828616Y-61555193D01*
X77907317Y-61709651D01*
X78107150Y-62017368D01*
X78107152Y-62017371D01*
X78338041Y-62302496D01*
X78338057Y-62302513D01*
X78597486Y-62561942D01*
X78597503Y-62561958D01*
X78882628Y-62792847D01*
X78882631Y-62792849D01*
X78882633Y-62792850D01*
X78882634Y-62792851D01*
X79190348Y-62992682D01*
X79517264Y-63159255D01*
X79751601Y-63249208D01*
X79859801Y-63290742D01*
X79967781Y-63319675D01*
X80098344Y-63375584D01*
X80191478Y-63448826D01*
X82616346Y-65873694D01*
X82701462Y-65987395D01*
X82751096Y-66120470D01*
X82762500Y-66226540D01*
X82762500Y-75311602D01*
X82742287Y-75452187D01*
X82683286Y-75581382D01*
X82616346Y-75664448D01*
X82539654Y-75741139D01*
X82539647Y-75741146D01*
X82330224Y-76003753D01*
X82151519Y-76288159D01*
X82005783Y-76590786D01*
X81894850Y-76907814D01*
X81820105Y-77235291D01*
X81820105Y-77235293D01*
X81782500Y-77569049D01*
X81782500Y-77904950D01*
X81820105Y-78238706D01*
X81820105Y-78238708D01*
X81820106Y-78238716D01*
X81820107Y-78238717D01*
X81856355Y-78397531D01*
X81894850Y-78566185D01*
X81945697Y-78711496D01*
X82005785Y-78883218D01*
X82061232Y-78998355D01*
X82151519Y-79185840D01*
X82330227Y-79470251D01*
X82451661Y-79622523D01*
X82523511Y-79745039D01*
X82557934Y-79882834D01*
X82552141Y-80024746D01*
X82506602Y-80159278D01*
X82425005Y-80275530D01*
X82414375Y-80286490D01*
X82267258Y-80433606D01*
X82095776Y-80662682D01*
X82095772Y-80662687D01*
X81958633Y-80913838D01*
X81858629Y-81181956D01*
X81797805Y-81461563D01*
X81797804Y-81461569D01*
X81797804Y-81461572D01*
X81782500Y-81675552D01*
X81782500Y-83798448D01*
X81791564Y-83925175D01*
X81797805Y-84012436D01*
X81858629Y-84292043D01*
X81958633Y-84560161D01*
X82095774Y-84811315D01*
X82164368Y-84902947D01*
X82267258Y-85040392D01*
X82469607Y-85242741D01*
X82561237Y-85311333D01*
X82698685Y-85414226D01*
X82949839Y-85551367D01*
X83140648Y-85622535D01*
X83217956Y-85651370D01*
X83478138Y-85707968D01*
X83497572Y-85712196D01*
X83711552Y-85727500D01*
X85477723Y-85727500D01*
X85533592Y-85730637D01*
X85594496Y-85737500D01*
X91853460Y-85737500D01*
X91994045Y-85757713D01*
X92123240Y-85816714D01*
X92206306Y-85883654D01*
X95072175Y-88749523D01*
X95310477Y-88987825D01*
X95359106Y-89026605D01*
X95573960Y-89197946D01*
X95859314Y-89377246D01*
X96162949Y-89523469D01*
X96481046Y-89634776D01*
X96809605Y-89709767D01*
X97144495Y-89747500D01*
X97144496Y-89747500D01*
X100147729Y-89747500D01*
X100285870Y-89767002D01*
X100311987Y-89774527D01*
X100655307Y-89832859D01*
X101003000Y-89852385D01*
X101350693Y-89832859D01*
X101694013Y-89774527D01*
X101694015Y-89774526D01*
X101694017Y-89774526D01*
X101809781Y-89741174D01*
X102028644Y-89678121D01*
X102350376Y-89544855D01*
X102655164Y-89376405D01*
X102787529Y-89282486D01*
X102913879Y-89217620D01*
X103053388Y-89190978D01*
X103194752Y-89204718D01*
X103326518Y-89257729D01*
X103438012Y-89345716D01*
X103498798Y-89423965D01*
X103632054Y-89636039D01*
X103690850Y-89709767D01*
X103789011Y-89832858D01*
X103804583Y-89852385D01*
X103842176Y-89899524D01*
X103969175Y-90026523D01*
X104207477Y-90264825D01*
X104376249Y-90399416D01*
X104470961Y-90474946D01*
X104470970Y-90474952D01*
X104470972Y-90474953D01*
X104756304Y-90654241D01*
X104756312Y-90654245D01*
X104756314Y-90654246D01*
X105059949Y-90800469D01*
X105378046Y-90911776D01*
X105378058Y-90911778D01*
X105378059Y-90911779D01*
X105706606Y-90986767D01*
X105706603Y-90986767D01*
X106041486Y-91024499D01*
X106041495Y-91024500D01*
X106041496Y-91024500D01*
X109390567Y-91024500D01*
X109531152Y-91044713D01*
X109660347Y-91103714D01*
X109767686Y-91196724D01*
X109844473Y-91316208D01*
X109884488Y-91452485D01*
X109884488Y-91594515D01*
X109844473Y-91730792D01*
X109767686Y-91850276D01*
X109743413Y-91876346D01*
X106209413Y-95410346D01*
X106095712Y-95495462D01*
X105962637Y-95545096D01*
X105856567Y-95556500D01*
X97052567Y-95556500D01*
X96773496Y-95587943D01*
X96773486Y-95587945D01*
X96499691Y-95650437D01*
X96499679Y-95650441D01*
X96234594Y-95743197D01*
X96234592Y-95743199D01*
X96002943Y-95854755D01*
X95981555Y-95865054D01*
X95743744Y-96014482D01*
X95524185Y-96189574D01*
X95524173Y-96189585D01*
X92493413Y-99220346D01*
X92379712Y-99305462D01*
X92246637Y-99355096D01*
X92140567Y-99366500D01*
X88538139Y-99366500D01*
X88397554Y-99346287D01*
X88272654Y-99290015D01*
X88201840Y-99245519D01*
X88006402Y-99151402D01*
X87899218Y-99099785D01*
X87899214Y-99099783D01*
X87899213Y-99099783D01*
X87582185Y-98988850D01*
X87430795Y-98954296D01*
X87254717Y-98914107D01*
X87254714Y-98914106D01*
X87254707Y-98914105D01*
X86920950Y-98876500D01*
X86920943Y-98876500D01*
X84605057Y-98876500D01*
X84605049Y-98876500D01*
X84271293Y-98914105D01*
X84271291Y-98914105D01*
X83943814Y-98988850D01*
X83626786Y-99099783D01*
X83324159Y-99245519D01*
X83039753Y-99424224D01*
X82777146Y-99633647D01*
X82539647Y-99871146D01*
X82330224Y-100133753D01*
X82151519Y-100418159D01*
X82005783Y-100720786D01*
X81894850Y-101037814D01*
X81820105Y-101365291D01*
X81820105Y-101365293D01*
X81782500Y-101699049D01*
X81782500Y-102034950D01*
X81820105Y-102368706D01*
X81820105Y-102368708D01*
X81894850Y-102696185D01*
X82005783Y-103013213D01*
X82005785Y-103013218D01*
X82017279Y-103037085D01*
X82151519Y-103315840D01*
X82330224Y-103600246D01*
X82539647Y-103862853D01*
X82777146Y-104100352D01*
X83010459Y-104286414D01*
X83039757Y-104309778D01*
X83324159Y-104488480D01*
X83483962Y-104565437D01*
X83483965Y-104565438D01*
X83601857Y-104644646D01*
X83692659Y-104753860D01*
X83749013Y-104884232D01*
X83766354Y-105025200D01*
X83743278Y-105165343D01*
X83681654Y-105293308D01*
X83586474Y-105398727D01*
X83566502Y-105414489D01*
X83425811Y-105519811D01*
X83339648Y-105634909D01*
X83339647Y-105634910D01*
X83289402Y-105769625D01*
X83283000Y-105829175D01*
X83283000Y-106367000D01*
X85329620Y-106367000D01*
X85250345Y-106446275D01*
X85178116Y-106554373D01*
X85128364Y-106674485D01*
X85103000Y-106801996D01*
X85103000Y-106932004D01*
X85128364Y-107059515D01*
X85178116Y-107179627D01*
X85250345Y-107287725D01*
X85342275Y-107379655D01*
X85450373Y-107451884D01*
X85570485Y-107501636D01*
X85697996Y-107527000D01*
X85828004Y-107527000D01*
X85955515Y-107501636D01*
X86075627Y-107451884D01*
X86183725Y-107379655D01*
X86275655Y-107287725D01*
X86347884Y-107179627D01*
X86397636Y-107059515D01*
X86423000Y-106932004D01*
X86423000Y-106801996D01*
X86397636Y-106674485D01*
X86347884Y-106554373D01*
X86275655Y-106446275D01*
X86196380Y-106367000D01*
X88243000Y-106367000D01*
X88243000Y-105829175D01*
X88236597Y-105769625D01*
X88186352Y-105634910D01*
X88186351Y-105634909D01*
X88100187Y-105519809D01*
X87959498Y-105414489D01*
X87859068Y-105314058D01*
X87791002Y-105189401D01*
X87760812Y-105050616D01*
X87770946Y-104908948D01*
X87820581Y-104775873D01*
X87905698Y-104662173D01*
X88019400Y-104577058D01*
X88041996Y-104565456D01*
X88201841Y-104488480D01*
X88272654Y-104443984D01*
X88402444Y-104386304D01*
X88538139Y-104367500D01*
X93523424Y-104367500D01*
X93523425Y-104367500D01*
X93633595Y-104355086D01*
X93802503Y-104336056D01*
X93802503Y-104336055D01*
X93802509Y-104336055D01*
X94076318Y-104273560D01*
X94076327Y-104273556D01*
X94082460Y-104272157D01*
X94224018Y-104260580D01*
X94363103Y-104289353D01*
X94488448Y-104356146D01*
X94589898Y-104455546D01*
X94659234Y-104579502D01*
X94690839Y-104717971D01*
X94692500Y-104758646D01*
X94692500Y-114707432D01*
X94723943Y-114986503D01*
X94723945Y-114986513D01*
X94786437Y-115260308D01*
X94786439Y-115260314D01*
X94786440Y-115260318D01*
X94879199Y-115525408D01*
X95001055Y-115778445D01*
X95001056Y-115778447D01*
X95029988Y-115824491D01*
X95150477Y-116016248D01*
X95150479Y-116016251D01*
X95150482Y-116016255D01*
X95325574Y-116235814D01*
X95325585Y-116235826D01*
X96984783Y-117895024D01*
X97069899Y-118008725D01*
X97090164Y-118053558D01*
X97091181Y-118053120D01*
X97096929Y-118066447D01*
X97096931Y-118066451D01*
X97226141Y-118365992D01*
X97379868Y-118632256D01*
X97389253Y-118648511D01*
X97584052Y-118910171D01*
X97584061Y-118910182D01*
X97807920Y-119147459D01*
X97807923Y-119147462D01*
X98057823Y-119357153D01*
X98330377Y-119536414D01*
X98621899Y-119682822D01*
X98928446Y-119794396D01*
X98928452Y-119794397D01*
X98928454Y-119794398D01*
X99245865Y-119869626D01*
X99245866Y-119869626D01*
X99245874Y-119869628D01*
X99505794Y-119900008D01*
X99569887Y-119907500D01*
X99569889Y-119907500D01*
X99896113Y-119907500D01*
X99949198Y-119901295D01*
X100220126Y-119869628D01*
X100220134Y-119869626D01*
X100220136Y-119869626D01*
X100521124Y-119798290D01*
X100537554Y-119794396D01*
X100844101Y-119682822D01*
X101135623Y-119536414D01*
X101408177Y-119357153D01*
X101658077Y-119147462D01*
X101881943Y-118910177D01*
X101881949Y-118910168D01*
X101890744Y-118899688D01*
X101996595Y-118804987D01*
X102124837Y-118743944D01*
X102265084Y-118721503D01*
X102405971Y-118739483D01*
X102536086Y-118796427D01*
X102644887Y-118887723D01*
X102655256Y-118899688D01*
X102664061Y-118910182D01*
X102887920Y-119147459D01*
X102887923Y-119147462D01*
X103137823Y-119357153D01*
X103410377Y-119536414D01*
X103701899Y-119682822D01*
X104008446Y-119794396D01*
X104008452Y-119794397D01*
X104008454Y-119794398D01*
X104325865Y-119869626D01*
X104325866Y-119869626D01*
X104325874Y-119869628D01*
X104585794Y-119900008D01*
X104649887Y-119907500D01*
X104649889Y-119907500D01*
X104976113Y-119907500D01*
X105029198Y-119901295D01*
X105300126Y-119869628D01*
X105300134Y-119869626D01*
X105300136Y-119869626D01*
X105601124Y-119798290D01*
X105617554Y-119794396D01*
X105924101Y-119682822D01*
X105924110Y-119682816D01*
X105937429Y-119677073D01*
X105938564Y-119679705D01*
X106048488Y-119642916D01*
X106190419Y-119637610D01*
X106328096Y-119672505D01*
X106450365Y-119744775D01*
X106490752Y-119780993D01*
X107246346Y-120536587D01*
X107331462Y-120650288D01*
X107381096Y-120783363D01*
X107392500Y-120889433D01*
X107392500Y-122653148D01*
X107372287Y-122793733D01*
X107313286Y-122922928D01*
X107300471Y-122941895D01*
X107285077Y-122963592D01*
X107204232Y-123077532D01*
X107204228Y-123077538D01*
X107031984Y-123389190D01*
X107031970Y-123389219D01*
X106895706Y-123718187D01*
X106895702Y-123718197D01*
X106895702Y-123718200D01*
X106848702Y-123881342D01*
X106848701Y-123881345D01*
X106790359Y-124010839D01*
X106697897Y-124118651D01*
X106578807Y-124196047D01*
X106507347Y-124222700D01*
X106344200Y-124269702D01*
X106344197Y-124269702D01*
X106344187Y-124269706D01*
X106015219Y-124405970D01*
X106015207Y-124405975D01*
X106015204Y-124405977D01*
X106015200Y-124405978D01*
X106015190Y-124405984D01*
X105703534Y-124578230D01*
X105703531Y-124578232D01*
X105567904Y-124674465D01*
X105441552Y-124739332D01*
X105302043Y-124765974D01*
X105279148Y-124766500D01*
X101112344Y-124766500D01*
X100971759Y-124746287D01*
X100888391Y-124713421D01*
X100844105Y-124691179D01*
X100537555Y-124579604D01*
X100537545Y-124579601D01*
X100220134Y-124504373D01*
X100220126Y-124504372D01*
X100149697Y-124496140D01*
X99896113Y-124466500D01*
X99896111Y-124466500D01*
X99569889Y-124466500D01*
X99569887Y-124466500D01*
X99427633Y-124483127D01*
X99245874Y-124504372D01*
X99245871Y-124504372D01*
X99245868Y-124504373D01*
X99245863Y-124504373D01*
X98928454Y-124579601D01*
X98928444Y-124579604D01*
X98621895Y-124691179D01*
X98621893Y-124691180D01*
X98330383Y-124837582D01*
X98057824Y-125016846D01*
X97807920Y-125226540D01*
X97584061Y-125463817D01*
X97584052Y-125463828D01*
X97389253Y-125725488D01*
X97226138Y-126008012D01*
X97096934Y-126307539D01*
X97096929Y-126307554D01*
X97003371Y-126620059D01*
X97003367Y-126620078D01*
X96946721Y-126941333D01*
X96927754Y-127267000D01*
X96946721Y-127592666D01*
X97003367Y-127913921D01*
X97003371Y-127913940D01*
X97096929Y-128226445D01*
X97096934Y-128226460D01*
X97226138Y-128525987D01*
X97389253Y-128808511D01*
X97584052Y-129070171D01*
X97584061Y-129070182D01*
X97783400Y-129281469D01*
X97807923Y-129307462D01*
X98057823Y-129517153D01*
X98330377Y-129696414D01*
X98621899Y-129842822D01*
X98928446Y-129954396D01*
X98928452Y-129954397D01*
X98928454Y-129954398D01*
X99245865Y-130029626D01*
X99245866Y-130029626D01*
X99245874Y-130029628D01*
X99505794Y-130060008D01*
X99569887Y-130067500D01*
X99569889Y-130067500D01*
X99896113Y-130067500D01*
X99942036Y-130062132D01*
X100220126Y-130029628D01*
X100220134Y-130029626D01*
X100220136Y-130029626D01*
X100453605Y-129974292D01*
X100537554Y-129954396D01*
X100844101Y-129842822D01*
X100844105Y-129842820D01*
X100888391Y-129820579D01*
X101023093Y-129775547D01*
X101112344Y-129767500D01*
X105279148Y-129767500D01*
X105419733Y-129787713D01*
X105548928Y-129846714D01*
X105567904Y-129859535D01*
X105701599Y-129954396D01*
X105703534Y-129955769D01*
X106015204Y-130128023D01*
X106059112Y-130146210D01*
X106344187Y-130264294D01*
X106344190Y-130264295D01*
X106344199Y-130264297D01*
X106344200Y-130264298D01*
X106686386Y-130362880D01*
X107037457Y-130422529D01*
X107393000Y-130442496D01*
X107748543Y-130422529D01*
X108099614Y-130362880D01*
X108441800Y-130264298D01*
X108441803Y-130264296D01*
X108441809Y-130264295D01*
X108441812Y-130264294D01*
X108641615Y-130181531D01*
X108770796Y-130128023D01*
X109082466Y-129955769D01*
X109372889Y-129749703D01*
X109560493Y-129582049D01*
X109678788Y-129503443D01*
X109814436Y-129461348D01*
X109956450Y-129459175D01*
X110093323Y-129497100D01*
X110213968Y-129572051D01*
X110225507Y-129582050D01*
X110413108Y-129749701D01*
X110703529Y-129955766D01*
X110703532Y-129955767D01*
X110703534Y-129955769D01*
X111015204Y-130128023D01*
X111059112Y-130146210D01*
X111344187Y-130264294D01*
X111344190Y-130264295D01*
X111344199Y-130264297D01*
X111344200Y-130264298D01*
X111686386Y-130362880D01*
X112037457Y-130422529D01*
X112393000Y-130442496D01*
X112748543Y-130422529D01*
X113099614Y-130362880D01*
X113441800Y-130264298D01*
X113441803Y-130264296D01*
X113441809Y-130264295D01*
X113441812Y-130264294D01*
X113641615Y-130181531D01*
X113770796Y-130128023D01*
X114082466Y-129955769D01*
X114143559Y-129912421D01*
X114218096Y-129859535D01*
X114344448Y-129794668D01*
X114483957Y-129768026D01*
X114506852Y-129767500D01*
X118673656Y-129767500D01*
X118814241Y-129787713D01*
X118897609Y-129820579D01*
X118941894Y-129842820D01*
X118941897Y-129842821D01*
X118941899Y-129842822D01*
X119248446Y-129954396D01*
X119248452Y-129954397D01*
X119248454Y-129954398D01*
X119565865Y-130029626D01*
X119565866Y-130029626D01*
X119565874Y-130029628D01*
X119825794Y-130060008D01*
X119889887Y-130067500D01*
X119889889Y-130067500D01*
X120216113Y-130067500D01*
X120262036Y-130062132D01*
X120540126Y-130029628D01*
X120540134Y-130029626D01*
X120540136Y-130029626D01*
X120773605Y-129974292D01*
X120857554Y-129954396D01*
X121164101Y-129842822D01*
X121455623Y-129696414D01*
X121728177Y-129517153D01*
X121894906Y-129377250D01*
X122015586Y-129302373D01*
X122152481Y-129264526D01*
X122294493Y-129266779D01*
X122430118Y-129308950D01*
X122481121Y-129336987D01*
X122611555Y-129418945D01*
X122864592Y-129540801D01*
X123129682Y-129633560D01*
X123129691Y-129633562D01*
X123403486Y-129696054D01*
X123403496Y-129696056D01*
X123631147Y-129721705D01*
X123682575Y-129727500D01*
X123963425Y-129727500D01*
X125599148Y-129727500D01*
X125739733Y-129747713D01*
X125868928Y-129806714D01*
X125887904Y-129819535D01*
X126018815Y-129912421D01*
X126023534Y-129915769D01*
X126335204Y-130088023D01*
X126379112Y-130106210D01*
X126664187Y-130224294D01*
X126664190Y-130224295D01*
X126664199Y-130224297D01*
X126664200Y-130224298D01*
X127006386Y-130322880D01*
X127357457Y-130382529D01*
X127713000Y-130402496D01*
X128068543Y-130382529D01*
X128419614Y-130322880D01*
X128761800Y-130224298D01*
X128761803Y-130224296D01*
X128761809Y-130224295D01*
X128761812Y-130224294D01*
X128994213Y-130128029D01*
X129090796Y-130088023D01*
X129402466Y-129915769D01*
X129692889Y-129709703D01*
X129880493Y-129542049D01*
X129998788Y-129463443D01*
X130134436Y-129421348D01*
X130276450Y-129419175D01*
X130413323Y-129457100D01*
X130533968Y-129532051D01*
X130545507Y-129542050D01*
X130733108Y-129709701D01*
X131023529Y-129915766D01*
X131023532Y-129915767D01*
X131023534Y-129915769D01*
X131335204Y-130088023D01*
X131379112Y-130106210D01*
X131664187Y-130224294D01*
X131664190Y-130224295D01*
X131664199Y-130224297D01*
X131664200Y-130224298D01*
X132006386Y-130322880D01*
X132357457Y-130382529D01*
X132713000Y-130402496D01*
X133068543Y-130382529D01*
X133419614Y-130322880D01*
X133761800Y-130224298D01*
X133761803Y-130224296D01*
X133761809Y-130224295D01*
X133761812Y-130224294D01*
X133994213Y-130128029D01*
X134090796Y-130088023D01*
X134402466Y-129915769D01*
X134462361Y-129873270D01*
X134538096Y-129819535D01*
X134664448Y-129754668D01*
X134803957Y-129728026D01*
X134826852Y-129727500D01*
X138914008Y-129727500D01*
X139054593Y-129747713D01*
X139137958Y-129780577D01*
X139261893Y-129842819D01*
X139261899Y-129842822D01*
X139568446Y-129954396D01*
X139568452Y-129954397D01*
X139568454Y-129954398D01*
X139885865Y-130029626D01*
X139885866Y-130029626D01*
X139885874Y-130029628D01*
X140145794Y-130060008D01*
X140209887Y-130067500D01*
X140209889Y-130067500D01*
X140536113Y-130067500D01*
X140582036Y-130062132D01*
X140860126Y-130029628D01*
X140860134Y-130029626D01*
X140860136Y-130029626D01*
X141093605Y-129974292D01*
X141177554Y-129954396D01*
X141484101Y-129842822D01*
X141775623Y-129696414D01*
X142048177Y-129517153D01*
X142298077Y-129307462D01*
X142521943Y-129070177D01*
X142716749Y-128808508D01*
X142879859Y-128525992D01*
X143009069Y-128226451D01*
X143102630Y-127913934D01*
X143128539Y-127767000D01*
X144251762Y-127767000D01*
X144322864Y-127919479D01*
X144453340Y-128105819D01*
X144614180Y-128266659D01*
X144800517Y-128397133D01*
X144800518Y-128397134D01*
X144953000Y-128468236D01*
X144953000Y-128468235D01*
X145953000Y-128468235D01*
X146105481Y-128397134D01*
X146105482Y-128397133D01*
X146291819Y-128266659D01*
X146452659Y-128105819D01*
X146583135Y-127919479D01*
X146654238Y-127767000D01*
X149331762Y-127767000D01*
X149402864Y-127919479D01*
X149533340Y-128105819D01*
X149694180Y-128266659D01*
X149880517Y-128397133D01*
X149880518Y-128397134D01*
X150033000Y-128468236D01*
X150033000Y-128468235D01*
X151033000Y-128468235D01*
X151185481Y-128397134D01*
X151185482Y-128397133D01*
X151371819Y-128266659D01*
X151532659Y-128105819D01*
X151663135Y-127919479D01*
X151734238Y-127767000D01*
X151033000Y-127767000D01*
X151033000Y-128468235D01*
X150033000Y-128468235D01*
X150033000Y-127767000D01*
X149331762Y-127767000D01*
X146654238Y-127767000D01*
X145953000Y-127767000D01*
X145953000Y-128468235D01*
X144953000Y-128468235D01*
X144953000Y-127767000D01*
X144251762Y-127767000D01*
X143128539Y-127767000D01*
X143159278Y-127592669D01*
X143178246Y-127267000D01*
X143175179Y-127214339D01*
X145053000Y-127214339D01*
X145053000Y-127319661D01*
X145080259Y-127421394D01*
X145132920Y-127512606D01*
X145207394Y-127587080D01*
X145298606Y-127639741D01*
X145400339Y-127667000D01*
X145505661Y-127667000D01*
X145607394Y-127639741D01*
X145698606Y-127587080D01*
X145773080Y-127512606D01*
X145825741Y-127421394D01*
X145853000Y-127319661D01*
X145853000Y-127214339D01*
X150133000Y-127214339D01*
X150133000Y-127319661D01*
X150160259Y-127421394D01*
X150212920Y-127512606D01*
X150287394Y-127587080D01*
X150378606Y-127639741D01*
X150480339Y-127667000D01*
X150585661Y-127667000D01*
X150687394Y-127639741D01*
X150778606Y-127587080D01*
X150853080Y-127512606D01*
X150905741Y-127421394D01*
X150933000Y-127319661D01*
X150933000Y-127214339D01*
X150905741Y-127112606D01*
X150853080Y-127021394D01*
X150778606Y-126946920D01*
X150687394Y-126894259D01*
X150585661Y-126867000D01*
X150480339Y-126867000D01*
X150378606Y-126894259D01*
X150287394Y-126946920D01*
X150212920Y-127021394D01*
X150160259Y-127112606D01*
X150133000Y-127214339D01*
X145853000Y-127214339D01*
X145825741Y-127112606D01*
X145773080Y-127021394D01*
X145698606Y-126946920D01*
X145607394Y-126894259D01*
X145505661Y-126867000D01*
X145400339Y-126867000D01*
X145298606Y-126894259D01*
X145207394Y-126946920D01*
X145132920Y-127021394D01*
X145080259Y-127112606D01*
X145053000Y-127214339D01*
X143175179Y-127214339D01*
X143159278Y-126941331D01*
X143128539Y-126767000D01*
X144251762Y-126767000D01*
X144953000Y-126767000D01*
X145953000Y-126767000D01*
X146654238Y-126767000D01*
X146583135Y-126614520D01*
X146452659Y-126428180D01*
X146291819Y-126267340D01*
X146105479Y-126136864D01*
X145953000Y-126065761D01*
X145953000Y-126767000D01*
X144953000Y-126767000D01*
X144953000Y-126065761D01*
X144800520Y-126136864D01*
X144614180Y-126267340D01*
X144453340Y-126428180D01*
X144322864Y-126614520D01*
X144251762Y-126767000D01*
X143128539Y-126767000D01*
X143102630Y-126620066D01*
X143101941Y-126617766D01*
X143079490Y-126542774D01*
X143009069Y-126307549D01*
X142999448Y-126285246D01*
X142879861Y-126008012D01*
X142869983Y-125990902D01*
X142716749Y-125725492D01*
X142566266Y-125523359D01*
X142521947Y-125463828D01*
X142521938Y-125463817D01*
X142298079Y-125226540D01*
X142233746Y-125172558D01*
X142048177Y-125016847D01*
X141775623Y-124837586D01*
X141775619Y-124837584D01*
X141775616Y-124837582D01*
X141484106Y-124691180D01*
X141484104Y-124691179D01*
X141177555Y-124579604D01*
X141177545Y-124579601D01*
X140860134Y-124504373D01*
X140860126Y-124504372D01*
X140789697Y-124496140D01*
X140536113Y-124466500D01*
X140536111Y-124466500D01*
X140209889Y-124466500D01*
X140209887Y-124466500D01*
X140067633Y-124483127D01*
X139885874Y-124504372D01*
X139885871Y-124504372D01*
X139885868Y-124504373D01*
X139885863Y-124504373D01*
X139568454Y-124579601D01*
X139568444Y-124579604D01*
X139248255Y-124696144D01*
X139247159Y-124693133D01*
X139137440Y-124722823D01*
X139076977Y-124726500D01*
X134826852Y-124726500D01*
X134686267Y-124706287D01*
X134557072Y-124647286D01*
X134538096Y-124634465D01*
X134402468Y-124538232D01*
X134402465Y-124538230D01*
X134090809Y-124365984D01*
X134090806Y-124365982D01*
X134090796Y-124365977D01*
X134090785Y-124365972D01*
X134090780Y-124365970D01*
X133761812Y-124229705D01*
X133761809Y-124229704D01*
X133643206Y-124195535D01*
X133598653Y-124182700D01*
X133469161Y-124124359D01*
X133361348Y-124031898D01*
X133283953Y-123912807D01*
X133257298Y-123841342D01*
X133248853Y-123812028D01*
X133210298Y-123678200D01*
X133210296Y-123678195D01*
X133210294Y-123678187D01*
X133074029Y-123349219D01*
X133074023Y-123349204D01*
X132901769Y-123037534D01*
X132901767Y-123037532D01*
X132901766Y-123037529D01*
X132695705Y-122747114D01*
X132695703Y-122747111D01*
X132458415Y-122481585D01*
X132192889Y-122244297D01*
X132192885Y-122244294D01*
X131902470Y-122038233D01*
X131590809Y-121865984D01*
X131590806Y-121865982D01*
X131590796Y-121865977D01*
X131590785Y-121865972D01*
X131590780Y-121865970D01*
X131261812Y-121729705D01*
X131261809Y-121729704D01*
X130919612Y-121631119D01*
X130568546Y-121571471D01*
X130568538Y-121571470D01*
X130213000Y-121551504D01*
X129857461Y-121571470D01*
X129857453Y-121571471D01*
X129506387Y-121631119D01*
X129164190Y-121729704D01*
X129164187Y-121729705D01*
X128835219Y-121865970D01*
X128835207Y-121865975D01*
X128835204Y-121865977D01*
X128835200Y-121865978D01*
X128835190Y-121865984D01*
X128523529Y-122038233D01*
X128233114Y-122244294D01*
X127967585Y-122481585D01*
X127730294Y-122747114D01*
X127524233Y-123037529D01*
X127351984Y-123349190D01*
X127351970Y-123349219D01*
X127215706Y-123678187D01*
X127215702Y-123678197D01*
X127215702Y-123678200D01*
X127177147Y-123812028D01*
X127168701Y-123841345D01*
X127110359Y-123970839D01*
X127017897Y-124078651D01*
X126898807Y-124156047D01*
X126827347Y-124182700D01*
X126664200Y-124229702D01*
X126664197Y-124229702D01*
X126664187Y-124229706D01*
X126335219Y-124365970D01*
X126335207Y-124365975D01*
X126335204Y-124365977D01*
X126335200Y-124365978D01*
X126335190Y-124365984D01*
X126023534Y-124538230D01*
X126023531Y-124538232D01*
X125887904Y-124634465D01*
X125761552Y-124699332D01*
X125622043Y-124725974D01*
X125599148Y-124726500D01*
X125065433Y-124726500D01*
X124924848Y-124706287D01*
X124795653Y-124647286D01*
X124712587Y-124580346D01*
X121721826Y-121589585D01*
X121721814Y-121589574D01*
X121502255Y-121414482D01*
X121502251Y-121414479D01*
X121502248Y-121414477D01*
X121335568Y-121309744D01*
X121264447Y-121265056D01*
X121264445Y-121265055D01*
X121011408Y-121143199D01*
X120746318Y-121050440D01*
X120746314Y-121050439D01*
X120746308Y-121050437D01*
X120472513Y-120987945D01*
X120456624Y-120986155D01*
X120319187Y-120950327D01*
X120197411Y-120877229D01*
X120101162Y-120772785D01*
X120038236Y-120645455D01*
X120013733Y-120505554D01*
X120013500Y-120490293D01*
X120013500Y-118846339D01*
X120033713Y-118705754D01*
X120092714Y-118576559D01*
X120185724Y-118469220D01*
X120305208Y-118392433D01*
X120383351Y-118364342D01*
X120499321Y-118333268D01*
X120499323Y-118333267D01*
X120705481Y-118237134D01*
X120891819Y-118106659D01*
X121052659Y-117945819D01*
X121183136Y-117759478D01*
X121220993Y-117678293D01*
X121298724Y-117559421D01*
X121406797Y-117467265D01*
X121536456Y-117409289D01*
X121677196Y-117390191D01*
X121817616Y-117411517D01*
X121946340Y-117471540D01*
X122026088Y-117536329D01*
X124099173Y-119609414D01*
X124099185Y-119609425D01*
X124318744Y-119784517D01*
X124318752Y-119784523D01*
X124556555Y-119933945D01*
X124809592Y-120055801D01*
X125074682Y-120148560D01*
X125074691Y-120148562D01*
X125348486Y-120211054D01*
X125348496Y-120211056D01*
X125576147Y-120236705D01*
X125627575Y-120242500D01*
X125908425Y-120242500D01*
X126293656Y-120242500D01*
X126434241Y-120262713D01*
X126517609Y-120295579D01*
X126561894Y-120317820D01*
X126561897Y-120317821D01*
X126561899Y-120317822D01*
X126868446Y-120429396D01*
X126868452Y-120429397D01*
X126868454Y-120429398D01*
X127185865Y-120504626D01*
X127185866Y-120504626D01*
X127185874Y-120504628D01*
X127445794Y-120535008D01*
X127509887Y-120542500D01*
X127509889Y-120542500D01*
X127836113Y-120542500D01*
X127886700Y-120536587D01*
X128160126Y-120504628D01*
X128160134Y-120504626D01*
X128160136Y-120504626D01*
X128393605Y-120449292D01*
X128477554Y-120429396D01*
X128784101Y-120317822D01*
X129075623Y-120171414D01*
X129348177Y-119992153D01*
X129598077Y-119782462D01*
X129821943Y-119545177D01*
X130016749Y-119283508D01*
X130179859Y-119000992D01*
X130203967Y-118945104D01*
X132177002Y-118945104D01*
X132226674Y-118968266D01*
X132446393Y-119027140D01*
X132672999Y-119046966D01*
X132673001Y-119046966D01*
X132899606Y-119027140D01*
X133119323Y-118968267D01*
X133119329Y-118968265D01*
X133168996Y-118945104D01*
X132778239Y-118554346D01*
X132693124Y-118440645D01*
X132674292Y-118390155D01*
X132668820Y-118408792D01*
X132592033Y-118528276D01*
X132567760Y-118554347D01*
X132177002Y-118945104D01*
X130203967Y-118945104D01*
X130309069Y-118701451D01*
X130402630Y-118388934D01*
X130447499Y-118134466D01*
X130491815Y-117999533D01*
X130572355Y-117882546D01*
X130682590Y-117792988D01*
X130813592Y-117738115D01*
X130954747Y-117722372D01*
X131094620Y-117747035D01*
X131221878Y-117810105D01*
X131326213Y-117906474D01*
X131399171Y-118028333D01*
X131420913Y-118091966D01*
X131446733Y-118188327D01*
X131469894Y-118237996D01*
X131469895Y-118237996D01*
X131859240Y-117848653D01*
X131972942Y-117763538D01*
X132106017Y-117713904D01*
X132212086Y-117702500D01*
X132214914Y-117702500D01*
X132273000Y-117710851D01*
X132273000Y-117794661D01*
X132300259Y-117896394D01*
X132352920Y-117987606D01*
X132427394Y-118062080D01*
X132518606Y-118114741D01*
X132620339Y-118142000D01*
X132725661Y-118142000D01*
X132827394Y-118114741D01*
X132918606Y-118062080D01*
X132993080Y-117987606D01*
X133045741Y-117896394D01*
X133073000Y-117794661D01*
X133073000Y-117708663D01*
X133095488Y-117703771D01*
X133131086Y-117702500D01*
X133133915Y-117702500D01*
X133274500Y-117722713D01*
X133403695Y-117781714D01*
X133486761Y-117848654D01*
X133876103Y-118237996D01*
X133876104Y-118237996D01*
X133899265Y-118188329D01*
X133899267Y-118188323D01*
X133930343Y-118072349D01*
X133986253Y-117941786D01*
X134076683Y-117832264D01*
X134194305Y-117752655D01*
X134329591Y-117709409D01*
X134412340Y-117702500D01*
X138943203Y-117702500D01*
X139083788Y-117722713D01*
X139212983Y-117781714D01*
X139320322Y-117874724D01*
X139351958Y-117915283D01*
X139373336Y-117945814D01*
X139373342Y-117945821D01*
X139534180Y-118106659D01*
X139720517Y-118237133D01*
X139720518Y-118237134D01*
X139873000Y-118308236D01*
X139873000Y-118201500D01*
X139893213Y-118060915D01*
X139952214Y-117931720D01*
X140045224Y-117824381D01*
X140164708Y-117747594D01*
X140300985Y-117707579D01*
X140372000Y-117702500D01*
X140374000Y-117702500D01*
X140514585Y-117722713D01*
X140643780Y-117781714D01*
X140751119Y-117874724D01*
X140827906Y-117994208D01*
X140867921Y-118130485D01*
X140873000Y-118201500D01*
X140873000Y-118308235D01*
X141025481Y-118237134D01*
X141025482Y-118237133D01*
X141211819Y-118106659D01*
X141372657Y-117945821D01*
X141372663Y-117945814D01*
X141394042Y-117915283D01*
X141491236Y-117811717D01*
X141613670Y-117739729D01*
X141751427Y-117705151D01*
X141802797Y-117702500D01*
X142305567Y-117702500D01*
X142446152Y-117722713D01*
X142575347Y-117781714D01*
X142658413Y-117848654D01*
X142704783Y-117895024D01*
X142789899Y-118008725D01*
X142810164Y-118053558D01*
X142811181Y-118053120D01*
X142816929Y-118066447D01*
X142816931Y-118066451D01*
X142946141Y-118365992D01*
X143099868Y-118632256D01*
X143109253Y-118648511D01*
X143304052Y-118910171D01*
X143304061Y-118910182D01*
X143527920Y-119147459D01*
X143527923Y-119147462D01*
X143777823Y-119357153D01*
X144050377Y-119536414D01*
X144050383Y-119536417D01*
X144341893Y-119682819D01*
X144341899Y-119682822D01*
X144474855Y-119731214D01*
X144600048Y-119798290D01*
X144657034Y-119847275D01*
X149704173Y-124894414D01*
X149704185Y-124894425D01*
X149857697Y-125016846D01*
X149923752Y-125069523D01*
X149923754Y-125069524D01*
X150104521Y-125183109D01*
X150212804Y-125275019D01*
X150290805Y-125393714D01*
X150332207Y-125529575D01*
X150333655Y-125671598D01*
X150295032Y-125808276D01*
X150219467Y-125928536D01*
X150113082Y-126022636D01*
X150049923Y-126057870D01*
X149880520Y-126136863D01*
X149694180Y-126267340D01*
X149533340Y-126428180D01*
X149402864Y-126614520D01*
X149331762Y-126767000D01*
X151734238Y-126767000D01*
X151663135Y-126614520D01*
X151532659Y-126428180D01*
X151483825Y-126379346D01*
X151398709Y-126265645D01*
X151349075Y-126132570D01*
X151338942Y-125990902D01*
X151369133Y-125852117D01*
X151437201Y-125727460D01*
X151537631Y-125627030D01*
X151662288Y-125558962D01*
X151801073Y-125528771D01*
X151836671Y-125527500D01*
X154754064Y-125527500D01*
X154894649Y-125547713D01*
X154993210Y-125588538D01*
X155199839Y-125701367D01*
X155373338Y-125766079D01*
X155467956Y-125801370D01*
X155701239Y-125852117D01*
X155747572Y-125862196D01*
X155961552Y-125877500D01*
X155961559Y-125877500D01*
X157804441Y-125877500D01*
X157804448Y-125877500D01*
X158018428Y-125862196D01*
X158170596Y-125829093D01*
X158298047Y-125801369D01*
X158338877Y-125786140D01*
X158477661Y-125755948D01*
X158619329Y-125766079D01*
X158628342Y-125768127D01*
X158759989Y-125799327D01*
X158927177Y-125838952D01*
X159202511Y-125871133D01*
X159256975Y-125877500D01*
X159256977Y-125877500D01*
X159589025Y-125877500D01*
X159639333Y-125871619D01*
X159918823Y-125838952D01*
X160241918Y-125762377D01*
X160553939Y-125648811D01*
X160850666Y-125499789D01*
X161128085Y-125317327D01*
X161382447Y-125103893D01*
X161610310Y-124862371D01*
X161808594Y-124596030D01*
X161974617Y-124308470D01*
X162106133Y-124003581D01*
X162110227Y-123989905D01*
X162122769Y-123948014D01*
X162182452Y-123819133D01*
X162247960Y-123738280D01*
X162493144Y-123493096D01*
X162840416Y-123145825D01*
X162840754Y-123145402D01*
X162926779Y-123037529D01*
X163015523Y-122926248D01*
X163164945Y-122688445D01*
X163286801Y-122435408D01*
X163379560Y-122170318D01*
X163442055Y-121896509D01*
X163445495Y-121865984D01*
X163473499Y-121617432D01*
X163473500Y-121617424D01*
X163473500Y-116103575D01*
X163473499Y-116103567D01*
X163442056Y-115824496D01*
X163442054Y-115824486D01*
X163379562Y-115550691D01*
X163379560Y-115550682D01*
X163286801Y-115285592D01*
X163164945Y-115032555D01*
X163015523Y-114794752D01*
X163015517Y-114794744D01*
X162840425Y-114575185D01*
X162840414Y-114575173D01*
X155389587Y-107124346D01*
X155304471Y-107010645D01*
X155254837Y-106877570D01*
X155244704Y-106735902D01*
X155274895Y-106597117D01*
X155342963Y-106472460D01*
X155443393Y-106372030D01*
X155568050Y-106303962D01*
X155706835Y-106273771D01*
X155742433Y-106272500D01*
X156593424Y-106272500D01*
X156593425Y-106272500D01*
X156736655Y-106256362D01*
X156872503Y-106241056D01*
X156872509Y-106241055D01*
X156910587Y-106232364D01*
X157030429Y-106205010D01*
X157141467Y-106192500D01*
X157804441Y-106192500D01*
X157804448Y-106192500D01*
X158018428Y-106177196D01*
X158141089Y-106150512D01*
X158282748Y-106140380D01*
X158411962Y-106167111D01*
X158465399Y-106185810D01*
X158591043Y-106229775D01*
X158591049Y-106229777D01*
X158919606Y-106304767D01*
X158919603Y-106304767D01*
X159254487Y-106342499D01*
X159254496Y-106342500D01*
X161418505Y-106342500D01*
X161753394Y-106304767D01*
X162081954Y-106229776D01*
X162400051Y-106118469D01*
X162703686Y-105972246D01*
X162703690Y-105972243D01*
X162703695Y-105972241D01*
X162938576Y-105824654D01*
X162989039Y-105792946D01*
X163093119Y-105709945D01*
X163252523Y-105582825D01*
X163490825Y-105344523D01*
X166108824Y-102726524D01*
X166143123Y-102683515D01*
X166318946Y-102463039D01*
X166442126Y-102267000D01*
X166498241Y-102177695D01*
X166498243Y-102177690D01*
X166498246Y-102177686D01*
X166644469Y-101874051D01*
X166755776Y-101555954D01*
X166799295Y-101365283D01*
X166830767Y-101227395D01*
X166863427Y-100937530D01*
X166863427Y-100937528D01*
X166868500Y-100892505D01*
X166868500Y-100555495D01*
X166868500Y-91378539D01*
X166888713Y-91237954D01*
X166947714Y-91108759D01*
X167014645Y-91025702D01*
X167539123Y-90501224D01*
X167652814Y-90416116D01*
X167785889Y-90366482D01*
X167927558Y-90356349D01*
X168066342Y-90386540D01*
X168190999Y-90454608D01*
X168291430Y-90555038D01*
X168359498Y-90679695D01*
X168383909Y-90770491D01*
X168408836Y-90917197D01*
X168425650Y-91016157D01*
X168475294Y-91188477D01*
X168523611Y-91356187D01*
X168659022Y-91683099D01*
X168659032Y-91683118D01*
X168830189Y-91992805D01*
X168830194Y-91992813D01*
X169034961Y-92281403D01*
X169034967Y-92281410D01*
X169270749Y-92545249D01*
X169270750Y-92545250D01*
X169534589Y-92781032D01*
X169534596Y-92781038D01*
X169823186Y-92985805D01*
X169823194Y-92985810D01*
X170062634Y-93118143D01*
X170132895Y-93156975D01*
X170459816Y-93292390D01*
X170799843Y-93390350D01*
X171148700Y-93449623D01*
X171502000Y-93469464D01*
X171855300Y-93449623D01*
X172204157Y-93390350D01*
X172544184Y-93292390D01*
X172871105Y-93156975D01*
X173089283Y-93036391D01*
X173180805Y-92985810D01*
X173180813Y-92985805D01*
X173301537Y-92900146D01*
X173469400Y-92781041D01*
X173733250Y-92545250D01*
X173969041Y-92281400D01*
X174148098Y-92029043D01*
X174173805Y-91992813D01*
X174173810Y-91992805D01*
X174304973Y-91755483D01*
X174344975Y-91683105D01*
X174480390Y-91356184D01*
X174578350Y-91016157D01*
X174637623Y-90667300D01*
X174657464Y-90314000D01*
X174637623Y-89960700D01*
X174589611Y-89678119D01*
X174578350Y-89611842D01*
X174534175Y-89458506D01*
X174514679Y-89317820D01*
X174535610Y-89177341D01*
X174595269Y-89048448D01*
X174660822Y-88967525D01*
X179443825Y-84184523D01*
X179653946Y-83921039D01*
X179833247Y-83635685D01*
X179979469Y-83332051D01*
X179998304Y-83278224D01*
X180090776Y-83013954D01*
X180129286Y-82845224D01*
X180180273Y-82712666D01*
X180262925Y-82603421D01*
X182264641Y-80601705D01*
X182296722Y-80572309D01*
X182313558Y-80558183D01*
X182398600Y-80468041D01*
X182408612Y-80457734D01*
X182491824Y-80374524D01*
X182491825Y-80374523D01*
X186174825Y-76691523D01*
X186384946Y-76428039D01*
X186564247Y-76142685D01*
X186710469Y-75839051D01*
X186732724Y-75775451D01*
X186821776Y-75520954D01*
X186896767Y-75192394D01*
X186916062Y-75021146D01*
X186934500Y-74857505D01*
X186934500Y-74520495D01*
X186934500Y-63471496D01*
X186917394Y-63319675D01*
X186896767Y-63136605D01*
X186821779Y-62808059D01*
X186821778Y-62808058D01*
X186821776Y-62808046D01*
X186795274Y-62732309D01*
X186767921Y-62592940D01*
X186780940Y-62451507D01*
X186833279Y-62319472D01*
X186920695Y-62207531D01*
X187036109Y-62124752D01*
X187170169Y-62077842D01*
X187266272Y-62068500D01*
X190761728Y-62068500D01*
X190902313Y-62088713D01*
X191031508Y-62147714D01*
X191138847Y-62240724D01*
X191215634Y-62360208D01*
X191255649Y-62496485D01*
X191255649Y-62638515D01*
X191232725Y-62732311D01*
X191206226Y-62808039D01*
X191206220Y-62808059D01*
X191131232Y-63136605D01*
X191093500Y-63471487D01*
X191093500Y-64363509D01*
X191105614Y-64471020D01*
X191105614Y-64471023D01*
X191131232Y-64698394D01*
X191206220Y-65026940D01*
X191206222Y-65026949D01*
X191206224Y-65026954D01*
X191317531Y-65345051D01*
X191423822Y-65565767D01*
X191463758Y-65648695D01*
X191643051Y-65934035D01*
X191793994Y-66123313D01*
X191853175Y-66197523D01*
X191853182Y-66197531D01*
X193648811Y-67993159D01*
X193733927Y-68106860D01*
X193783561Y-68239935D01*
X193793694Y-68381603D01*
X193763503Y-68520387D01*
X193695435Y-68645044D01*
X193595005Y-68745475D01*
X193470348Y-68813543D01*
X193460775Y-68817002D01*
X193324961Y-68864525D01*
X193324955Y-68864527D01*
X193021314Y-69010753D01*
X192735951Y-69190059D01*
X192472485Y-69400168D01*
X192472469Y-69400182D01*
X190134176Y-71738475D01*
X190134165Y-71738487D01*
X189959549Y-71957449D01*
X189959550Y-71957450D01*
X189924049Y-72001967D01*
X189744757Y-72287306D01*
X189598529Y-72590954D01*
X189487225Y-72909043D01*
X189487220Y-72909059D01*
X189412232Y-73237603D01*
X189403364Y-73316319D01*
X189403364Y-73316320D01*
X189374500Y-73572490D01*
X189374500Y-88119663D01*
X189354287Y-88260248D01*
X189329407Y-88326954D01*
X189327633Y-88330837D01*
X189227629Y-88598956D01*
X189166805Y-88878563D01*
X189166804Y-88878569D01*
X189166804Y-88878572D01*
X189151500Y-89092552D01*
X189151500Y-91535448D01*
X189166804Y-91749428D01*
X189166805Y-91749436D01*
X189227629Y-92029043D01*
X189327633Y-92297161D01*
X189463099Y-92545249D01*
X189464774Y-92548315D01*
X189533368Y-92639947D01*
X189636258Y-92777392D01*
X189838607Y-92979741D01*
X189925824Y-93045030D01*
X190067685Y-93151226D01*
X190318839Y-93288367D01*
X190509648Y-93359535D01*
X190586956Y-93388370D01*
X190847138Y-93444968D01*
X190866572Y-93449196D01*
X191080552Y-93464500D01*
X191761636Y-93464500D01*
X191857647Y-93475317D01*
X191857800Y-93474422D01*
X191871604Y-93476767D01*
X192206487Y-93514499D01*
X192206496Y-93514500D01*
X192543504Y-93514500D01*
X192699815Y-93496887D01*
X192878395Y-93476767D01*
X192892200Y-93474422D01*
X192892352Y-93475317D01*
X192988364Y-93464500D01*
X193523441Y-93464500D01*
X193523448Y-93464500D01*
X193737428Y-93449196D01*
X193857048Y-93423174D01*
X194017043Y-93388370D01*
X194017046Y-93388369D01*
X194285161Y-93288367D01*
X194536315Y-93151226D01*
X194697106Y-93030859D01*
X194740462Y-92998404D01*
X194865119Y-92930337D01*
X195003903Y-92900146D01*
X195145571Y-92910279D01*
X195278646Y-92959914D01*
X195392347Y-93045030D01*
X195477462Y-93158731D01*
X195527097Y-93291806D01*
X195538500Y-93397875D01*
X195538500Y-95812460D01*
X195518287Y-95953045D01*
X195459286Y-96082240D01*
X195392346Y-96165306D01*
X195250306Y-96307346D01*
X195136605Y-96392462D01*
X195003530Y-96442096D01*
X194897460Y-96453500D01*
X183765489Y-96453500D01*
X183545057Y-96478337D01*
X183508318Y-96482477D01*
X183430606Y-96491233D01*
X183430605Y-96491233D01*
X183430598Y-96491234D01*
X183430596Y-96491234D01*
X183102059Y-96566220D01*
X183102043Y-96566225D01*
X182783954Y-96677529D01*
X182783952Y-96677529D01*
X182783949Y-96677531D01*
X182682737Y-96726272D01*
X182480304Y-96823758D01*
X182194964Y-97003051D01*
X181971294Y-97181423D01*
X181971292Y-97181424D01*
X181931475Y-97213175D01*
X181931467Y-97213183D01*
X179645477Y-99499175D01*
X179407179Y-99737472D01*
X179407169Y-99737483D01*
X179256459Y-99926469D01*
X179236795Y-99951126D01*
X179197052Y-100000962D01*
X179017758Y-100286304D01*
X178871529Y-100589954D01*
X178760225Y-100908043D01*
X178760220Y-100908059D01*
X178685234Y-101236598D01*
X178685233Y-101236605D01*
X178685233Y-101236606D01*
X178648776Y-101560175D01*
X178648775Y-101560183D01*
X178647500Y-101571484D01*
X178647500Y-101571496D01*
X178647500Y-103218495D01*
X178647500Y-103555505D01*
X178668222Y-103739416D01*
X178682130Y-103862853D01*
X178685234Y-103890403D01*
X178760220Y-104218940D01*
X178760222Y-104218949D01*
X178760224Y-104218954D01*
X178871531Y-104537051D01*
X179017754Y-104840686D01*
X179017755Y-104840688D01*
X179158348Y-105064439D01*
X179172569Y-105088547D01*
X179230196Y-105192815D01*
X179434961Y-105481403D01*
X179434967Y-105481410D01*
X179670749Y-105745249D01*
X179670750Y-105745250D01*
X179934589Y-105981032D01*
X179934596Y-105981038D01*
X180223186Y-106185805D01*
X180223194Y-106185810D01*
X180532893Y-106356974D01*
X180532898Y-106356977D01*
X180626132Y-106395595D01*
X180651685Y-106407029D01*
X180824949Y-106490469D01*
X180824951Y-106490470D01*
X180909521Y-106520062D01*
X181143047Y-106601776D01*
X181471606Y-106676767D01*
X181806495Y-106714500D01*
X182143505Y-106714500D01*
X182478394Y-106676767D01*
X182806954Y-106601776D01*
X183125051Y-106490469D01*
X183428686Y-106344246D01*
X183428690Y-106344243D01*
X183428695Y-106344241D01*
X183610858Y-106229779D01*
X183714039Y-106164946D01*
X183977524Y-105954824D01*
X184215824Y-105716524D01*
X184425946Y-105453039D01*
X184543536Y-105265896D01*
X184605240Y-105167696D01*
X184605240Y-105167694D01*
X184605246Y-105167686D01*
X184718072Y-104933398D01*
X184730896Y-104908577D01*
X184744975Y-104883105D01*
X184880390Y-104556184D01*
X184978350Y-104216157D01*
X185037623Y-103867300D01*
X185057464Y-103514000D01*
X185037623Y-103160700D01*
X185016619Y-103037084D01*
X185012999Y-102895101D01*
X185049526Y-102757848D01*
X185123242Y-102636446D01*
X185228175Y-102540729D01*
X185355824Y-102478453D01*
X185495847Y-102454662D01*
X185508570Y-102454500D01*
X188186459Y-102454500D01*
X188327044Y-102474713D01*
X188456239Y-102533714D01*
X188563578Y-102626724D01*
X188640365Y-102746208D01*
X188680380Y-102882485D01*
X188680380Y-103024515D01*
X188640365Y-103160792D01*
X188563578Y-103280276D01*
X188539305Y-103306346D01*
X183346306Y-108499346D01*
X183232605Y-108584462D01*
X183099530Y-108634096D01*
X182993460Y-108645500D01*
X176526487Y-108645500D01*
X176191607Y-108683232D01*
X175863056Y-108758221D01*
X175863045Y-108758224D01*
X175814960Y-108775050D01*
X175685757Y-108801778D01*
X175559576Y-108810803D01*
X175559563Y-108810805D01*
X175279955Y-108871630D01*
X175279953Y-108871630D01*
X175161882Y-108915669D01*
X175023097Y-108945860D01*
X174881429Y-108935727D01*
X174748354Y-108886092D01*
X174634653Y-108800977D01*
X174549538Y-108687276D01*
X174499904Y-108554200D01*
X174488500Y-108448131D01*
X174488500Y-104598481D01*
X174508002Y-104460339D01*
X174509383Y-104455546D01*
X174578350Y-104216157D01*
X174637623Y-103867300D01*
X174657464Y-103514000D01*
X174637623Y-103160700D01*
X174578350Y-102811843D01*
X174480390Y-102471816D01*
X174344975Y-102144895D01*
X174306143Y-102074634D01*
X174173810Y-101835194D01*
X174173805Y-101835186D01*
X173969038Y-101546596D01*
X173969032Y-101546589D01*
X173733250Y-101282750D01*
X173733249Y-101282749D01*
X173469410Y-101046967D01*
X173469403Y-101046961D01*
X173180813Y-100842194D01*
X173180805Y-100842189D01*
X172871118Y-100671032D01*
X172871099Y-100671022D01*
X172544187Y-100535611D01*
X172204164Y-100437652D01*
X172204163Y-100437651D01*
X172204157Y-100437650D01*
X171855300Y-100378377D01*
X171855298Y-100378376D01*
X171855295Y-100378376D01*
X171502000Y-100358536D01*
X171148704Y-100378376D01*
X171148700Y-100378377D01*
X170799843Y-100437650D01*
X170799837Y-100437651D01*
X170799835Y-100437652D01*
X170459812Y-100535611D01*
X170132900Y-100671022D01*
X170132881Y-100671032D01*
X169823194Y-100842189D01*
X169823186Y-100842194D01*
X169534596Y-101046961D01*
X169534589Y-101046967D01*
X169270750Y-101282749D01*
X169270749Y-101282750D01*
X169034967Y-101546589D01*
X169034961Y-101546596D01*
X168830194Y-101835186D01*
X168830189Y-101835194D01*
X168659032Y-102144881D01*
X168659022Y-102144900D01*
X168523611Y-102471812D01*
X168441206Y-102757848D01*
X168425650Y-102811843D01*
X168411504Y-102895101D01*
X168366377Y-103160700D01*
X168366376Y-103160704D01*
X168346536Y-103513999D01*
X168346536Y-103514000D01*
X168366376Y-103867295D01*
X168366376Y-103867298D01*
X168366377Y-103867300D01*
X168425650Y-104216157D01*
X168425651Y-104216163D01*
X168425652Y-104216164D01*
X168467998Y-104363150D01*
X168487500Y-104501291D01*
X168487500Y-122671003D01*
X168474989Y-122782041D01*
X168447135Y-122904075D01*
X168410000Y-123233656D01*
X168410000Y-123660343D01*
X168447133Y-123989905D01*
X168447134Y-123989915D01*
X168447136Y-123989925D01*
X168456716Y-124031898D01*
X168520935Y-124313266D01*
X168520941Y-124313285D01*
X168630483Y-124626342D01*
X168630485Y-124626345D01*
X168686045Y-124741717D01*
X168707453Y-124793399D01*
X168711525Y-124805035D01*
X168711531Y-124805051D01*
X168857758Y-125108695D01*
X169037046Y-125394027D01*
X169037057Y-125394043D01*
X169247169Y-125657516D01*
X169247179Y-125657527D01*
X169485472Y-125895820D01*
X169485483Y-125895830D01*
X169526495Y-125928536D01*
X169748961Y-126105946D01*
X169748970Y-126105951D01*
X169748972Y-126105953D01*
X170034304Y-126285241D01*
X170034312Y-126285245D01*
X170034314Y-126285246D01*
X170337949Y-126431469D01*
X170656046Y-126542776D01*
X170656058Y-126542778D01*
X170656059Y-126542779D01*
X170984596Y-126617765D01*
X170984601Y-126617766D01*
X170984602Y-126617766D01*
X170984606Y-126617767D01*
X170992898Y-126618701D01*
X170998127Y-126620064D01*
X170998402Y-126620111D01*
X170998397Y-126620134D01*
X171130335Y-126654526D01*
X171252112Y-126727620D01*
X171348364Y-126832063D01*
X171386615Y-126898055D01*
X171397754Y-126921187D01*
X171397763Y-126921202D01*
X171577046Y-127206527D01*
X171577049Y-127206532D01*
X171577051Y-127206535D01*
X171577054Y-127206539D01*
X171745289Y-127417500D01*
X171748394Y-127421394D01*
X171787178Y-127470026D01*
X171787187Y-127470036D01*
X173062972Y-128745820D01*
X173062983Y-128745830D01*
X173276956Y-128916467D01*
X173326461Y-128955946D01*
X173611815Y-129135247D01*
X173760582Y-129206889D01*
X173915449Y-129281469D01*
X173915452Y-129281470D01*
X173915454Y-129281471D01*
X173975189Y-129302373D01*
X174233546Y-129392776D01*
X174233558Y-129392778D01*
X174233562Y-129392780D01*
X174479425Y-129448896D01*
X174479430Y-129448897D01*
X174562106Y-129467767D01*
X174562103Y-129467767D01*
X174896986Y-129505499D01*
X174896995Y-129505500D01*
X191722505Y-129505500D01*
X192057394Y-129467767D01*
X192385954Y-129392776D01*
X192704051Y-129281469D01*
X193007686Y-129135246D01*
X193293039Y-128955946D01*
X193342545Y-128916466D01*
X193556523Y-128745825D01*
X193574359Y-128727989D01*
X200739539Y-128727989D01*
X200739539Y-128728010D01*
X200759370Y-129194886D01*
X200759372Y-129194899D01*
X200818728Y-129658421D01*
X200917182Y-130115245D01*
X200917187Y-130115267D01*
X201054023Y-130562084D01*
X201228266Y-130995703D01*
X201228266Y-130995705D01*
X201438654Y-131412984D01*
X201683664Y-131810907D01*
X201683665Y-131810909D01*
X201683670Y-131810915D01*
X201683672Y-131810919D01*
X201961554Y-132186641D01*
X201961560Y-132186648D01*
X201961561Y-132186649D01*
X202270300Y-132537444D01*
X202518504Y-132775328D01*
X202607681Y-132860797D01*
X202971270Y-133154375D01*
X203358447Y-133416060D01*
X203358450Y-133416061D01*
X203358455Y-133416065D01*
X203707527Y-133611068D01*
X203766421Y-133643968D01*
X204192253Y-133836457D01*
X204192259Y-133836459D01*
X204192269Y-133836463D01*
X204366335Y-133897964D01*
X204632876Y-133992139D01*
X205085113Y-134109892D01*
X205545708Y-134188869D01*
X205545710Y-134188869D01*
X205545715Y-134188870D01*
X205813823Y-134211688D01*
X206011342Y-134228500D01*
X206011349Y-134228500D01*
X206478651Y-134228500D01*
X206478658Y-134228500D01*
X206732628Y-134206884D01*
X206944284Y-134188870D01*
X206944287Y-134188869D01*
X206944292Y-134188869D01*
X207404887Y-134109892D01*
X207857124Y-133992139D01*
X208297747Y-133836457D01*
X208723579Y-133643968D01*
X209131544Y-133416065D01*
X209131545Y-133416065D01*
X209131549Y-133416061D01*
X209131553Y-133416060D01*
X209518730Y-133154375D01*
X209882319Y-132860797D01*
X210219701Y-132537442D01*
X210528446Y-132186641D01*
X210806328Y-131810919D01*
X211051345Y-131412985D01*
X211261733Y-130995706D01*
X211435975Y-130562088D01*
X211572816Y-130115255D01*
X211671270Y-129658427D01*
X211674455Y-129633560D01*
X211697051Y-129457100D01*
X211730628Y-129194896D01*
X211730628Y-129194891D01*
X211730629Y-129194886D01*
X211750461Y-128728010D01*
X211750461Y-128727989D01*
X211730629Y-128261113D01*
X211730627Y-128261100D01*
X211726191Y-128226460D01*
X211671270Y-127797573D01*
X211572816Y-127340745D01*
X211446689Y-126928897D01*
X211435976Y-126893915D01*
X211425161Y-126867000D01*
X211261733Y-126460294D01*
X211051345Y-126043015D01*
X210940011Y-125862196D01*
X210806335Y-125645092D01*
X210806334Y-125645090D01*
X210806331Y-125645086D01*
X210806328Y-125645081D01*
X210528446Y-125269359D01*
X210443250Y-125172558D01*
X210219699Y-124918555D01*
X209882327Y-124595211D01*
X209882323Y-124595207D01*
X209882324Y-124595207D01*
X209882319Y-124595203D01*
X209518730Y-124301625D01*
X209131553Y-124039940D01*
X209131552Y-124039939D01*
X209131544Y-124039934D01*
X208723585Y-123812035D01*
X208723570Y-123812028D01*
X208515971Y-123718187D01*
X208297747Y-123619543D01*
X208297745Y-123619542D01*
X208297740Y-123619540D01*
X208297730Y-123619536D01*
X207857130Y-123463863D01*
X207857128Y-123463862D01*
X207857124Y-123463861D01*
X207404887Y-123346108D01*
X207404886Y-123346107D01*
X207404879Y-123346106D01*
X206944301Y-123267132D01*
X206944284Y-123267129D01*
X206478677Y-123227501D01*
X206478663Y-123227500D01*
X206478658Y-123227500D01*
X206011342Y-123227500D01*
X206011336Y-123227500D01*
X206011322Y-123227501D01*
X205545715Y-123267129D01*
X205545698Y-123267132D01*
X205085121Y-123346106D01*
X205085120Y-123346106D01*
X205038112Y-123358346D01*
X204632876Y-123463861D01*
X204632870Y-123463863D01*
X204632868Y-123463863D01*
X204192269Y-123619536D01*
X204192259Y-123619540D01*
X203766429Y-123812028D01*
X203766414Y-123812035D01*
X203358455Y-124039934D01*
X203358454Y-124039934D01*
X202971271Y-124301624D01*
X202971268Y-124301626D01*
X202607676Y-124595207D01*
X202607672Y-124595211D01*
X202270300Y-124918555D01*
X201961561Y-125269350D01*
X201961556Y-125269356D01*
X201961554Y-125269359D01*
X201872054Y-125390371D01*
X201683665Y-125645090D01*
X201683664Y-125645092D01*
X201438654Y-126043015D01*
X201228266Y-126460294D01*
X201228266Y-126460296D01*
X201054023Y-126893915D01*
X200917187Y-127340732D01*
X200917182Y-127340754D01*
X200818728Y-127797578D01*
X200759372Y-128261100D01*
X200759370Y-128261113D01*
X200739539Y-128727989D01*
X193574359Y-128727989D01*
X193794825Y-128507523D01*
X195373450Y-126928896D01*
X195487151Y-126843781D01*
X195620226Y-126794147D01*
X195648236Y-126788886D01*
X195652305Y-126788241D01*
X195838794Y-126758705D01*
X196193199Y-126663742D01*
X196535736Y-126532255D01*
X196862652Y-126365682D01*
X197170366Y-126165851D01*
X197244334Y-126105953D01*
X197455496Y-125934958D01*
X197455513Y-125934942D01*
X197714942Y-125675513D01*
X197714958Y-125675496D01*
X197945847Y-125390371D01*
X197945849Y-125390368D01*
X197945851Y-125390366D01*
X198145682Y-125082652D01*
X198312255Y-124755736D01*
X198443742Y-124413199D01*
X198538705Y-124058794D01*
X198596102Y-123696404D01*
X198613179Y-123370530D01*
X198615304Y-123330002D01*
X198615304Y-123329997D01*
X198609932Y-123227500D01*
X198596102Y-122963596D01*
X198592666Y-122941905D01*
X198538705Y-122601206D01*
X198494279Y-122435408D01*
X198443742Y-122246801D01*
X198312255Y-121904264D01*
X198145682Y-121577348D01*
X197945851Y-121269634D01*
X197945849Y-121269631D01*
X197945847Y-121269628D01*
X197714958Y-120984503D01*
X197714942Y-120984486D01*
X197455513Y-120725057D01*
X197455496Y-120725041D01*
X197170371Y-120494152D01*
X197170368Y-120494150D01*
X196862651Y-120294317D01*
X196699238Y-120211054D01*
X196535736Y-120127745D01*
X196193199Y-119996258D01*
X196193197Y-119996257D01*
X196193196Y-119996257D01*
X195838793Y-119901294D01*
X195659239Y-119872856D01*
X195523548Y-119830900D01*
X195405173Y-119752414D01*
X195313706Y-119643757D01*
X195256555Y-119513733D01*
X195238352Y-119372874D01*
X195260571Y-119232592D01*
X195321411Y-119104253D01*
X195415945Y-118998253D01*
X195536512Y-118923180D01*
X195659239Y-118887144D01*
X195769286Y-118869713D01*
X195838794Y-118858705D01*
X196193199Y-118763742D01*
X196535736Y-118632255D01*
X196862652Y-118465682D01*
X197164468Y-118269680D01*
X197271431Y-118217183D01*
X197302051Y-118206469D01*
X197605686Y-118060246D01*
X197605690Y-118060243D01*
X197605695Y-118060241D01*
X197751340Y-117968724D01*
X197891039Y-117880946D01*
X197913368Y-117863138D01*
X197941016Y-117841092D01*
X198058258Y-117747594D01*
X198154523Y-117670825D01*
X198392825Y-117432523D01*
X203550340Y-112275006D01*
X203664037Y-112189894D01*
X203674154Y-112184369D01*
X203674161Y-112184367D01*
X203925315Y-112047226D01*
X204154395Y-111875739D01*
X204356739Y-111673395D01*
X204528226Y-111444315D01*
X204665367Y-111193161D01*
X204722828Y-111039098D01*
X204767851Y-110947998D01*
X204852246Y-110813686D01*
X204998469Y-110510051D01*
X204998476Y-110510029D01*
X205003829Y-110497110D01*
X205006185Y-110498086D01*
X205060880Y-110392852D01*
X205113540Y-110330806D01*
X208780825Y-106663523D01*
X208990946Y-106400039D01*
X209170247Y-106114685D01*
X209316469Y-105811051D01*
X209322804Y-105792946D01*
X209330965Y-105769625D01*
X209351848Y-105709944D01*
X209427776Y-105492954D01*
X209463115Y-105338123D01*
X209502767Y-105164395D01*
X209534461Y-104883104D01*
X209534461Y-104883103D01*
X209534462Y-104883098D01*
X209540500Y-104829505D01*
X209540500Y-104492495D01*
X209540500Y-78711496D01*
X209521678Y-78544448D01*
X209502767Y-78376605D01*
X209427777Y-78048049D01*
X209427776Y-78048045D01*
X209396838Y-77959632D01*
X209396837Y-77959628D01*
X209316469Y-77729948D01*
X209170246Y-77426314D01*
X208990946Y-77140960D01*
X208990944Y-77140957D01*
X208990940Y-77140951D01*
X208780831Y-76877485D01*
X208780824Y-76877476D01*
X207018524Y-75115176D01*
X207018520Y-75115173D01*
X207018517Y-75115170D01*
X206755043Y-74905057D01*
X206755027Y-74905046D01*
X206469695Y-74725758D01*
X206351073Y-74668633D01*
X206166051Y-74579531D01*
X205847954Y-74468224D01*
X205847949Y-74468222D01*
X205847940Y-74468220D01*
X205519393Y-74393232D01*
X205519396Y-74393232D01*
X205184513Y-74355500D01*
X205184505Y-74355500D01*
X204847495Y-74355500D01*
X204833494Y-74355500D01*
X204833494Y-74353040D01*
X204714650Y-74342692D01*
X204582357Y-74291007D01*
X204469986Y-74204144D01*
X204386638Y-74089141D01*
X204339066Y-73955314D01*
X204331125Y-73813506D01*
X204363457Y-73675205D01*
X204433444Y-73551615D01*
X204475393Y-73503953D01*
X204704073Y-73275272D01*
X204704081Y-73275266D01*
X204732520Y-73246826D01*
X204732523Y-73246825D01*
X204970825Y-73008523D01*
X205180946Y-72745039D01*
X205256966Y-72624055D01*
X205360247Y-72459685D01*
X205506469Y-72156051D01*
X205526259Y-72099495D01*
X205617776Y-71837954D01*
X205692767Y-71509394D01*
X205713693Y-71323669D01*
X205730500Y-71174505D01*
X205730500Y-70837495D01*
X205730500Y-65376496D01*
X205715680Y-65244969D01*
X205715680Y-65244963D01*
X205692767Y-65041605D01*
X205617779Y-64713059D01*
X205617778Y-64713058D01*
X205617776Y-64713046D01*
X205506469Y-64394949D01*
X205360246Y-64091314D01*
X205360245Y-64091312D01*
X205360241Y-64091304D01*
X205180947Y-63805963D01*
X205180942Y-63805956D01*
X205113167Y-63720968D01*
X204970830Y-63542483D01*
X204970820Y-63542472D01*
X204732523Y-63304175D01*
X202446532Y-61018183D01*
X202446524Y-61018175D01*
X202403069Y-60983522D01*
X202403067Y-60983521D01*
X202183035Y-60808051D01*
X201897695Y-60628758D01*
X201728763Y-60547405D01*
X201594051Y-60482531D01*
X201412690Y-60419070D01*
X201286671Y-60353559D01*
X201184213Y-60255197D01*
X201113616Y-60131955D01*
X201080601Y-59993815D01*
X201078500Y-59948072D01*
X201078500Y-58899495D01*
X201078499Y-58899487D01*
X201040767Y-58564605D01*
X200965779Y-58236059D01*
X200965778Y-58236058D01*
X200965776Y-58236046D01*
X200854469Y-57917949D01*
X200708246Y-57614314D01*
X200708245Y-57614312D01*
X200708241Y-57614304D01*
X200528953Y-57328972D01*
X200528947Y-57328963D01*
X200528946Y-57328961D01*
X200369863Y-57129477D01*
X200318830Y-57065483D01*
X200318820Y-57065472D01*
X200080524Y-56827176D01*
X200080516Y-56827169D01*
X199817043Y-56617057D01*
X199817027Y-56617046D01*
X199531695Y-56437758D01*
X199410124Y-56379213D01*
X199228051Y-56291531D01*
X198909954Y-56180224D01*
X198909949Y-56180222D01*
X198909940Y-56180220D01*
X198581393Y-56105232D01*
X198581396Y-56105232D01*
X198246512Y-56067500D01*
X198246504Y-56067500D01*
X197909496Y-56067500D01*
X197909487Y-56067500D01*
X197574605Y-56105232D01*
X197246059Y-56180220D01*
X197246043Y-56180225D01*
X196927954Y-56291529D01*
X196927952Y-56291529D01*
X196927949Y-56291531D01*
X196895354Y-56307228D01*
X196624304Y-56437758D01*
X196338972Y-56617046D01*
X196338956Y-56617057D01*
X196075483Y-56827169D01*
X195930846Y-56971806D01*
X195817145Y-57056922D01*
X195684070Y-57106556D01*
X195542402Y-57116689D01*
X195403617Y-57086498D01*
X195278960Y-57018430D01*
X195225154Y-56971806D01*
X195080524Y-56827176D01*
X195080516Y-56827169D01*
X194817043Y-56617057D01*
X194817027Y-56617046D01*
X194531695Y-56437758D01*
X194410124Y-56379213D01*
X194228051Y-56291531D01*
X193909954Y-56180224D01*
X193909949Y-56180222D01*
X193909940Y-56180220D01*
X193581393Y-56105232D01*
X193581396Y-56105232D01*
X193246512Y-56067500D01*
X193246504Y-56067500D01*
X186559496Y-56067500D01*
X186559487Y-56067500D01*
X186224613Y-56105231D01*
X186162398Y-56119431D01*
X186109322Y-56128563D01*
X186105180Y-56129047D01*
X186105173Y-56129048D01*
X185806341Y-56199873D01*
X185664885Y-56212626D01*
X185525565Y-56185010D01*
X185516882Y-56181862D01*
X185476044Y-56166630D01*
X185196435Y-56105805D01*
X185196423Y-56105803D01*
X185070242Y-56096778D01*
X184941034Y-56070048D01*
X184933752Y-56067500D01*
X184892954Y-56053224D01*
X184892949Y-56053222D01*
X184892940Y-56053220D01*
X184564393Y-55978232D01*
X184564396Y-55978232D01*
X184229513Y-55940500D01*
X184229505Y-55940500D01*
X183892495Y-55940500D01*
X183892486Y-55940500D01*
X183557607Y-55978232D01*
X183229056Y-56053221D01*
X183229045Y-56053224D01*
X183193793Y-56065559D01*
X183180966Y-56070048D01*
X183180960Y-56070050D01*
X183051757Y-56096778D01*
X182925576Y-56105803D01*
X182925567Y-56105804D01*
X182859872Y-56120096D01*
X182753801Y-56131500D01*
X177367943Y-56131500D01*
X177227358Y-56111287D01*
X177098163Y-56052286D01*
X176990824Y-55959276D01*
X176918362Y-55849012D01*
X176912248Y-55836316D01*
X176912244Y-55836309D01*
X176732953Y-55550972D01*
X176732951Y-55550970D01*
X176732946Y-55550961D01*
X176522825Y-55287477D01*
X176284523Y-55049175D01*
X176284522Y-55049174D01*
X176274759Y-55039411D01*
X176274740Y-55039393D01*
X174379528Y-53144180D01*
X174379522Y-53144175D01*
X174379520Y-53144173D01*
X174379517Y-53144170D01*
X174116043Y-52934057D01*
X174116027Y-52934046D01*
X173830695Y-52754758D01*
X173747767Y-52714822D01*
X173527051Y-52608531D01*
X173208954Y-52497224D01*
X173208949Y-52497222D01*
X173208940Y-52497220D01*
X172880393Y-52422232D01*
X172880396Y-52422232D01*
X172545513Y-52384500D01*
X172545505Y-52384500D01*
X172545504Y-52384500D01*
X167084505Y-52384500D01*
X166747495Y-52384500D01*
X166747486Y-52384500D01*
X166412605Y-52422232D01*
X166084059Y-52497220D01*
X166084043Y-52497225D01*
X165765951Y-52608529D01*
X165765949Y-52608531D01*
X165462313Y-52754753D01*
X165176964Y-52934051D01*
X165176956Y-52934057D01*
X164913483Y-53144169D01*
X164913472Y-53144179D01*
X163018259Y-55039393D01*
X161230477Y-56827175D01*
X161155540Y-56902112D01*
X160992175Y-57065476D01*
X160981704Y-57078607D01*
X160947779Y-57121149D01*
X160941140Y-57129474D01*
X160941137Y-57129477D01*
X160782058Y-57328954D01*
X160782052Y-57328963D01*
X160602758Y-57614304D01*
X160553698Y-57716179D01*
X160466563Y-57897119D01*
X160456529Y-57917954D01*
X160345225Y-58236043D01*
X160345220Y-58236059D01*
X160270232Y-58564605D01*
X160242927Y-58806950D01*
X160242927Y-58806952D01*
X160232500Y-58899491D01*
X160232500Y-63692460D01*
X160212287Y-63833045D01*
X160153286Y-63962240D01*
X160060276Y-64069579D01*
X159940792Y-64146366D01*
X159804515Y-64186381D01*
X159662485Y-64186381D01*
X159526208Y-64146366D01*
X159406724Y-64069579D01*
X159380654Y-64045306D01*
X159012528Y-63677180D01*
X159012517Y-63677170D01*
X158749043Y-63467057D01*
X158749027Y-63467046D01*
X158463695Y-63287758D01*
X158380767Y-63247822D01*
X158160051Y-63141531D01*
X157841954Y-63030224D01*
X157841949Y-63030222D01*
X157841940Y-63030220D01*
X157513393Y-62955232D01*
X157513396Y-62955232D01*
X157178513Y-62917500D01*
X157178505Y-62917500D01*
X156841495Y-62917500D01*
X156841486Y-62917500D01*
X156506605Y-62955232D01*
X156178059Y-63030220D01*
X156178043Y-63030225D01*
X155859954Y-63141529D01*
X155859952Y-63141529D01*
X155859949Y-63141531D01*
X155823145Y-63159255D01*
X155556304Y-63287758D01*
X155270972Y-63467046D01*
X155270958Y-63467056D01*
X155232620Y-63497630D01*
X155110104Y-63569479D01*
X154972308Y-63603902D01*
X154830396Y-63598108D01*
X154695865Y-63552568D01*
X154579613Y-63470970D01*
X154491059Y-63359926D01*
X154437377Y-63228432D01*
X154422500Y-63107495D01*
X154422500Y-61109402D01*
X154442713Y-60968817D01*
X154501714Y-60839622D01*
X154594724Y-60732283D01*
X154660792Y-60683923D01*
X154664285Y-60681782D01*
X154849240Y-60547405D01*
X155010905Y-60385740D01*
X155145286Y-60200780D01*
X155145288Y-60200775D01*
X155249083Y-59997067D01*
X155249086Y-59997059D01*
X155283222Y-59892000D01*
X154921500Y-59892000D01*
X154780915Y-59871787D01*
X154651720Y-59812786D01*
X154544381Y-59719776D01*
X154467594Y-59600292D01*
X154440925Y-59509469D01*
X154453000Y-59464409D01*
X154453000Y-59319591D01*
X154439832Y-59270449D01*
X154442713Y-59250415D01*
X154501714Y-59121220D01*
X154594724Y-59013881D01*
X154714208Y-58937094D01*
X154850485Y-58897079D01*
X154921500Y-58892000D01*
X155283222Y-58892000D01*
X155249086Y-58786940D01*
X155249083Y-58786932D01*
X155145288Y-58583224D01*
X155145286Y-58583219D01*
X155010905Y-58398259D01*
X154849240Y-58236594D01*
X154664280Y-58102213D01*
X154664275Y-58102211D01*
X154460565Y-57998416D01*
X154460562Y-57998414D01*
X154322552Y-57953573D01*
X154195094Y-57890906D01*
X154090454Y-57794869D01*
X154054235Y-57744480D01*
X154036454Y-57716182D01*
X153872946Y-57455961D01*
X153662825Y-57192477D01*
X153424523Y-56954175D01*
X153424519Y-56954172D01*
X153424516Y-56954169D01*
X153161043Y-56744057D01*
X153161027Y-56744046D01*
X152875695Y-56564758D01*
X152792767Y-56524822D01*
X152572051Y-56418531D01*
X152253954Y-56307224D01*
X152253949Y-56307222D01*
X152253940Y-56307220D01*
X151925393Y-56232232D01*
X151925396Y-56232232D01*
X151590512Y-56194500D01*
X151590504Y-56194500D01*
X151253496Y-56194500D01*
X151253487Y-56194500D01*
X150918605Y-56232232D01*
X150590059Y-56307220D01*
X150590036Y-56307226D01*
X150344812Y-56393034D01*
X150205440Y-56420387D01*
X150073948Y-56409635D01*
X150060945Y-56406806D01*
X150060929Y-56406804D01*
X150060928Y-56406804D01*
X150060925Y-56406803D01*
X150060918Y-56406803D01*
X150048895Y-56405943D01*
X149919687Y-56379213D01*
X149713965Y-56307228D01*
X149713954Y-56307224D01*
X149713949Y-56307222D01*
X149713940Y-56307220D01*
X149385393Y-56232232D01*
X149385396Y-56232232D01*
X149050513Y-56194500D01*
X149050505Y-56194500D01*
X148713495Y-56194500D01*
X148713486Y-56194500D01*
X148378605Y-56232232D01*
X148050059Y-56307220D01*
X148050030Y-56307228D01*
X147874625Y-56368605D01*
X147745418Y-56395335D01*
X147585072Y-56406803D01*
X147585066Y-56406804D01*
X147305456Y-56467629D01*
X147037338Y-56567633D01*
X146786187Y-56704772D01*
X146786182Y-56704776D01*
X146557107Y-56876258D01*
X146354758Y-57078607D01*
X146183276Y-57307682D01*
X146183272Y-57307687D01*
X146046132Y-57558838D01*
X146046131Y-57558841D01*
X145948035Y-57821845D01*
X145879967Y-57946501D01*
X145833344Y-58000306D01*
X144847477Y-58986175D01*
X144779360Y-59054292D01*
X144609175Y-59224476D01*
X144548548Y-59300502D01*
X144548545Y-59300505D01*
X144399058Y-59487954D01*
X144399052Y-59487963D01*
X144219758Y-59773304D01*
X144073529Y-60076954D01*
X143962225Y-60395043D01*
X143962220Y-60395059D01*
X143887232Y-60723606D01*
X143851563Y-61040186D01*
X143851562Y-61040199D01*
X143849500Y-61058496D01*
X143849500Y-61058501D01*
X143849500Y-71166511D01*
X143878733Y-71425956D01*
X143878733Y-71425958D01*
X143887231Y-71501387D01*
X143887234Y-71501402D01*
X143962220Y-71829940D01*
X143962222Y-71829949D01*
X143962224Y-71829954D01*
X144073531Y-72148051D01*
X144179822Y-72368767D01*
X144219758Y-72451695D01*
X144399046Y-72737027D01*
X144399049Y-72737032D01*
X144399051Y-72737035D01*
X144399054Y-72737039D01*
X144575932Y-72958838D01*
X144575934Y-72958840D01*
X144609173Y-73000521D01*
X144609175Y-73000523D01*
X144609176Y-73000524D01*
X144973348Y-73364696D01*
X145058461Y-73478394D01*
X145108096Y-73611469D01*
X145119500Y-73717540D01*
X145119500Y-74976512D01*
X145157232Y-75311394D01*
X145232220Y-75639940D01*
X145232222Y-75639949D01*
X145232224Y-75639954D01*
X145343531Y-75958051D01*
X145383680Y-76041421D01*
X145489758Y-76261695D01*
X145669046Y-76547027D01*
X145669057Y-76547043D01*
X145879169Y-76810516D01*
X145879179Y-76810527D01*
X146117472Y-77048820D01*
X146117483Y-77048830D01*
X146351301Y-77235293D01*
X146380961Y-77258946D01*
X146380966Y-77258949D01*
X146392379Y-77267047D01*
X146390588Y-77269570D01*
X146478098Y-77343819D01*
X146556124Y-77462497D01*
X146597554Y-77598350D01*
X146599032Y-77740372D01*
X146560437Y-77877058D01*
X146484897Y-77997334D01*
X146378532Y-78091456D01*
X146249957Y-78151798D01*
X146109591Y-78173473D01*
X146104399Y-78173500D01*
X142719540Y-78173500D01*
X142578955Y-78153287D01*
X142449760Y-78094286D01*
X142366694Y-78027346D01*
X139835523Y-75496175D01*
X139831146Y-75492685D01*
X139831146Y-75492683D01*
X139831122Y-75492666D01*
X139572045Y-75286058D01*
X139572036Y-75286052D01*
X139286695Y-75106758D01*
X139203767Y-75066822D01*
X138983051Y-74960531D01*
X138664954Y-74849224D01*
X138664949Y-74849222D01*
X138664940Y-74849220D01*
X138336402Y-74774234D01*
X138336394Y-74774233D01*
X138090257Y-74746500D01*
X138090253Y-74746499D01*
X138090252Y-74746499D01*
X138001508Y-74736500D01*
X138001505Y-74736500D01*
X138001504Y-74736500D01*
X134982500Y-74736500D01*
X134841915Y-74716287D01*
X134712720Y-74657286D01*
X134605381Y-74564276D01*
X134528594Y-74444792D01*
X134488579Y-74308515D01*
X134483500Y-74237500D01*
X134483500Y-67104179D01*
X134503713Y-66963594D01*
X134514963Y-66929795D01*
X134607368Y-66682049D01*
X134607369Y-66682044D01*
X134623874Y-66606175D01*
X134668196Y-66402428D01*
X134683500Y-66188448D01*
X134683500Y-63645552D01*
X134668196Y-63431572D01*
X134656017Y-63375584D01*
X134607370Y-63151956D01*
X134564488Y-63036987D01*
X134507367Y-62883839D01*
X134370226Y-62632685D01*
X134234598Y-62451507D01*
X134198741Y-62403607D01*
X133996392Y-62201258D01*
X133807824Y-62060099D01*
X133767315Y-62029774D01*
X133767313Y-62029773D01*
X133767312Y-62029772D01*
X133516161Y-61892633D01*
X133248043Y-61792629D01*
X132968436Y-61731805D01*
X132968430Y-61731804D01*
X132968428Y-61731804D01*
X132754448Y-61716500D01*
X130211552Y-61716500D01*
X129997572Y-61731804D01*
X129997569Y-61731804D01*
X129997563Y-61731805D01*
X129717956Y-61792629D01*
X129449838Y-61892633D01*
X129198687Y-62029772D01*
X129198682Y-62029776D01*
X128969607Y-62201258D01*
X128767258Y-62403607D01*
X128595776Y-62632682D01*
X128595772Y-62632687D01*
X128458633Y-62883838D01*
X128358629Y-63151956D01*
X128297805Y-63431563D01*
X128297804Y-63431569D01*
X128297804Y-63431572D01*
X128282500Y-63645552D01*
X128282500Y-66188448D01*
X128297804Y-66402428D01*
X128297805Y-66402436D01*
X128358630Y-66682044D01*
X128358631Y-66682049D01*
X128451037Y-66929795D01*
X128481228Y-67068579D01*
X128482500Y-67104179D01*
X128482500Y-74237500D01*
X128462287Y-74378085D01*
X128403286Y-74507280D01*
X128310276Y-74614619D01*
X128190792Y-74691406D01*
X128054515Y-74731421D01*
X127983500Y-74736500D01*
X119613326Y-74736500D01*
X119472741Y-74716287D01*
X119343546Y-74657286D01*
X119236207Y-74564276D01*
X119159420Y-74444792D01*
X119133828Y-74375639D01*
X119130778Y-74365052D01*
X119110995Y-74308515D01*
X119019469Y-74046949D01*
X118873246Y-73743314D01*
X118873245Y-73743312D01*
X118873241Y-73743304D01*
X118693953Y-73457972D01*
X118693951Y-73457970D01*
X118693946Y-73457961D01*
X118483825Y-73194477D01*
X118245523Y-72956175D01*
X118245519Y-72956172D01*
X118245516Y-72956169D01*
X117982043Y-72746057D01*
X117982027Y-72746046D01*
X117696695Y-72566758D01*
X117613767Y-72526822D01*
X117393051Y-72420531D01*
X117074954Y-72309224D01*
X117074949Y-72309222D01*
X117074940Y-72309220D01*
X116746393Y-72234232D01*
X116746396Y-72234232D01*
X116411512Y-72196500D01*
X116411504Y-72196500D01*
X116074496Y-72196500D01*
X116074487Y-72196500D01*
X115739605Y-72234232D01*
X115411059Y-72309220D01*
X115411043Y-72309225D01*
X115092954Y-72420529D01*
X115092952Y-72420529D01*
X115092949Y-72420531D01*
X115011647Y-72459684D01*
X114789304Y-72566758D01*
X114503972Y-72746046D01*
X114503956Y-72746057D01*
X114240483Y-72956169D01*
X114240472Y-72956179D01*
X114002179Y-73194472D01*
X114002169Y-73194483D01*
X113792057Y-73457956D01*
X113792046Y-73457972D01*
X113612758Y-73743304D01*
X113466529Y-74046954D01*
X113355225Y-74365043D01*
X113355221Y-74365056D01*
X113302486Y-74596104D01*
X113251497Y-74728666D01*
X113165226Y-74841493D01*
X113050662Y-74925444D01*
X112917088Y-74973719D01*
X112775323Y-74982406D01*
X112636854Y-74950801D01*
X112512898Y-74881465D01*
X112413497Y-74780015D01*
X112363749Y-74695952D01*
X112293134Y-74544518D01*
X112162659Y-74358180D01*
X112001819Y-74197340D01*
X111815479Y-74066864D01*
X111663000Y-73995761D01*
X111663000Y-76398235D01*
X111815481Y-76327134D01*
X111815482Y-76327133D01*
X112001819Y-76196659D01*
X112162659Y-76035819D01*
X112293136Y-75849478D01*
X112304028Y-75830614D01*
X112305626Y-75831536D01*
X112368982Y-75734650D01*
X112477055Y-75642494D01*
X112606714Y-75584518D01*
X112747455Y-75565420D01*
X112887874Y-75586746D01*
X113016598Y-75646770D01*
X113123197Y-75740627D01*
X113199035Y-75860716D01*
X113237968Y-75997305D01*
X113242500Y-76064404D01*
X113242500Y-76287460D01*
X113222287Y-76428045D01*
X113163286Y-76557240D01*
X113096346Y-76640306D01*
X108922179Y-80814472D01*
X108922169Y-80814483D01*
X108734734Y-81049521D01*
X108734732Y-81049523D01*
X108712056Y-81077956D01*
X108532755Y-81363311D01*
X108532754Y-81363314D01*
X108392857Y-81653814D01*
X108386529Y-81666954D01*
X108275225Y-81985043D01*
X108275221Y-81985055D01*
X108230683Y-82180192D01*
X108179694Y-82312754D01*
X108093423Y-82425581D01*
X107978860Y-82509532D01*
X107845285Y-82557807D01*
X107703521Y-82566494D01*
X107565052Y-82534889D01*
X107441096Y-82465553D01*
X107391348Y-82422000D01*
X105625526Y-80656178D01*
X105625515Y-80656168D01*
X105603982Y-80638997D01*
X105603973Y-80638990D01*
X105362045Y-80446058D01*
X105362036Y-80446052D01*
X105076695Y-80266758D01*
X104983753Y-80222000D01*
X104773051Y-80120531D01*
X104454954Y-80009224D01*
X104454946Y-80009222D01*
X104441496Y-80005347D01*
X104442115Y-80003195D01*
X104329348Y-79959810D01*
X104216528Y-79873529D01*
X104132586Y-79758959D01*
X104084323Y-79625380D01*
X104075648Y-79483615D01*
X104081035Y-79440743D01*
X104088858Y-79394696D01*
X104088859Y-79394693D01*
X104108385Y-79047000D01*
X104106924Y-79020993D01*
X104088859Y-78699307D01*
X104049819Y-78469532D01*
X104030527Y-78355987D01*
X103996739Y-78238708D01*
X103934121Y-78021356D01*
X103934119Y-78021350D01*
X103813416Y-77729950D01*
X103800855Y-77699624D01*
X103656397Y-77438246D01*
X103632407Y-77394839D01*
X103632404Y-77394834D01*
X103578984Y-77319547D01*
X103430888Y-77110824D01*
X103198839Y-76851161D01*
X103060794Y-76727796D01*
X102939178Y-76619113D01*
X102813242Y-76529757D01*
X102710284Y-76431920D01*
X102639060Y-76309039D01*
X102605341Y-76171070D01*
X102603000Y-76122793D01*
X102603000Y-75697000D01*
X109961762Y-75697000D01*
X110032864Y-75849479D01*
X110163340Y-76035819D01*
X110324180Y-76196659D01*
X110510517Y-76327133D01*
X110510518Y-76327134D01*
X110663000Y-76398236D01*
X110663000Y-75697000D01*
X109961762Y-75697000D01*
X102603000Y-75697000D01*
X101336973Y-75697000D01*
X101371408Y-75677119D01*
X101483119Y-75565408D01*
X101562111Y-75428591D01*
X101603000Y-75275991D01*
X101603000Y-75144339D01*
X110763000Y-75144339D01*
X110763000Y-75249661D01*
X110790259Y-75351394D01*
X110842920Y-75442606D01*
X110917394Y-75517080D01*
X111008606Y-75569741D01*
X111110339Y-75597000D01*
X111215661Y-75597000D01*
X111317394Y-75569741D01*
X111408606Y-75517080D01*
X111483080Y-75442606D01*
X111535741Y-75351394D01*
X111563000Y-75249661D01*
X111563000Y-75144339D01*
X111535741Y-75042606D01*
X111483080Y-74951394D01*
X111408606Y-74876920D01*
X111317394Y-74824259D01*
X111215661Y-74797000D01*
X111110339Y-74797000D01*
X111008606Y-74824259D01*
X110917394Y-74876920D01*
X110842920Y-74951394D01*
X110790259Y-75042606D01*
X110763000Y-75144339D01*
X101603000Y-75144339D01*
X101603000Y-75118009D01*
X101562111Y-74965409D01*
X101483119Y-74828592D01*
X101371408Y-74716881D01*
X101336973Y-74697000D01*
X101503000Y-74697000D01*
X102603000Y-74697000D01*
X109961762Y-74697000D01*
X110663000Y-74697000D01*
X110663000Y-73995761D01*
X110510520Y-74066864D01*
X110324180Y-74197340D01*
X110163340Y-74358180D01*
X110032864Y-74544520D01*
X109961762Y-74697000D01*
X102603000Y-74697000D01*
X102603000Y-74049175D01*
X102596597Y-73989625D01*
X102546352Y-73854910D01*
X102546351Y-73854909D01*
X102460188Y-73739811D01*
X102345090Y-73653648D01*
X102345089Y-73653647D01*
X102210374Y-73603402D01*
X102150825Y-73597000D01*
X101503000Y-73597000D01*
X101503000Y-74697000D01*
X101336973Y-74697000D01*
X101234591Y-74637889D01*
X101081991Y-74597000D01*
X100924009Y-74597000D01*
X100771409Y-74637889D01*
X100634592Y-74716881D01*
X100522881Y-74828592D01*
X100443889Y-74965409D01*
X100403000Y-75118009D01*
X100403000Y-75275991D01*
X100443889Y-75428591D01*
X100522881Y-75565408D01*
X100634592Y-75677119D01*
X100669027Y-75697000D01*
X99402999Y-75697000D01*
X99358304Y-75741694D01*
X99323786Y-75817280D01*
X99230776Y-75924619D01*
X99111292Y-76001406D01*
X98975015Y-76041421D01*
X98904000Y-76046500D01*
X98682540Y-76046500D01*
X98541955Y-76026287D01*
X98412760Y-75967286D01*
X98329694Y-75900346D01*
X97799654Y-75370306D01*
X97714538Y-75256605D01*
X97664904Y-75123530D01*
X97653500Y-75017460D01*
X97653500Y-74049175D01*
X99403000Y-74049175D01*
X99403000Y-74697000D01*
X100503000Y-74697000D01*
X100503000Y-73597000D01*
X99855175Y-73597000D01*
X99795625Y-73603402D01*
X99660910Y-73653647D01*
X99660909Y-73653648D01*
X99545811Y-73739811D01*
X99459648Y-73854909D01*
X99459647Y-73854910D01*
X99409402Y-73989625D01*
X99403000Y-74049175D01*
X97653500Y-74049175D01*
X97653500Y-71076500D01*
X97673713Y-70935915D01*
X97732714Y-70806720D01*
X97825724Y-70699381D01*
X97945208Y-70622594D01*
X98081485Y-70582579D01*
X98152500Y-70577500D01*
X108791505Y-70577500D01*
X109126394Y-70539767D01*
X109454954Y-70464776D01*
X109773051Y-70353469D01*
X110076686Y-70207246D01*
X110076690Y-70207243D01*
X110076695Y-70207241D01*
X110233083Y-70108974D01*
X110362039Y-70027946D01*
X110480704Y-69933314D01*
X110625523Y-69817825D01*
X110863825Y-69579523D01*
X118483824Y-61959524D01*
X118693946Y-61696040D01*
X118873246Y-61410686D01*
X119019469Y-61107051D01*
X119130776Y-60788954D01*
X119205767Y-60460395D01*
X119243500Y-60125505D01*
X119243500Y-59788495D01*
X119205767Y-59453606D01*
X119130776Y-59125047D01*
X119059163Y-58920388D01*
X130686718Y-58920388D01*
X130860176Y-59003921D01*
X131103656Y-59079025D01*
X131355607Y-59117000D01*
X131610393Y-59117000D01*
X131862343Y-59079025D01*
X132105825Y-59003920D01*
X132279281Y-58920389D01*
X132279281Y-58920388D01*
X131483001Y-58124107D01*
X130686718Y-58920388D01*
X119059163Y-58920388D01*
X119019469Y-58806949D01*
X118873246Y-58503315D01*
X118693946Y-58217961D01*
X118693944Y-58217958D01*
X118693940Y-58217952D01*
X118483831Y-57954486D01*
X118483824Y-57954477D01*
X118245523Y-57716176D01*
X118188981Y-57671085D01*
X117982047Y-57506059D01*
X117840311Y-57417000D01*
X129778233Y-57417000D01*
X129797274Y-57671085D01*
X129797275Y-57671090D01*
X129853970Y-57919485D01*
X129853971Y-57919487D01*
X129947057Y-58156670D01*
X129979693Y-58213197D01*
X129979695Y-58213198D01*
X130775893Y-57417000D01*
X130696902Y-57338009D01*
X130883000Y-57338009D01*
X130883000Y-57495991D01*
X130923889Y-57648591D01*
X131002881Y-57785408D01*
X131114592Y-57897119D01*
X131251409Y-57976111D01*
X131404009Y-58017000D01*
X131561991Y-58017000D01*
X131714591Y-57976111D01*
X131851408Y-57897119D01*
X131963119Y-57785408D01*
X132042111Y-57648591D01*
X132083000Y-57495991D01*
X132083000Y-57417000D01*
X132190107Y-57417000D01*
X132986304Y-58213197D01*
X132986305Y-58213197D01*
X133018939Y-58156674D01*
X133018946Y-58156661D01*
X133112026Y-57919494D01*
X133112029Y-57919485D01*
X133168724Y-57671090D01*
X133168725Y-57671085D01*
X133187766Y-57417000D01*
X133168725Y-57162914D01*
X133168724Y-57162909D01*
X133112029Y-56914514D01*
X133112026Y-56914505D01*
X133018943Y-56677332D01*
X133018941Y-56677327D01*
X132986305Y-56620801D01*
X132190107Y-57417000D01*
X132083000Y-57417000D01*
X132083000Y-57338009D01*
X132042111Y-57185409D01*
X131963119Y-57048592D01*
X131851408Y-56936881D01*
X131714591Y-56857889D01*
X131561991Y-56817000D01*
X131404009Y-56817000D01*
X131251409Y-56857889D01*
X131114592Y-56936881D01*
X131002881Y-57048592D01*
X130923889Y-57185409D01*
X130883000Y-57338009D01*
X130696902Y-57338009D01*
X129979694Y-56620801D01*
X129979693Y-56620801D01*
X129947056Y-56677331D01*
X129853973Y-56914505D01*
X129853970Y-56914514D01*
X129797275Y-57162909D01*
X129797274Y-57162914D01*
X129778233Y-57417000D01*
X117840311Y-57417000D01*
X117696684Y-57326753D01*
X117584875Y-57272909D01*
X117393051Y-57180531D01*
X117101768Y-57078607D01*
X117074956Y-57069225D01*
X117074943Y-57069221D01*
X116746392Y-56994232D01*
X116411513Y-56956500D01*
X116411505Y-56956500D01*
X116074495Y-56956500D01*
X116074486Y-56956500D01*
X115739606Y-56994232D01*
X115411055Y-57069221D01*
X115411043Y-57069225D01*
X115092954Y-57180529D01*
X115092952Y-57180529D01*
X115092949Y-57180531D01*
X114947694Y-57250481D01*
X114789311Y-57326755D01*
X114503951Y-57506059D01*
X114240485Y-57716168D01*
X114240469Y-57716182D01*
X112394651Y-59561999D01*
X112280950Y-59647115D01*
X112147875Y-59696749D01*
X112006206Y-59706882D01*
X111867422Y-59676691D01*
X111742765Y-59608623D01*
X111642335Y-59508192D01*
X111574267Y-59383535D01*
X111555316Y-59320189D01*
X111510780Y-59125062D01*
X111510778Y-59125056D01*
X111510776Y-59125046D01*
X111399469Y-58806949D01*
X111253246Y-58503314D01*
X111253245Y-58503312D01*
X111253241Y-58503304D01*
X111073953Y-58217972D01*
X111073951Y-58217970D01*
X111073946Y-58217961D01*
X110913685Y-58017000D01*
X110863830Y-57954483D01*
X110863820Y-57954472D01*
X110625527Y-57716179D01*
X110625516Y-57716169D01*
X110362043Y-57506057D01*
X110362027Y-57506046D01*
X110076695Y-57326758D01*
X109993767Y-57286822D01*
X109773051Y-57180531D01*
X109454954Y-57069224D01*
X109454949Y-57069222D01*
X109454940Y-57069220D01*
X109126393Y-56994232D01*
X109126396Y-56994232D01*
X108791512Y-56956500D01*
X108791504Y-56956500D01*
X105484500Y-56956500D01*
X105343915Y-56936287D01*
X105257958Y-56902112D01*
X105171166Y-56857889D01*
X104968736Y-56754745D01*
X104626199Y-56623258D01*
X104626197Y-56623257D01*
X104626196Y-56623257D01*
X104271793Y-56528294D01*
X103909416Y-56470899D01*
X103909407Y-56470898D01*
X103543003Y-56451696D01*
X103542997Y-56451696D01*
X103176592Y-56470898D01*
X103176583Y-56470899D01*
X102814206Y-56528294D01*
X102459803Y-56623257D01*
X102459796Y-56623260D01*
X102117268Y-56754743D01*
X101790348Y-56921317D01*
X101482631Y-57121150D01*
X101482628Y-57121152D01*
X101197503Y-57352041D01*
X101197486Y-57352057D01*
X100938057Y-57611486D01*
X100938041Y-57611503D01*
X100707152Y-57896628D01*
X100707150Y-57896631D01*
X100507317Y-58204348D01*
X100340743Y-58531268D01*
X100209260Y-58873796D01*
X100209257Y-58873803D01*
X100114294Y-59228206D01*
X100056899Y-59590583D01*
X100056898Y-59590592D01*
X100037696Y-59956997D01*
X100037696Y-59957002D01*
X100056898Y-60323407D01*
X100056899Y-60323416D01*
X100114294Y-60685793D01*
X100155513Y-60839622D01*
X100209258Y-61040199D01*
X100340745Y-61382736D01*
X100428616Y-61555193D01*
X100507317Y-61709651D01*
X100707150Y-62017368D01*
X100707152Y-62017371D01*
X100938041Y-62302496D01*
X100938057Y-62302513D01*
X101197486Y-62561942D01*
X101197503Y-62561958D01*
X101482628Y-62792847D01*
X101482631Y-62792849D01*
X101482633Y-62792850D01*
X101482634Y-62792851D01*
X101790348Y-62992682D01*
X102117264Y-63159255D01*
X102459801Y-63290742D01*
X102696931Y-63354281D01*
X102814206Y-63385705D01*
X103103798Y-63431572D01*
X103176596Y-63443102D01*
X103482204Y-63459117D01*
X103542997Y-63462304D01*
X103543000Y-63462304D01*
X103543003Y-63462304D01*
X103600609Y-63459284D01*
X103909404Y-63443102D01*
X104271794Y-63385705D01*
X104626199Y-63290742D01*
X104968736Y-63159255D01*
X105257958Y-63011887D01*
X105392396Y-62966074D01*
X105484500Y-62957500D01*
X107794460Y-62957500D01*
X107935045Y-62977713D01*
X108064240Y-63036714D01*
X108171579Y-63129724D01*
X108248366Y-63249208D01*
X108288381Y-63385485D01*
X108288381Y-63527515D01*
X108248366Y-63663792D01*
X108171579Y-63783276D01*
X108147306Y-63809346D01*
X107526306Y-64430346D01*
X107412605Y-64515462D01*
X107279530Y-64565096D01*
X107173460Y-64576500D01*
X95754491Y-64576500D01*
X95618698Y-64591800D01*
X95550800Y-64599451D01*
X95421935Y-64613970D01*
X95419597Y-64614234D01*
X95091059Y-64689220D01*
X95091043Y-64689225D01*
X94772954Y-64800529D01*
X94772952Y-64800529D01*
X94772949Y-64800531D01*
X94671737Y-64849272D01*
X94469304Y-64946758D01*
X94183963Y-65126052D01*
X94183956Y-65126057D01*
X93990424Y-65280394D01*
X93920478Y-65336173D01*
X93920467Y-65336183D01*
X92650477Y-66606175D01*
X92412179Y-66844472D01*
X92412169Y-66844483D01*
X92273936Y-67017823D01*
X92202057Y-67107956D01*
X92202052Y-67107963D01*
X92022758Y-67393304D01*
X91876529Y-67696954D01*
X91765225Y-68015043D01*
X91765220Y-68015059D01*
X91690234Y-68343597D01*
X91690233Y-68343606D01*
X91652532Y-68678211D01*
X91652531Y-68678225D01*
X91652500Y-68678488D01*
X91652500Y-68678496D01*
X91652500Y-76298495D01*
X91652500Y-76635505D01*
X91669231Y-76783993D01*
X91672221Y-76810527D01*
X91690234Y-76970402D01*
X91765220Y-77298940D01*
X91765222Y-77298949D01*
X91765224Y-77298954D01*
X91876531Y-77617051D01*
X91950557Y-77770767D01*
X92022758Y-77920695D01*
X92181591Y-78173473D01*
X92202054Y-78206039D01*
X92382263Y-78432015D01*
X92412176Y-78469524D01*
X92412184Y-78469532D01*
X92827306Y-78884654D01*
X92912422Y-78998355D01*
X92962056Y-79131430D01*
X92972189Y-79273098D01*
X92941998Y-79411883D01*
X92873930Y-79536540D01*
X92773500Y-79636970D01*
X92648843Y-79705038D01*
X92510058Y-79735229D01*
X92474460Y-79736500D01*
X89903450Y-79736500D01*
X89762865Y-79716287D01*
X89633670Y-79657286D01*
X89526331Y-79564276D01*
X89449544Y-79444792D01*
X89409529Y-79308515D01*
X89409529Y-79166485D01*
X89449544Y-79030208D01*
X89453866Y-79020993D01*
X89464768Y-78998355D01*
X89520215Y-78883218D01*
X89631151Y-78566181D01*
X89705893Y-78238717D01*
X89743500Y-77904943D01*
X89743500Y-77569057D01*
X89705893Y-77235283D01*
X89631151Y-76907819D01*
X89520215Y-76590782D01*
X89374480Y-76288159D01*
X89195778Y-76003757D01*
X88986356Y-75741151D01*
X88986355Y-75741150D01*
X88986352Y-75741146D01*
X88909654Y-75664448D01*
X88824538Y-75550747D01*
X88774904Y-75417672D01*
X88763500Y-75311602D01*
X88763500Y-64608502D01*
X88763500Y-64608496D01*
X88758287Y-64562224D01*
X88725767Y-64273605D01*
X88669366Y-64026495D01*
X88650780Y-63945062D01*
X88650778Y-63945058D01*
X88650776Y-63945046D01*
X88539469Y-63626949D01*
X88393246Y-63323314D01*
X88213946Y-63037960D01*
X88213944Y-63037957D01*
X88213940Y-63037951D01*
X88003831Y-62774485D01*
X88003824Y-62774476D01*
X84434826Y-59205478D01*
X84349710Y-59091777D01*
X84305675Y-58981781D01*
X84276742Y-58873801D01*
X84165200Y-58583224D01*
X84145255Y-58531264D01*
X83978682Y-58204348D01*
X83778851Y-57896634D01*
X83778849Y-57896631D01*
X83778847Y-57896628D01*
X83547958Y-57611503D01*
X83547942Y-57611486D01*
X83288513Y-57352057D01*
X83288496Y-57352041D01*
X83003371Y-57121152D01*
X83003368Y-57121150D01*
X82695651Y-56921317D01*
X82510875Y-56827169D01*
X82368736Y-56754745D01*
X82026199Y-56623258D01*
X82026197Y-56623257D01*
X82026196Y-56623257D01*
X81671793Y-56528294D01*
X81309416Y-56470899D01*
X81309407Y-56470898D01*
X80943003Y-56451696D01*
X80942997Y-56451696D01*
X80576592Y-56470898D01*
X80576583Y-56470899D01*
X80214206Y-56528294D01*
X79859803Y-56623257D01*
X79859796Y-56623260D01*
X79517268Y-56754743D01*
X79190348Y-56921317D01*
X78882631Y-57121150D01*
X78882628Y-57121152D01*
X78597503Y-57352041D01*
X78597486Y-57352057D01*
X78338057Y-57611486D01*
X78338041Y-57611503D01*
X78107152Y-57896628D01*
X78107150Y-57896631D01*
X77907317Y-58204348D01*
X77740743Y-58531268D01*
X77609260Y-58873796D01*
X77609257Y-58873803D01*
X77514294Y-59228206D01*
X77456899Y-59590583D01*
X77456898Y-59590592D01*
X77437696Y-59956997D01*
X73903500Y-59956997D01*
X73903500Y-55913610D01*
X130686718Y-55913610D01*
X130686718Y-55913611D01*
X131482999Y-56709893D01*
X131483001Y-56709893D01*
X132279282Y-55913610D01*
X132105821Y-55830077D01*
X132105815Y-55830074D01*
X131862346Y-55754975D01*
X131610393Y-55717000D01*
X131355607Y-55717000D01*
X131103656Y-55754974D01*
X130860174Y-55830079D01*
X130686718Y-55913610D01*
X73903500Y-55913610D01*
X73903500Y-48336989D01*
X76533539Y-48336989D01*
X76533539Y-48337010D01*
X76553370Y-48803886D01*
X76553372Y-48803899D01*
X76612728Y-49267421D01*
X76711182Y-49724245D01*
X76711187Y-49724267D01*
X76848023Y-50171084D01*
X77022266Y-50604703D01*
X77022266Y-50604705D01*
X77232654Y-51021984D01*
X77477664Y-51419907D01*
X77477665Y-51419909D01*
X77477670Y-51419915D01*
X77477672Y-51419919D01*
X77755554Y-51795641D01*
X77755560Y-51795648D01*
X77755561Y-51795649D01*
X78064300Y-52146444D01*
X78312504Y-52384328D01*
X78401681Y-52469797D01*
X78765270Y-52763375D01*
X79152447Y-53025060D01*
X79152450Y-53025061D01*
X79152455Y-53025065D01*
X79501527Y-53220068D01*
X79560421Y-53252968D01*
X79986253Y-53445457D01*
X79986259Y-53445459D01*
X79986269Y-53445463D01*
X80161201Y-53507270D01*
X80426876Y-53601139D01*
X80879113Y-53718892D01*
X81339708Y-53797869D01*
X81339710Y-53797869D01*
X81339715Y-53797870D01*
X81607823Y-53820688D01*
X81805342Y-53837500D01*
X81805349Y-53837500D01*
X82272651Y-53837500D01*
X82272658Y-53837500D01*
X82526628Y-53815884D01*
X82738284Y-53797870D01*
X82738287Y-53797869D01*
X82738292Y-53797869D01*
X83198887Y-53718892D01*
X83651124Y-53601139D01*
X84091747Y-53445457D01*
X84517579Y-53252968D01*
X84925544Y-53025065D01*
X84925545Y-53025065D01*
X84925549Y-53025061D01*
X84925553Y-53025060D01*
X85312730Y-52763375D01*
X85676319Y-52469797D01*
X86013701Y-52146442D01*
X86322446Y-51795641D01*
X86600328Y-51419919D01*
X86845345Y-51021985D01*
X87055733Y-50604706D01*
X87229975Y-50171088D01*
X87366816Y-49724255D01*
X87465270Y-49267427D01*
X87524628Y-48803896D01*
X87524628Y-48803891D01*
X87524629Y-48803886D01*
X87544461Y-48337010D01*
X87544461Y-48336989D01*
X200643539Y-48336989D01*
X200643539Y-48337010D01*
X200663370Y-48803886D01*
X200663372Y-48803899D01*
X200722728Y-49267421D01*
X200821182Y-49724245D01*
X200821187Y-49724267D01*
X200958023Y-50171084D01*
X201132266Y-50604703D01*
X201132266Y-50604705D01*
X201342654Y-51021984D01*
X201587664Y-51419907D01*
X201587665Y-51419909D01*
X201587670Y-51419915D01*
X201587672Y-51419919D01*
X201865554Y-51795641D01*
X201865560Y-51795648D01*
X201865561Y-51795649D01*
X202174300Y-52146444D01*
X202422504Y-52384328D01*
X202511681Y-52469797D01*
X202875270Y-52763375D01*
X203262447Y-53025060D01*
X203262450Y-53025061D01*
X203262455Y-53025065D01*
X203611527Y-53220068D01*
X203670421Y-53252968D01*
X204096253Y-53445457D01*
X204096259Y-53445459D01*
X204096269Y-53445463D01*
X204271201Y-53507270D01*
X204536876Y-53601139D01*
X204989113Y-53718892D01*
X205449708Y-53797869D01*
X205449710Y-53797869D01*
X205449715Y-53797870D01*
X205717823Y-53820688D01*
X205915342Y-53837500D01*
X205915349Y-53837500D01*
X206382651Y-53837500D01*
X206382658Y-53837500D01*
X206636628Y-53815884D01*
X206848284Y-53797870D01*
X206848287Y-53797869D01*
X206848292Y-53797869D01*
X207308887Y-53718892D01*
X207761124Y-53601139D01*
X208201747Y-53445457D01*
X208627579Y-53252968D01*
X209035544Y-53025065D01*
X209035545Y-53025065D01*
X209035549Y-53025061D01*
X209035553Y-53025060D01*
X209422730Y-52763375D01*
X209786319Y-52469797D01*
X210123701Y-52146442D01*
X210432446Y-51795641D01*
X210710328Y-51419919D01*
X210955345Y-51021985D01*
X211165733Y-50604706D01*
X211339975Y-50171088D01*
X211476816Y-49724255D01*
X211575270Y-49267427D01*
X211634628Y-48803896D01*
X211634628Y-48803891D01*
X211634629Y-48803886D01*
X211654461Y-48337010D01*
X211654461Y-48336989D01*
X211634629Y-47870113D01*
X211634627Y-47870100D01*
X211575271Y-47406578D01*
X211575270Y-47406573D01*
X211476816Y-46949745D01*
X211339975Y-46502912D01*
X211165733Y-46069294D01*
X210955345Y-45652015D01*
X210710328Y-45254081D01*
X210432446Y-44878359D01*
X210398542Y-44839837D01*
X210123699Y-44527555D01*
X209786327Y-44204211D01*
X209786323Y-44204207D01*
X209786324Y-44204207D01*
X209786319Y-44204203D01*
X209422730Y-43910625D01*
X209035553Y-43648940D01*
X209035552Y-43648939D01*
X209035544Y-43648934D01*
X208627585Y-43421035D01*
X208627570Y-43421028D01*
X208201740Y-43228540D01*
X208201730Y-43228536D01*
X207761130Y-43072863D01*
X207761128Y-43072862D01*
X207761124Y-43072861D01*
X207308887Y-42955108D01*
X207308886Y-42955107D01*
X207308879Y-42955106D01*
X206848301Y-42876132D01*
X206848284Y-42876129D01*
X206382677Y-42836501D01*
X206382663Y-42836500D01*
X206382658Y-42836500D01*
X205915342Y-42836500D01*
X205915336Y-42836500D01*
X205915322Y-42836501D01*
X205449715Y-42876129D01*
X205449698Y-42876132D01*
X204989121Y-42955106D01*
X204989120Y-42955106D01*
X204858720Y-42989059D01*
X204536876Y-43072861D01*
X204536870Y-43072863D01*
X204536868Y-43072863D01*
X204096269Y-43228536D01*
X204096259Y-43228540D01*
X203670429Y-43421028D01*
X203670414Y-43421035D01*
X203262455Y-43648934D01*
X203262454Y-43648934D01*
X202875271Y-43910624D01*
X202875268Y-43910626D01*
X202511676Y-44204207D01*
X202511672Y-44204211D01*
X202174300Y-44527555D01*
X201865561Y-44878350D01*
X201587665Y-45254090D01*
X201587664Y-45254092D01*
X201342654Y-45652015D01*
X201132266Y-46069294D01*
X201132266Y-46069296D01*
X200958023Y-46502915D01*
X200821187Y-46949732D01*
X200821182Y-46949754D01*
X200722728Y-47406578D01*
X200663372Y-47870100D01*
X200663370Y-47870113D01*
X200643539Y-48336989D01*
X87544461Y-48336989D01*
X87524629Y-47870113D01*
X87524627Y-47870100D01*
X87465271Y-47406578D01*
X87465270Y-47406573D01*
X87366816Y-46949745D01*
X87229975Y-46502912D01*
X87055733Y-46069294D01*
X86845345Y-45652015D01*
X86600328Y-45254081D01*
X86322446Y-44878359D01*
X86288542Y-44839837D01*
X86013699Y-44527555D01*
X85676327Y-44204211D01*
X85676323Y-44204207D01*
X85676324Y-44204207D01*
X85676319Y-44204203D01*
X85312730Y-43910625D01*
X84925553Y-43648940D01*
X84925552Y-43648939D01*
X84925544Y-43648934D01*
X84517585Y-43421035D01*
X84517570Y-43421028D01*
X84091740Y-43228540D01*
X84091730Y-43228536D01*
X83651130Y-43072863D01*
X83651128Y-43072862D01*
X83651124Y-43072861D01*
X83198887Y-42955108D01*
X83198886Y-42955107D01*
X83198879Y-42955106D01*
X82738301Y-42876132D01*
X82738284Y-42876129D01*
X82272677Y-42836501D01*
X82272663Y-42836500D01*
X82272658Y-42836500D01*
X81805342Y-42836500D01*
X81805336Y-42836500D01*
X81805322Y-42836501D01*
X81339715Y-42876129D01*
X81339698Y-42876132D01*
X80879121Y-42955106D01*
X80879120Y-42955106D01*
X80748720Y-42989059D01*
X80426876Y-43072861D01*
X80426870Y-43072863D01*
X80426868Y-43072863D01*
X79986269Y-43228536D01*
X79986259Y-43228540D01*
X79560429Y-43421028D01*
X79560414Y-43421035D01*
X79152455Y-43648934D01*
X79152454Y-43648934D01*
X78765271Y-43910624D01*
X78765268Y-43910626D01*
X78401676Y-44204207D01*
X78401672Y-44204211D01*
X78064300Y-44527555D01*
X77755561Y-44878350D01*
X77477665Y-45254090D01*
X77477664Y-45254092D01*
X77232654Y-45652015D01*
X77022266Y-46069294D01*
X77022266Y-46069296D01*
X76848023Y-46502915D01*
X76711187Y-46949732D01*
X76711182Y-46949754D01*
X76612728Y-47406578D01*
X76553372Y-47870100D01*
X76553370Y-47870113D01*
X76533539Y-48336989D01*
X73903500Y-48336989D01*
X73903500Y-41891500D01*
X73923713Y-41750915D01*
X73982714Y-41621720D01*
X74075724Y-41514381D01*
X74195208Y-41437594D01*
X74331485Y-41397579D01*
X74402500Y-41392500D01*
X212403500Y-41392500D01*
X212544085Y-41412713D01*
G37*
%TD.AperFunction*%
%TD*%
%TA.AperFunction,Conductor*%
%TO.N,GND*%
G36*
X94941880Y-114314683D02*
G01*
X94518000Y-115932000D01*
X93518000Y-115932000D01*
X93094120Y-114314683D01*
X94018000Y-113931000D01*
X94941880Y-114314683D01*
G37*
%TD.AperFunction*%
%TD*%
%TA.AperFunction,Conductor*%
%TO.N,Vs*%
G36*
X136432848Y-95994254D02*
G01*
X136438540Y-96000291D01*
X136817102Y-96911839D01*
X136817997Y-96916338D01*
X136817014Y-97899897D01*
X136813579Y-97908166D01*
X136805302Y-97911585D01*
X136803142Y-97911382D01*
X134851790Y-97542799D01*
X134844297Y-97537896D01*
X134842262Y-97531302D01*
X134842262Y-96549332D01*
X134845689Y-96541059D01*
X134850134Y-96538276D01*
X136423909Y-95993721D01*
X136432848Y-95994254D01*
G37*
%TD.AperFunction*%
%TD*%
%TA.AperFunction,Conductor*%
%TO.N,Vs*%
G36*
X153898176Y-87833201D02*
G01*
X153898792Y-87833774D01*
X154596050Y-88529640D01*
X154598599Y-88533454D01*
X154974866Y-89444220D01*
X154974857Y-89453174D01*
X154968519Y-89459501D01*
X154967694Y-89459806D01*
X153339695Y-89993005D01*
X153330766Y-89992323D01*
X153327780Y-89990159D01*
X152633448Y-89295827D01*
X152630021Y-89287554D01*
X152632866Y-89279907D01*
X153881675Y-87834404D01*
X153889675Y-87830386D01*
X153898176Y-87833201D01*
G37*
%TD.AperFunction*%
%TD*%
%TA.AperFunction,Conductor*%
%TO.N,Net-(U1-CT)*%
G36*
X110392244Y-111935427D02*
G01*
X110395289Y-111940734D01*
X110814295Y-113539456D01*
X110813077Y-113548327D01*
X110807464Y-113553227D01*
X109897487Y-113931136D01*
X109888533Y-113931145D01*
X109888513Y-113931136D01*
X108978535Y-113553227D01*
X108972208Y-113546889D01*
X108971704Y-113539456D01*
X109390711Y-111940734D01*
X109396124Y-111933600D01*
X109402029Y-111932000D01*
X110383971Y-111932000D01*
X110392244Y-111935427D01*
G37*
%TD.AperFunction*%
%TD*%
%TA.AperFunction,Conductor*%
%TO.N,GND*%
G36*
X146089000Y-98946000D02*
G01*
X146088000Y-99946000D01*
X144138523Y-99700000D01*
X144138523Y-98700000D01*
X145705317Y-98022120D01*
X146089000Y-98946000D01*
G37*
%TD.AperFunction*%
%TD*%
%TA.AperFunction,Conductor*%
%TO.N,GND*%
G36*
X100656880Y-113549317D02*
G01*
X99733000Y-113933000D01*
X98809120Y-113549317D01*
X99233000Y-111932000D01*
X100233000Y-111932000D01*
X100656880Y-113549317D01*
G37*
%TD.AperFunction*%
%TD*%
%TA.AperFunction,Conductor*%
%TO.N,Net-(U1-CT)*%
G36*
X122881412Y-113553218D02*
G01*
X122887025Y-113558118D01*
X123364273Y-114374379D01*
X123721210Y-114984866D01*
X123722428Y-114993736D01*
X123719383Y-114999043D01*
X123025043Y-115693383D01*
X123016770Y-115696810D01*
X123010866Y-115695210D01*
X122400379Y-115338273D01*
X121584118Y-114861025D01*
X121578705Y-114853891D01*
X121579208Y-114846459D01*
X121955438Y-113935782D01*
X121961764Y-113929446D01*
X121961767Y-113929444D01*
X122872459Y-113553209D01*
X122881412Y-113553218D01*
G37*
%TD.AperFunction*%
%TD*%
%TA.AperFunction,Conductor*%
%TO.N,Vs*%
G36*
X145158267Y-96411711D02*
G01*
X145165400Y-96417123D01*
X145167000Y-96423028D01*
X145167000Y-97404971D01*
X145163573Y-97413244D01*
X145158266Y-97416289D01*
X143559543Y-97835295D01*
X143550672Y-97834077D01*
X143545773Y-97828465D01*
X143167862Y-96918485D01*
X143167854Y-96909535D01*
X143545773Y-95999533D01*
X143552110Y-95993208D01*
X143559542Y-95992704D01*
X145158267Y-96411711D01*
G37*
%TD.AperFunction*%
%TD*%
%TA.AperFunction,Conductor*%
%TO.N,GND*%
G36*
X94400683Y-113008120D02*
G01*
X94018707Y-113932707D01*
X93094120Y-114314683D01*
X92250233Y-112871340D01*
X92957340Y-112164233D01*
X94400683Y-113008120D01*
G37*
%TD.AperFunction*%
%TD*%
%TA.AperFunction,Conductor*%
%TO.N,GND*%
G36*
X146089000Y-110122000D02*
G01*
X146470683Y-111045880D01*
X144920478Y-111892000D01*
X144920478Y-110892000D01*
X145164120Y-109739317D01*
X146089000Y-110122000D01*
G37*
%TD.AperFunction*%
%TD*%
M02*
