%TF.GenerationSoftware,KiCad,Pcbnew,8.0.3*%
%TF.CreationDate,2024-07-06T20:18:36-03:00*%
%TF.ProjectId,Fuente_Conmutada,4675656e-7465-45f4-936f-6e6d75746164,rev?*%
%TF.SameCoordinates,Original*%
%TF.FileFunction,Copper,L1,Top*%
%TF.FilePolarity,Positive*%
%FSLAX46Y46*%
G04 Gerber Fmt 4.6, Leading zero omitted, Abs format (unit mm)*
G04 Created by KiCad (PCBNEW 8.0.3) date 2024-07-06 20:18:36*
%MOMM*%
%LPD*%
G01*
G04 APERTURE LIST*
%ADD10C,0.300000*%
%TA.AperFunction,NonConductor*%
%ADD11C,0.300000*%
%TD*%
%TA.AperFunction,NonConductor*%
%ADD12C,0.200000*%
%TD*%
%TA.AperFunction,ComponentPad*%
%ADD13C,1.600000*%
%TD*%
%TA.AperFunction,ComponentPad*%
%ADD14O,1.600000X1.600000*%
%TD*%
%TA.AperFunction,ComponentPad*%
%ADD15R,1.905000X2.000000*%
%TD*%
%TA.AperFunction,ComponentPad*%
%ADD16O,1.905000X2.000000*%
%TD*%
%TA.AperFunction,SMDPad,CuDef*%
%ADD17C,1.500000*%
%TD*%
%TA.AperFunction,ComponentPad*%
%ADD18C,3.000000*%
%TD*%
%TA.AperFunction,ComponentPad*%
%ADD19R,1.600000X1.600000*%
%TD*%
%TA.AperFunction,ComponentPad*%
%ADD20R,3.960000X1.980000*%
%TD*%
%TA.AperFunction,ComponentPad*%
%ADD21O,3.960000X1.980000*%
%TD*%
%TA.AperFunction,ComponentPad*%
%ADD22R,2.400000X2.400000*%
%TD*%
%TA.AperFunction,ComponentPad*%
%ADD23C,2.400000*%
%TD*%
%TA.AperFunction,ComponentPad*%
%ADD24R,1.700000X1.700000*%
%TD*%
%TA.AperFunction,ComponentPad*%
%ADD25O,1.700000X1.700000*%
%TD*%
%TA.AperFunction,ComponentPad*%
%ADD26R,2.000000X2.000000*%
%TD*%
%TA.AperFunction,ComponentPad*%
%ADD27C,2.000000*%
%TD*%
%TA.AperFunction,ComponentPad*%
%ADD28R,2.300000X2.300000*%
%TD*%
%TA.AperFunction,ComponentPad*%
%ADD29C,2.300000*%
%TD*%
%TA.AperFunction,ComponentPad*%
%ADD30C,2.340000*%
%TD*%
%TA.AperFunction,ComponentPad*%
%ADD31R,2.200000X2.200000*%
%TD*%
%TA.AperFunction,ComponentPad*%
%ADD32C,2.200000*%
%TD*%
%TA.AperFunction,ViaPad*%
%ADD33C,7.000000*%
%TD*%
%TA.AperFunction,ViaPad*%
%ADD34C,2.000000*%
%TD*%
%TA.AperFunction,Conductor*%
%ADD35C,1.000000*%
%TD*%
%TA.AperFunction,Conductor*%
%ADD36C,2.000000*%
%TD*%
G04 APERTURE END LIST*
D10*
D11*
X62375329Y-95177712D02*
X62375329Y-94891998D01*
X62375329Y-94891998D02*
X62303901Y-94749141D01*
X62303901Y-94749141D02*
X62232472Y-94677712D01*
X62232472Y-94677712D02*
X62018186Y-94534855D01*
X62018186Y-94534855D02*
X61732472Y-94463426D01*
X61732472Y-94463426D02*
X61161043Y-94463426D01*
X61161043Y-94463426D02*
X61018186Y-94534855D01*
X61018186Y-94534855D02*
X60946758Y-94606284D01*
X60946758Y-94606284D02*
X60875329Y-94749141D01*
X60875329Y-94749141D02*
X60875329Y-95034855D01*
X60875329Y-95034855D02*
X60946758Y-95177712D01*
X60946758Y-95177712D02*
X61018186Y-95249141D01*
X61018186Y-95249141D02*
X61161043Y-95320569D01*
X61161043Y-95320569D02*
X61518186Y-95320569D01*
X61518186Y-95320569D02*
X61661043Y-95249141D01*
X61661043Y-95249141D02*
X61732472Y-95177712D01*
X61732472Y-95177712D02*
X61803901Y-95034855D01*
X61803901Y-95034855D02*
X61803901Y-94749141D01*
X61803901Y-94749141D02*
X61732472Y-94606284D01*
X61732472Y-94606284D02*
X61661043Y-94534855D01*
X61661043Y-94534855D02*
X61518186Y-94463426D01*
X60875329Y-93106284D02*
X60875329Y-93820570D01*
X60875329Y-93820570D02*
X61589615Y-93891998D01*
X61589615Y-93891998D02*
X61518186Y-93820570D01*
X61518186Y-93820570D02*
X61446758Y-93677713D01*
X61446758Y-93677713D02*
X61446758Y-93320570D01*
X61446758Y-93320570D02*
X61518186Y-93177713D01*
X61518186Y-93177713D02*
X61589615Y-93106284D01*
X61589615Y-93106284D02*
X61732472Y-93034855D01*
X61732472Y-93034855D02*
X62089615Y-93034855D01*
X62089615Y-93034855D02*
X62232472Y-93106284D01*
X62232472Y-93106284D02*
X62303901Y-93177713D01*
X62303901Y-93177713D02*
X62375329Y-93320570D01*
X62375329Y-93320570D02*
X62375329Y-93677713D01*
X62375329Y-93677713D02*
X62303901Y-93820570D01*
X62303901Y-93820570D02*
X62232472Y-93891998D01*
X62303901Y-92320570D02*
X62375329Y-92320570D01*
X62375329Y-92320570D02*
X62518186Y-92391999D01*
X62518186Y-92391999D02*
X62589615Y-92463427D01*
X60875329Y-91391998D02*
X60875329Y-91249141D01*
X60875329Y-91249141D02*
X60946758Y-91106284D01*
X60946758Y-91106284D02*
X61018186Y-91034856D01*
X61018186Y-91034856D02*
X61161043Y-90963427D01*
X61161043Y-90963427D02*
X61446758Y-90891998D01*
X61446758Y-90891998D02*
X61803901Y-90891998D01*
X61803901Y-90891998D02*
X62089615Y-90963427D01*
X62089615Y-90963427D02*
X62232472Y-91034856D01*
X62232472Y-91034856D02*
X62303901Y-91106284D01*
X62303901Y-91106284D02*
X62375329Y-91249141D01*
X62375329Y-91249141D02*
X62375329Y-91391998D01*
X62375329Y-91391998D02*
X62303901Y-91534856D01*
X62303901Y-91534856D02*
X62232472Y-91606284D01*
X62232472Y-91606284D02*
X62089615Y-91677713D01*
X62089615Y-91677713D02*
X61803901Y-91749141D01*
X61803901Y-91749141D02*
X61446758Y-91749141D01*
X61446758Y-91749141D02*
X61161043Y-91677713D01*
X61161043Y-91677713D02*
X61018186Y-91606284D01*
X61018186Y-91606284D02*
X60946758Y-91534856D01*
X60946758Y-91534856D02*
X60875329Y-91391998D01*
X60875329Y-89963427D02*
X60875329Y-89820570D01*
X60875329Y-89820570D02*
X60946758Y-89677713D01*
X60946758Y-89677713D02*
X61018186Y-89606285D01*
X61018186Y-89606285D02*
X61161043Y-89534856D01*
X61161043Y-89534856D02*
X61446758Y-89463427D01*
X61446758Y-89463427D02*
X61803901Y-89463427D01*
X61803901Y-89463427D02*
X62089615Y-89534856D01*
X62089615Y-89534856D02*
X62232472Y-89606285D01*
X62232472Y-89606285D02*
X62303901Y-89677713D01*
X62303901Y-89677713D02*
X62375329Y-89820570D01*
X62375329Y-89820570D02*
X62375329Y-89963427D01*
X62375329Y-89963427D02*
X62303901Y-90106285D01*
X62303901Y-90106285D02*
X62232472Y-90177713D01*
X62232472Y-90177713D02*
X62089615Y-90249142D01*
X62089615Y-90249142D02*
X61803901Y-90320570D01*
X61803901Y-90320570D02*
X61446758Y-90320570D01*
X61446758Y-90320570D02*
X61161043Y-90249142D01*
X61161043Y-90249142D02*
X61018186Y-90177713D01*
X61018186Y-90177713D02*
X60946758Y-90106285D01*
X60946758Y-90106285D02*
X60875329Y-89963427D01*
X60875329Y-88534856D02*
X60875329Y-88391999D01*
X60875329Y-88391999D02*
X60946758Y-88249142D01*
X60946758Y-88249142D02*
X61018186Y-88177714D01*
X61018186Y-88177714D02*
X61161043Y-88106285D01*
X61161043Y-88106285D02*
X61446758Y-88034856D01*
X61446758Y-88034856D02*
X61803901Y-88034856D01*
X61803901Y-88034856D02*
X62089615Y-88106285D01*
X62089615Y-88106285D02*
X62232472Y-88177714D01*
X62232472Y-88177714D02*
X62303901Y-88249142D01*
X62303901Y-88249142D02*
X62375329Y-88391999D01*
X62375329Y-88391999D02*
X62375329Y-88534856D01*
X62375329Y-88534856D02*
X62303901Y-88677714D01*
X62303901Y-88677714D02*
X62232472Y-88749142D01*
X62232472Y-88749142D02*
X62089615Y-88820571D01*
X62089615Y-88820571D02*
X61803901Y-88891999D01*
X61803901Y-88891999D02*
X61446758Y-88891999D01*
X61446758Y-88891999D02*
X61161043Y-88820571D01*
X61161043Y-88820571D02*
X61018186Y-88749142D01*
X61018186Y-88749142D02*
X60946758Y-88677714D01*
X60946758Y-88677714D02*
X60875329Y-88534856D01*
X60875329Y-87106285D02*
X60875329Y-86963428D01*
X60875329Y-86963428D02*
X60946758Y-86820571D01*
X60946758Y-86820571D02*
X61018186Y-86749143D01*
X61018186Y-86749143D02*
X61161043Y-86677714D01*
X61161043Y-86677714D02*
X61446758Y-86606285D01*
X61446758Y-86606285D02*
X61803901Y-86606285D01*
X61803901Y-86606285D02*
X62089615Y-86677714D01*
X62089615Y-86677714D02*
X62232472Y-86749143D01*
X62232472Y-86749143D02*
X62303901Y-86820571D01*
X62303901Y-86820571D02*
X62375329Y-86963428D01*
X62375329Y-86963428D02*
X62375329Y-87106285D01*
X62375329Y-87106285D02*
X62303901Y-87249143D01*
X62303901Y-87249143D02*
X62232472Y-87320571D01*
X62232472Y-87320571D02*
X62089615Y-87392000D01*
X62089615Y-87392000D02*
X61803901Y-87463428D01*
X61803901Y-87463428D02*
X61446758Y-87463428D01*
X61446758Y-87463428D02*
X61161043Y-87392000D01*
X61161043Y-87392000D02*
X61018186Y-87320571D01*
X61018186Y-87320571D02*
X60946758Y-87249143D01*
X60946758Y-87249143D02*
X60875329Y-87106285D01*
X62375329Y-84820572D02*
X61375329Y-84820572D01*
X61518186Y-84820572D02*
X61446758Y-84749143D01*
X61446758Y-84749143D02*
X61375329Y-84606286D01*
X61375329Y-84606286D02*
X61375329Y-84392000D01*
X61375329Y-84392000D02*
X61446758Y-84249143D01*
X61446758Y-84249143D02*
X61589615Y-84177715D01*
X61589615Y-84177715D02*
X62375329Y-84177715D01*
X61589615Y-84177715D02*
X61446758Y-84106286D01*
X61446758Y-84106286D02*
X61375329Y-83963429D01*
X61375329Y-83963429D02*
X61375329Y-83749143D01*
X61375329Y-83749143D02*
X61446758Y-83606286D01*
X61446758Y-83606286D02*
X61589615Y-83534857D01*
X61589615Y-83534857D02*
X62375329Y-83534857D01*
X62375329Y-82820572D02*
X61375329Y-82820572D01*
X61518186Y-82820572D02*
X61446758Y-82749143D01*
X61446758Y-82749143D02*
X61375329Y-82606286D01*
X61375329Y-82606286D02*
X61375329Y-82392000D01*
X61375329Y-82392000D02*
X61446758Y-82249143D01*
X61446758Y-82249143D02*
X61589615Y-82177715D01*
X61589615Y-82177715D02*
X62375329Y-82177715D01*
X61589615Y-82177715D02*
X61446758Y-82106286D01*
X61446758Y-82106286D02*
X61375329Y-81963429D01*
X61375329Y-81963429D02*
X61375329Y-81749143D01*
X61375329Y-81749143D02*
X61446758Y-81606286D01*
X61446758Y-81606286D02*
X61589615Y-81534857D01*
X61589615Y-81534857D02*
X62375329Y-81534857D01*
D12*
X72903000Y-40892000D02*
X62910581Y-40892000D01*
X72903000Y-135892000D02*
X62910581Y-135892000D01*
X63497001Y-40892000D02*
X63497001Y-135892000D01*
X63497001Y-40892000D02*
X63497001Y-135892000D01*
X63497001Y-40892000D02*
X64083422Y-42018504D01*
X63497001Y-40892000D02*
X62910580Y-42018504D01*
X63497001Y-135892000D02*
X62910580Y-134765496D01*
X63497001Y-135892000D02*
X64083422Y-134765496D01*
D10*
D11*
X136617287Y-33547328D02*
X135760144Y-33547328D01*
X136188715Y-33547328D02*
X136188715Y-32047328D01*
X136188715Y-32047328D02*
X136045858Y-32261614D01*
X136045858Y-32261614D02*
X135903001Y-32404471D01*
X135903001Y-32404471D02*
X135760144Y-32475900D01*
X137903001Y-32547328D02*
X137903001Y-33547328D01*
X137545858Y-31975900D02*
X137188715Y-33047328D01*
X137188715Y-33047328D02*
X138117286Y-33047328D01*
X138974429Y-32047328D02*
X139117286Y-32047328D01*
X139117286Y-32047328D02*
X139260143Y-32118757D01*
X139260143Y-32118757D02*
X139331572Y-32190185D01*
X139331572Y-32190185D02*
X139403000Y-32333042D01*
X139403000Y-32333042D02*
X139474429Y-32618757D01*
X139474429Y-32618757D02*
X139474429Y-32975900D01*
X139474429Y-32975900D02*
X139403000Y-33261614D01*
X139403000Y-33261614D02*
X139331572Y-33404471D01*
X139331572Y-33404471D02*
X139260143Y-33475900D01*
X139260143Y-33475900D02*
X139117286Y-33547328D01*
X139117286Y-33547328D02*
X138974429Y-33547328D01*
X138974429Y-33547328D02*
X138831572Y-33475900D01*
X138831572Y-33475900D02*
X138760143Y-33404471D01*
X138760143Y-33404471D02*
X138688714Y-33261614D01*
X138688714Y-33261614D02*
X138617286Y-32975900D01*
X138617286Y-32975900D02*
X138617286Y-32618757D01*
X138617286Y-32618757D02*
X138688714Y-32333042D01*
X138688714Y-32333042D02*
X138760143Y-32190185D01*
X138760143Y-32190185D02*
X138831572Y-32118757D01*
X138831572Y-32118757D02*
X138974429Y-32047328D01*
X140188714Y-33475900D02*
X140188714Y-33547328D01*
X140188714Y-33547328D02*
X140117285Y-33690185D01*
X140117285Y-33690185D02*
X140045857Y-33761614D01*
X141117286Y-32047328D02*
X141260143Y-32047328D01*
X141260143Y-32047328D02*
X141403000Y-32118757D01*
X141403000Y-32118757D02*
X141474429Y-32190185D01*
X141474429Y-32190185D02*
X141545857Y-32333042D01*
X141545857Y-32333042D02*
X141617286Y-32618757D01*
X141617286Y-32618757D02*
X141617286Y-32975900D01*
X141617286Y-32975900D02*
X141545857Y-33261614D01*
X141545857Y-33261614D02*
X141474429Y-33404471D01*
X141474429Y-33404471D02*
X141403000Y-33475900D01*
X141403000Y-33475900D02*
X141260143Y-33547328D01*
X141260143Y-33547328D02*
X141117286Y-33547328D01*
X141117286Y-33547328D02*
X140974429Y-33475900D01*
X140974429Y-33475900D02*
X140903000Y-33404471D01*
X140903000Y-33404471D02*
X140831571Y-33261614D01*
X140831571Y-33261614D02*
X140760143Y-32975900D01*
X140760143Y-32975900D02*
X140760143Y-32618757D01*
X140760143Y-32618757D02*
X140831571Y-32333042D01*
X140831571Y-32333042D02*
X140903000Y-32190185D01*
X140903000Y-32190185D02*
X140974429Y-32118757D01*
X140974429Y-32118757D02*
X141117286Y-32047328D01*
X142545857Y-32047328D02*
X142688714Y-32047328D01*
X142688714Y-32047328D02*
X142831571Y-32118757D01*
X142831571Y-32118757D02*
X142903000Y-32190185D01*
X142903000Y-32190185D02*
X142974428Y-32333042D01*
X142974428Y-32333042D02*
X143045857Y-32618757D01*
X143045857Y-32618757D02*
X143045857Y-32975900D01*
X143045857Y-32975900D02*
X142974428Y-33261614D01*
X142974428Y-33261614D02*
X142903000Y-33404471D01*
X142903000Y-33404471D02*
X142831571Y-33475900D01*
X142831571Y-33475900D02*
X142688714Y-33547328D01*
X142688714Y-33547328D02*
X142545857Y-33547328D01*
X142545857Y-33547328D02*
X142403000Y-33475900D01*
X142403000Y-33475900D02*
X142331571Y-33404471D01*
X142331571Y-33404471D02*
X142260142Y-33261614D01*
X142260142Y-33261614D02*
X142188714Y-32975900D01*
X142188714Y-32975900D02*
X142188714Y-32618757D01*
X142188714Y-32618757D02*
X142260142Y-32333042D01*
X142260142Y-32333042D02*
X142331571Y-32190185D01*
X142331571Y-32190185D02*
X142403000Y-32118757D01*
X142403000Y-32118757D02*
X142545857Y-32047328D01*
X143974428Y-32047328D02*
X144117285Y-32047328D01*
X144117285Y-32047328D02*
X144260142Y-32118757D01*
X144260142Y-32118757D02*
X144331571Y-32190185D01*
X144331571Y-32190185D02*
X144402999Y-32333042D01*
X144402999Y-32333042D02*
X144474428Y-32618757D01*
X144474428Y-32618757D02*
X144474428Y-32975900D01*
X144474428Y-32975900D02*
X144402999Y-33261614D01*
X144402999Y-33261614D02*
X144331571Y-33404471D01*
X144331571Y-33404471D02*
X144260142Y-33475900D01*
X144260142Y-33475900D02*
X144117285Y-33547328D01*
X144117285Y-33547328D02*
X143974428Y-33547328D01*
X143974428Y-33547328D02*
X143831571Y-33475900D01*
X143831571Y-33475900D02*
X143760142Y-33404471D01*
X143760142Y-33404471D02*
X143688713Y-33261614D01*
X143688713Y-33261614D02*
X143617285Y-32975900D01*
X143617285Y-32975900D02*
X143617285Y-32618757D01*
X143617285Y-32618757D02*
X143688713Y-32333042D01*
X143688713Y-32333042D02*
X143760142Y-32190185D01*
X143760142Y-32190185D02*
X143831571Y-32118757D01*
X143831571Y-32118757D02*
X143974428Y-32047328D01*
X145402999Y-32047328D02*
X145545856Y-32047328D01*
X145545856Y-32047328D02*
X145688713Y-32118757D01*
X145688713Y-32118757D02*
X145760142Y-32190185D01*
X145760142Y-32190185D02*
X145831570Y-32333042D01*
X145831570Y-32333042D02*
X145902999Y-32618757D01*
X145902999Y-32618757D02*
X145902999Y-32975900D01*
X145902999Y-32975900D02*
X145831570Y-33261614D01*
X145831570Y-33261614D02*
X145760142Y-33404471D01*
X145760142Y-33404471D02*
X145688713Y-33475900D01*
X145688713Y-33475900D02*
X145545856Y-33547328D01*
X145545856Y-33547328D02*
X145402999Y-33547328D01*
X145402999Y-33547328D02*
X145260142Y-33475900D01*
X145260142Y-33475900D02*
X145188713Y-33404471D01*
X145188713Y-33404471D02*
X145117284Y-33261614D01*
X145117284Y-33261614D02*
X145045856Y-32975900D01*
X145045856Y-32975900D02*
X145045856Y-32618757D01*
X145045856Y-32618757D02*
X145117284Y-32333042D01*
X145117284Y-32333042D02*
X145188713Y-32190185D01*
X145188713Y-32190185D02*
X145260142Y-32118757D01*
X145260142Y-32118757D02*
X145402999Y-32047328D01*
X147688712Y-33547328D02*
X147688712Y-32547328D01*
X147688712Y-32690185D02*
X147760141Y-32618757D01*
X147760141Y-32618757D02*
X147902998Y-32547328D01*
X147902998Y-32547328D02*
X148117284Y-32547328D01*
X148117284Y-32547328D02*
X148260141Y-32618757D01*
X148260141Y-32618757D02*
X148331570Y-32761614D01*
X148331570Y-32761614D02*
X148331570Y-33547328D01*
X148331570Y-32761614D02*
X148402998Y-32618757D01*
X148402998Y-32618757D02*
X148545855Y-32547328D01*
X148545855Y-32547328D02*
X148760141Y-32547328D01*
X148760141Y-32547328D02*
X148902998Y-32618757D01*
X148902998Y-32618757D02*
X148974427Y-32761614D01*
X148974427Y-32761614D02*
X148974427Y-33547328D01*
X149688712Y-33547328D02*
X149688712Y-32547328D01*
X149688712Y-32690185D02*
X149760141Y-32618757D01*
X149760141Y-32618757D02*
X149902998Y-32547328D01*
X149902998Y-32547328D02*
X150117284Y-32547328D01*
X150117284Y-32547328D02*
X150260141Y-32618757D01*
X150260141Y-32618757D02*
X150331570Y-32761614D01*
X150331570Y-32761614D02*
X150331570Y-33547328D01*
X150331570Y-32761614D02*
X150402998Y-32618757D01*
X150402998Y-32618757D02*
X150545855Y-32547328D01*
X150545855Y-32547328D02*
X150760141Y-32547328D01*
X150760141Y-32547328D02*
X150902998Y-32618757D01*
X150902998Y-32618757D02*
X150974427Y-32761614D01*
X150974427Y-32761614D02*
X150974427Y-33547328D01*
D12*
X73403000Y-40392000D02*
X73403000Y-34082580D01*
X213403000Y-40392000D02*
X213403000Y-34082580D01*
X73403000Y-34669000D02*
X213403000Y-34669000D01*
X73403000Y-34669000D02*
X213403000Y-34669000D01*
X73403000Y-34669000D02*
X74529504Y-34082579D01*
X73403000Y-34669000D02*
X74529504Y-35255421D01*
X213403000Y-34669000D02*
X212276496Y-35255421D01*
X213403000Y-34669000D02*
X212276496Y-34082579D01*
D13*
%TO.P,R10,1*%
%TO.N,LO*%
X157010000Y-65918000D03*
D14*
%TO.P,R10,2*%
%TO.N,Net-(D4-A)*%
X146850000Y-65918000D03*
%TD*%
D13*
%TO.P,R12,1*%
%TO.N,Vs*%
X176314000Y-71006000D03*
D14*
%TO.P,R12,2*%
%TO.N,Net-(D3-A)*%
X166154000Y-71006000D03*
%TD*%
D13*
%TO.P,C7,1*%
%TO.N,Net-(T1-AA)*%
X198158000Y-63259000D03*
%TO.P,C7,2*%
%TO.N,Net-(C7-Pad2)*%
X198158000Y-68259000D03*
%TD*%
D15*
%TO.P,Q1,1,G*%
%TO.N,Net-(D3-A)*%
X169202000Y-59132000D03*
D16*
%TO.P,Q1,2,D*%
%TO.N,Net-(JP1-B)*%
X171742000Y-59132000D03*
%TO.P,Q1,3,S*%
%TO.N,Vs*%
X174282000Y-59132000D03*
%TD*%
D13*
%TO.P,R11,1*%
%TO.N,Net-(D4-A)*%
X146850000Y-70998000D03*
D14*
%TO.P,R11,2*%
%TO.N,GND*%
X157010000Y-70998000D03*
%TD*%
D17*
%TO.P,REF\u002A\u002A,*%
%TO.N,*%
X194153000Y-47142000D03*
%TD*%
D18*
%TO.P,L1,1,1*%
%TO.N,Net-(D5-K)*%
X195110000Y-123330000D03*
%TO.P,L1,2,2*%
%TO.N,Net-(J3-Pin_1)*%
X195110000Y-115430000D03*
%TD*%
D15*
%TO.P,Q2,1,G*%
%TO.N,Net-(D4-A)*%
X148823000Y-59392000D03*
D16*
%TO.P,Q2,2,D*%
%TO.N,Vs*%
X151363000Y-59392000D03*
%TO.P,Q2,3,S*%
%TO.N,GND*%
X153903000Y-59392000D03*
%TD*%
D19*
%TO.P,U1,1,1IN+*%
%TO.N,GND*%
X99748000Y-109477000D03*
D14*
%TO.P,U1,2,1IN-*%
%TO.N,Vref*%
X102288000Y-109477000D03*
%TO.P,U1,3,FB*%
%TO.N,Net-(U1-FB)*%
X104828000Y-109477000D03*
%TO.P,U1,4,DTC*%
%TO.N,GND*%
X107368000Y-109477000D03*
%TO.P,U1,5,CT*%
%TO.N,Net-(U1-CT)*%
X109908000Y-109477000D03*
%TO.P,U1,6,RT*%
%TO.N,Net-(U1-RT)*%
X112448000Y-109477000D03*
%TO.P,U1,7,GND*%
%TO.N,GND*%
X114988000Y-109477000D03*
%TO.P,U1,8,C1*%
%TO.N,+12V*%
X117528000Y-109477000D03*
%TO.P,U1,9,E1*%
%TO.N,Net-(JP3-A)*%
X117528000Y-101857000D03*
%TO.P,U1,10,E2*%
%TO.N,Net-(JP4-A)*%
X114988000Y-101857000D03*
%TO.P,U1,11,C2*%
%TO.N,+12V*%
X112448000Y-101857000D03*
%TO.P,U1,12,VCC*%
X109908000Y-101857000D03*
%TO.P,U1,13,OUTCTRL*%
%TO.N,Vref*%
X107368000Y-101857000D03*
%TO.P,U1,14,REF*%
X104828000Y-101857000D03*
%TO.P,U1,15,2IN-*%
X102288000Y-101857000D03*
%TO.P,U1,16,2IN+*%
%TO.N,GND*%
X99748000Y-101857000D03*
%TD*%
D20*
%TO.P,J2,1,Pin_1*%
%TO.N,GND*%
X85763000Y-106867000D03*
D21*
%TO.P,J2,2,Pin_2*%
%TO.N,+12V*%
X85763000Y-101867000D03*
%TD*%
D17*
%TO.P,REF\u002A\u002A,*%
%TO.N,*%
X95153000Y-47142000D03*
%TD*%
D19*
%TO.P,D2,1,K*%
%TO.N,Net-(D2-K)*%
X124498000Y-99327000D03*
D14*
%TO.P,D2,2,A*%
%TO.N,+12V*%
X124498000Y-106947000D03*
%TD*%
D13*
%TO.P,C3,1*%
%TO.N,Net-(U1-CT)*%
X127673000Y-117742000D03*
%TO.P,C3,2*%
%TO.N,GND*%
X132673000Y-117742000D03*
%TD*%
D18*
%TO.P,F1,1*%
%TO.N,Net-(F1-Pad1)*%
X103543000Y-59957000D03*
%TO.P,F1,2*%
%TO.N,VAC*%
X80943000Y-59957000D03*
%TD*%
D20*
%TO.P,J1,1,Pin_1*%
%TO.N,GND_AC*%
X85763000Y-82737000D03*
D21*
%TO.P,J1,2,Pin_2*%
%TO.N,VAC*%
X85763000Y-77737000D03*
%TD*%
D22*
%TO.P,C2,1*%
%TO.N,Net-(JP2-A)*%
X131483000Y-64917000D03*
D23*
%TO.P,C2,2*%
%TO.N,GND*%
X131483000Y-57417000D03*
%TD*%
D24*
%TO.P,JP6,1,A*%
%TO.N,Net-(JP6-A)*%
X156883000Y-98692000D03*
D25*
%TO.P,JP6,2,B*%
%TO.N,LO*%
X159423000Y-98692000D03*
%TD*%
D24*
%TO.P,JP4,1,A*%
%TO.N,Net-(JP4-A)*%
X156883000Y-118377000D03*
D25*
%TO.P,JP4,2,B*%
%TO.N,PWM2*%
X159423000Y-118377000D03*
%TD*%
D24*
%TO.P,JP1,1,A*%
%TO.N,Net-(D1-+)*%
X146215000Y-86254000D03*
D25*
%TO.P,JP1,2,B*%
%TO.N,Net-(JP1-B)*%
X148755000Y-86254000D03*
%TD*%
D26*
%TO.P,C8,1*%
%TO.N,Net-(J3-Pin_1)*%
X201841000Y-109360000D03*
D27*
%TO.P,C8,2*%
%TO.N,2*%
X201841000Y-104360000D03*
%TD*%
D24*
%TO.P,JP2,1,A*%
%TO.N,Net-(JP2-A)*%
X146215000Y-81174000D03*
D25*
%TO.P,JP2,2,B*%
%TO.N,/Punto_medio*%
X148755000Y-81174000D03*
%TD*%
D28*
%TO.P,T1,1,AA*%
%TO.N,Net-(T1-AA)*%
X192302000Y-90314000D03*
D29*
%TO.P,T1,2,AB*%
%TO.N,/Punto_medio*%
X171502000Y-90314000D03*
%TO.P,T1,3,SA*%
%TO.N,Net-(D5-A2)*%
X171502000Y-103514000D03*
%TO.P,T1,4,SC*%
%TO.N,2*%
X181902000Y-103514000D03*
%TO.P,T1,5,SB*%
%TO.N,Net-(JP8-A)*%
X192302000Y-103514000D03*
%TD*%
D20*
%TO.P,J3,1,Pin_1*%
%TO.N,Net-(J3-Pin_1)*%
X202222000Y-77483000D03*
D21*
%TO.P,J3,2,Pin_2*%
%TO.N,2*%
X202222000Y-82483000D03*
%TD*%
D17*
%TO.P,REF\u002A\u002A,*%
%TO.N,*%
X80403000Y-116392000D03*
%TD*%
D15*
%TO.P,D5,1,A1*%
%TO.N,Net-(D5-A1)*%
X176443000Y-123447000D03*
D16*
%TO.P,D5,2,K*%
%TO.N,Net-(D5-K)*%
X173903000Y-123447000D03*
%TO.P,D5,3,A2*%
%TO.N,Net-(D5-A2)*%
X171363000Y-123447000D03*
%TD*%
D13*
%TO.P,R3,1*%
%TO.N,Vref*%
X99733000Y-117107000D03*
D14*
%TO.P,R3,2*%
%TO.N,Net-(R3-Pad2)*%
X99733000Y-127267000D03*
%TD*%
D13*
%TO.P,R5,1*%
%TO.N,Vref*%
X104813000Y-117107000D03*
D14*
%TO.P,R5,2*%
%TO.N,GND*%
X114973000Y-117107000D03*
%TD*%
D13*
%TO.P,C6,1*%
%TO.N,Net-(T1-AA)*%
X198078000Y-59068000D03*
%TO.P,C6,2*%
%TO.N,Net-(JP7-B)*%
X193078000Y-59068000D03*
%TD*%
%TO.P,R2,1*%
%TO.N,Net-(JP2-A)*%
X111163000Y-85357000D03*
D14*
%TO.P,R2,2*%
%TO.N,GND*%
X111163000Y-75197000D03*
%TD*%
D13*
%TO.P,C5,1*%
%TO.N,Net-(D2-K)*%
X122466000Y-96279000D03*
%TO.P,C5,2*%
%TO.N,Vs*%
X127466000Y-96279000D03*
%TD*%
D30*
%TO.P,RV1,1,1*%
%TO.N,Net-(R3-Pad2)*%
X107393000Y-127267000D03*
%TO.P,RV1,2,2*%
%TO.N,Net-(U1-FB)*%
X109893000Y-124767000D03*
%TO.P,RV1,3,3*%
%TO.N,Net-(R4-Pad1)*%
X112393000Y-127267000D03*
%TD*%
%TO.P,RV2,1,1*%
%TO.N,Net-(U1-RT)*%
X127713000Y-127227000D03*
%TO.P,RV2,2,2*%
X130213000Y-124727000D03*
%TO.P,RV2,3,3*%
%TO.N,Net-(R8-Pad1)*%
X132713000Y-127227000D03*
%TD*%
D24*
%TO.P,JP8,1,A*%
%TO.N,Net-(JP8-A)*%
X176695000Y-111646000D03*
D25*
%TO.P,JP8,2,B*%
%TO.N,Net-(D5-A1)*%
X176695000Y-114186000D03*
%TD*%
D13*
%TO.P,R4,1*%
%TO.N,Net-(R4-Pad1)*%
X120053000Y-127267000D03*
D14*
%TO.P,R4,2*%
%TO.N,GND*%
X120053000Y-117107000D03*
%TD*%
D19*
%TO.P,D3,1,K*%
%TO.N,HO*%
X175044000Y-74816000D03*
D14*
%TO.P,D3,2,A*%
%TO.N,Net-(D3-A)*%
X167424000Y-74816000D03*
%TD*%
D13*
%TO.P,R13,1*%
%TO.N,Net-(C7-Pad2)*%
X194094000Y-63640000D03*
D14*
%TO.P,R13,2*%
%TO.N,/Punto_medio*%
X183934000Y-63640000D03*
%TD*%
D24*
%TO.P,JP3,1,A*%
%TO.N,Net-(JP3-A)*%
X156883000Y-123027000D03*
D25*
%TO.P,JP3,2,B*%
%TO.N,PWM1*%
X159423000Y-123027000D03*
%TD*%
D13*
%TO.P,R8,1*%
%TO.N,Net-(R8-Pad1)*%
X140373000Y-127267000D03*
D14*
%TO.P,R8,2*%
%TO.N,GND*%
X140373000Y-117107000D03*
%TD*%
D13*
%TO.P,R7,1*%
%TO.N,Net-(JP3-A)*%
X145453000Y-117107000D03*
D14*
%TO.P,R7,2*%
%TO.N,GND*%
X145453000Y-127267000D03*
%TD*%
D19*
%TO.P,U2,1,LO*%
%TO.N,Net-(JP6-A)*%
X143548000Y-101867000D03*
D14*
%TO.P,U2,2,COM*%
%TO.N,GND*%
X141008000Y-101867000D03*
%TO.P,U2,3,VCC*%
%TO.N,+12V*%
X138468000Y-101867000D03*
%TO.P,U2,4,NC*%
%TO.N,unconnected-(U2-NC-Pad4)*%
X135928000Y-101867000D03*
%TO.P,U2,5,VS*%
%TO.N,Vs*%
X133388000Y-101867000D03*
%TO.P,U2,6,VB*%
%TO.N,Net-(D2-K)*%
X130848000Y-101867000D03*
%TO.P,U2,7,HO*%
%TO.N,Net-(JP5-A)*%
X128308000Y-101867000D03*
%TO.P,U2,8,NC*%
%TO.N,unconnected-(U2-NC-Pad8)*%
X128308000Y-109487000D03*
%TO.P,U2,9,VDD*%
%TO.N,+12V*%
X130848000Y-109487000D03*
%TO.P,U2,10,HIN*%
%TO.N,PWM1*%
X133388000Y-109487000D03*
%TO.P,U2,11,SD*%
%TO.N,GND*%
X135928000Y-109487000D03*
%TO.P,U2,12,LIN*%
%TO.N,PWM2*%
X138468000Y-109487000D03*
%TO.P,U2,13,VSS*%
%TO.N,GND*%
X141008000Y-109487000D03*
%TO.P,U2,14,NC*%
%TO.N,unconnected-(U2-NC-Pad14)*%
X143548000Y-109487000D03*
%TD*%
D24*
%TO.P,JP7,1,A*%
%TO.N,Vs*%
X184061000Y-58941000D03*
D25*
%TO.P,JP7,2,B*%
%TO.N,Net-(JP7-B)*%
X186601000Y-58941000D03*
%TD*%
D13*
%TO.P,R1,1*%
%TO.N,Net-(D1-+)*%
X116243000Y-85357000D03*
D14*
%TO.P,R1,2*%
%TO.N,Net-(JP2-A)*%
X116243000Y-75197000D03*
%TD*%
D13*
%TO.P,TH1,1*%
%TO.N,Net-(D1-Pad2)*%
X116243000Y-59957000D03*
D14*
%TO.P,TH1,2*%
%TO.N,Net-(F1-Pad1)*%
X108623000Y-59957000D03*
%TD*%
D13*
%TO.P,R9,1*%
%TO.N,HO*%
X176314000Y-65926000D03*
D14*
%TO.P,R9,2*%
%TO.N,Net-(D3-A)*%
X166154000Y-65926000D03*
%TD*%
D19*
%TO.P,D4,1,K*%
%TO.N,LO*%
X155740000Y-74808000D03*
D14*
%TO.P,D4,2,A*%
%TO.N,Net-(D4-A)*%
X148120000Y-74808000D03*
%TD*%
D13*
%TO.P,R6,1*%
%TO.N,Net-(JP4-A)*%
X150533000Y-117107000D03*
D14*
%TO.P,R6,2*%
%TO.N,GND*%
X150533000Y-127267000D03*
%TD*%
D22*
%TO.P,C1,1*%
%TO.N,Net-(D1-+)*%
X131483000Y-85237000D03*
D23*
%TO.P,C1,2*%
%TO.N,Net-(JP2-A)*%
X131483000Y-77737000D03*
%TD*%
D24*
%TO.P,JP5,1,A*%
%TO.N,Net-(JP5-A)*%
X156883000Y-103342000D03*
D25*
%TO.P,JP5,2,B*%
%TO.N,HO*%
X159423000Y-103342000D03*
%TD*%
D31*
%TO.P,D1,1,-*%
%TO.N,GND*%
X101003000Y-75197000D03*
D32*
%TO.P,D1,2*%
%TO.N,Net-(D1-Pad2)*%
X101003000Y-79047000D03*
%TO.P,D1,3,+*%
%TO.N,Net-(D1-+)*%
X101003000Y-82897000D03*
%TO.P,D1,4*%
%TO.N,GND_AC*%
X101003000Y-86747000D03*
%TD*%
D19*
%TO.P,C4,1*%
%TO.N,Net-(D2-K)*%
X131515000Y-97041000D03*
D13*
%TO.P,C4,2*%
%TO.N,Vs*%
X133515000Y-97041000D03*
%TD*%
D33*
%TO.N,*%
X82039000Y-48337000D03*
X206149000Y-48337000D03*
X82039000Y-128982000D03*
X206245000Y-128728000D03*
D34*
%TO.N,Net-(U1-CT)*%
X109893000Y-113932000D03*
X121958000Y-113932000D03*
%TO.N,GND*%
X106337000Y-79007000D03*
X146088000Y-110122000D03*
X146088000Y-98946000D03*
X94018000Y-113932000D03*
X106337000Y-90818000D03*
X99733000Y-113932000D03*
%TO.N,Vs*%
X154597000Y-88532000D03*
X154597000Y-78118000D03*
X136817000Y-96914000D03*
X143167000Y-96914000D03*
%TO.N,LO*%
X158915000Y-88913000D03*
X158915000Y-77991000D03*
%TO.N,/Punto_medio*%
X166789000Y-78372000D03*
X180251000Y-78372000D03*
%TD*%
D35*
%TO.N,Net-(U1-CT)*%
X109893000Y-113932000D02*
X121958000Y-113932000D01*
%TO.N,GND*%
X146088000Y-110122000D02*
X146088000Y-98946000D01*
X99733000Y-113932000D02*
X94018000Y-113932000D01*
D36*
X106337000Y-79007000D02*
X106337000Y-90818000D01*
%TO.N,Vs*%
X154597000Y-78118000D02*
X154597000Y-88532000D01*
D35*
X136817000Y-96914000D02*
X143167000Y-96914000D01*
D36*
%TO.N,LO*%
X158915000Y-77991000D02*
X158915000Y-88913000D01*
%TO.N,/Punto_medio*%
X166789000Y-78372000D02*
X180251000Y-78372000D01*
%TD*%
%TA.AperFunction,Conductor*%
%TO.N,GND*%
G36*
X146587244Y-108125427D02*
G01*
X146590289Y-108130734D01*
X147009295Y-109729456D01*
X147008077Y-109738327D01*
X147002464Y-109743227D01*
X146092487Y-110121136D01*
X146083533Y-110121145D01*
X146083513Y-110121136D01*
X145173535Y-109743227D01*
X145167208Y-109736889D01*
X145166704Y-109729456D01*
X145585711Y-108130734D01*
X145591124Y-108123600D01*
X145597029Y-108122000D01*
X146578971Y-108122000D01*
X146587244Y-108125427D01*
G37*
%TD.AperFunction*%
%TD*%
%TA.AperFunction,Conductor*%
%TO.N,GND*%
G36*
X99349327Y-113011922D02*
G01*
X99354227Y-113017535D01*
X99732136Y-113927513D01*
X99732145Y-113936467D01*
X99732136Y-113936487D01*
X99354227Y-114846464D01*
X99347889Y-114852791D01*
X99340456Y-114853295D01*
X97741734Y-114434289D01*
X97734600Y-114428876D01*
X97733000Y-114422971D01*
X97733000Y-113441028D01*
X97736427Y-113432755D01*
X97741731Y-113429711D01*
X99340457Y-113010704D01*
X99349327Y-113011922D01*
G37*
%TD.AperFunction*%
%TD*%
%TA.AperFunction,Conductor*%
%TO.N,Vs*%
G36*
X142783327Y-95993922D02*
G01*
X142788227Y-95999535D01*
X143166136Y-96909513D01*
X143166145Y-96918467D01*
X143166136Y-96918487D01*
X142788227Y-97828464D01*
X142781889Y-97834791D01*
X142774456Y-97835295D01*
X141175734Y-97416289D01*
X141168600Y-97410876D01*
X141167000Y-97404971D01*
X141167000Y-96423028D01*
X141170427Y-96414755D01*
X141175731Y-96411711D01*
X142774457Y-95992704D01*
X142783327Y-95993922D01*
G37*
%TD.AperFunction*%
%TD*%
%TA.AperFunction,Conductor*%
%TO.N,GND*%
G36*
X147002464Y-99324772D02*
G01*
X147008791Y-99331110D01*
X147009295Y-99338543D01*
X146590289Y-100937266D01*
X146584876Y-100944400D01*
X146578971Y-100946000D01*
X145597029Y-100946000D01*
X145588756Y-100942573D01*
X145585711Y-100937266D01*
X145166704Y-99338543D01*
X145167922Y-99329672D01*
X145173532Y-99324773D01*
X146083514Y-98946862D01*
X146092464Y-98946854D01*
X147002464Y-99324772D01*
G37*
%TD.AperFunction*%
%TD*%
%TA.AperFunction,Conductor*%
%TO.N,Net-(U1-CT)*%
G36*
X111884267Y-113429711D02*
G01*
X111891400Y-113435123D01*
X111893000Y-113441028D01*
X111893000Y-114422971D01*
X111889573Y-114431244D01*
X111884266Y-114434289D01*
X110285543Y-114853295D01*
X110276672Y-114852077D01*
X110271773Y-114846465D01*
X109893862Y-113936485D01*
X109893854Y-113927535D01*
X110271773Y-113017533D01*
X110278110Y-113011208D01*
X110285542Y-113010704D01*
X111884267Y-113429711D01*
G37*
%TD.AperFunction*%
%TD*%
%TA.AperFunction,Conductor*%
%TO.N,Net-(U1-CT)*%
G36*
X121574327Y-113011922D02*
G01*
X121579227Y-113017535D01*
X121957136Y-113927513D01*
X121957145Y-113936467D01*
X121957136Y-113936487D01*
X121579227Y-114846464D01*
X121572889Y-114852791D01*
X121565456Y-114853295D01*
X119966734Y-114434289D01*
X119959600Y-114428876D01*
X119958000Y-114422971D01*
X119958000Y-113441028D01*
X119961427Y-113432755D01*
X119966731Y-113429711D01*
X121565457Y-113010704D01*
X121574327Y-113011922D01*
G37*
%TD.AperFunction*%
%TD*%
%TA.AperFunction,Conductor*%
%TO.N,Vs*%
G36*
X138808267Y-96411711D02*
G01*
X138815400Y-96417123D01*
X138817000Y-96423028D01*
X138817000Y-97404971D01*
X138813573Y-97413244D01*
X138808266Y-97416289D01*
X137209543Y-97835295D01*
X137200672Y-97834077D01*
X137195773Y-97828465D01*
X136817862Y-96918485D01*
X136817854Y-96909535D01*
X137195773Y-95999533D01*
X137202110Y-95993208D01*
X137209542Y-95992704D01*
X138808267Y-96411711D01*
G37*
%TD.AperFunction*%
%TD*%
%TA.AperFunction,Conductor*%
%TO.N,GND*%
G36*
X96009267Y-113429711D02*
G01*
X96016400Y-113435123D01*
X96018000Y-113441028D01*
X96018000Y-114422971D01*
X96014573Y-114431244D01*
X96009266Y-114434289D01*
X94410543Y-114853295D01*
X94401672Y-114852077D01*
X94396773Y-114846465D01*
X94018862Y-113936485D01*
X94018854Y-113927535D01*
X94396773Y-113017533D01*
X94403110Y-113011208D01*
X94410542Y-113010704D01*
X96009267Y-113429711D01*
G37*
%TD.AperFunction*%
%TD*%
M02*
